<svg width="21" height="21" viewBox="0 0 21 21" fill="none" xmlns="http://www.w3.org/2000/svg">
<path d="M10.5 0C4.71027 0 0 4.71027 0 10.5C0 16.2896 4.71027 20.9999 10.5 20.9999C16.2896 20.9999 20.9999 16.2897 20.9999 10.5C20.9999 4.71023 16.2896 0 10.5 0ZM10.5 19.6874C5.434 19.6874 1.3125 15.5659 1.3125 10.5C1.3125 5.434 5.434 1.3125 10.5 1.3125C15.5659 1.3125 19.6874 5.43395 19.6874 10.5C19.6874 15.5659 15.5659 19.6874 10.5 19.6874ZM16.3242 10.5C16.3242 10.8624 16.0303 11.1562 15.6679 11.1562H11.1562V15.6679C11.1562 16.0304 10.8624 16.3242 10.5 16.3242C10.1375 16.3242 9.84371 16.0304 9.84371 15.6679V11.1562H5.33199C4.96958 11.1562 4.67574 10.8624 4.67574 10.5C4.67574 10.1375 4.96958 9.84371 5.33199 9.84371H9.84371V5.33199C9.84371 4.96953 10.1375 4.67574 10.5 4.67574C10.8624 4.67574 11.1562 4.96953 11.1562 5.33199V9.84371H15.6679C16.0303 9.84371 16.3242 10.1375 16.3242 10.5Z" fill="#0E1C4C"/>
</svg>
