<svg width="21" height="21" viewBox="0 0 21 21" fill="none" xmlns="http://www.w3.org/2000/svg">
<path d="M10.5 0C16.2899 0 21 4.71007 21 10.5C21 16.2899 16.2899 21 10.5 21C4.71007 21 0 16.2899 0 10.5C0 4.71007 4.71007 0 10.5 0ZM10.5 19.6875C15.5662 19.6875 19.6875 15.5662 19.6875 10.5C19.6875 5.43377 15.5662 1.3125 10.5 1.3125C5.43377 1.3125 1.3125 5.43377 1.3125 10.5C1.3125 15.5662 5.43377 19.6875 10.5 19.6875Z" fill="#0E1C4C"/>
<path d="M5.90625 9.84375H15.0938C15.456 9.84375 15.75 10.1377 15.75 10.5C15.75 10.8623 15.456 11.1562 15.0938 11.1562H5.90625C5.544 11.1562 5.25 10.8623 5.25 10.5C5.25 10.1377 5.544 9.84375 5.90625 9.84375Z" fill="#0E1C4C"/>
</svg>
