<svg width="98" height="51" viewBox="0 0 98 51" fill="none" xmlns="http://www.w3.org/2000/svg">
<path d="M0 7C0 3.13401 3.13401 0 7 0H90.6037C94.4697 0 97.6037 3.13401 97.6037 7V43.145C97.6037 47.011 94.4697 50.145 90.6037 50.145H7C3.13401 50.145 0 47.011 0 43.145V7Z" fill="#172654"/>
<mask id="mask0_326_6" style="mask-type:luminance" maskUnits="userSpaceOnUse" x="29" y="17" width="40" height="17">
<path d="M68.054 17.9092H29.5497V33.7639H68.054V17.9092Z" fill="white"/>
</mask>
<g mask="url(#mask0_326_6)">
<path d="M36.5884 19.9532C36.1377 20.4888 35.4159 20.9112 34.6934 20.8508C34.6036 20.1267 34.9569 19.3574 35.3707 18.8822C35.8214 18.3316 36.6111 17.9393 37.2506 17.9092C37.3261 18.6634 37.0324 19.4026 36.5884 19.9532ZM37.243 20.9941C36.1974 20.9338 35.3027 21.59 34.8067 21.59C34.3024 21.59 33.5428 21.0243 32.7161 21.0394C31.6402 21.0545 30.6399 21.6654 30.091 22.6384C28.9631 24.5845 29.7981 27.4657 30.8883 29.0497C31.4221 29.8342 32.0615 30.694 32.9041 30.6638C33.7006 30.6337 34.017 30.1434 34.9796 30.1434C35.9497 30.1434 36.2276 30.6638 37.0701 30.6487C37.9421 30.6336 38.4918 29.8643 39.0255 29.0799C39.6348 28.1898 39.8824 27.3224 39.8975 27.2772C39.8824 27.2621 38.2132 26.6209 38.1981 24.69C38.183 23.0759 39.514 22.3066 39.5744 22.2613C38.8224 21.145 37.6492 21.0243 37.243 20.9941ZM43.2822 18.8068V30.5657H45.1016V26.5455H47.621C49.9222 26.5455 51.5394 24.9616 51.5394 22.6686C51.5394 20.3756 49.9524 18.8068 47.6814 18.8068H43.2822ZM45.1016 20.3455H47.1997C48.7792 20.3455 49.6814 21.1902 49.6814 22.6762C49.6814 24.162 48.7792 25.0143 47.1922 25.0143H45.1016V20.3455ZM54.8636 30.6563C56.0066 30.6563 57.0667 30.0755 57.5483 29.1553H57.5853V30.5657H59.2705V24.7126C59.2705 23.0156 57.9167 21.9219 55.833 21.9219C53.901 21.9219 52.4718 23.0306 52.419 24.5543H54.0588C54.1939 23.8301 54.8636 23.355 55.7809 23.355C56.8938 23.355 57.5181 23.8754 57.5181 24.8334V25.482L55.2471 25.6178C53.1339 25.746 51.9901 26.6134 51.9901 28.1219C51.9901 29.6456 53.1709 30.6563 54.8636 30.6563ZM55.3521 29.2609C54.3819 29.2609 53.7651 28.7933 53.7651 28.0767C53.7651 27.3375 54.3593 26.9075 55.4948 26.8397L57.5181 26.7115V27.3753C57.5181 28.4765 56.5857 29.2609 55.3521 29.2609ZM61.5188 33.7639C63.2937 33.7639 64.128 33.0851 64.8581 31.0259L68.0539 22.035H66.2042L64.0608 28.9818H64.0231L61.8797 22.035H59.9771L63.0605 30.5959L62.8951 31.1164C62.6165 31.9989 62.1658 32.3383 61.361 32.3383C61.2183 32.3383 60.9397 32.3232 60.8272 32.3081V33.7186C60.9321 33.7488 61.3836 33.7639 61.5188 33.7639Z" fill="white"/>
</g>
</svg>
