<svg width="9" height="13" viewBox="0 0 9 13" fill="none" xmlns="http://www.w3.org/2000/svg">
<path d="M7.99178 7.04329C8.15797 6.90084 8.25 6.70484 8.25 6.49998C8.25 6.29512 8.15798 6.09911 7.99178 5.95666L2.15854 0.956722C2.15852 0.956705 2.1585 0.956688 2.15848 0.956671C1.83695 0.680949 1.32974 0.681289 1.00831 0.956619C0.663858 1.25168 0.663953 1.74818 1.00825 2.0433L6.20769 6.49998L1.00831 10.9566C1.00829 10.9566 1.00827 10.9566 1.00825 10.9567C0.663765 11.2518 0.664231 11.7482 1.00819 12.0432C1.32966 12.3189 1.83695 12.3189 2.15848 12.0433L7.99178 7.04329Z" fill="white" stroke="white" stroke-width="0.5"/>
</svg>
