<svg width="13" height="8" viewBox="0 0 13 8" fill="none" xmlns="http://www.w3.org/2000/svg">
<path d="M6.50002 7.1C6.34668 7.1 6.19292 7.04132 6.07581 6.92421L1.07582 1.92424C0.841406 1.68982 0.841373 1.31012 1.07584 1.0758C1.31022 0.841567 1.68991 0.841345 1.92426 1.07584M6.50002 7.1L6.42931 5.7223L6.50002 5.65159M6.50002 7.1C6.65337 7.1 6.80712 7.04132 6.92423 6.92421L11.9242 1.92426M6.50002 7.1L11.8535 1.85353M1.92426 1.07584L1.85353 1.14653L1.92424 1.07582L1.92426 1.07584ZM1.92426 1.07584L6.50002 5.65159M6.50002 5.65159L6.57073 5.7223L11.1465 1.14653C11.3419 0.951157 11.6583 0.951157 11.8535 1.14653C12.0488 1.3419 12.0489 1.65828 11.8535 1.85353M6.50002 5.65159L11.0758 1.07582C11.3102 0.841406 11.6899 0.841373 11.9242 1.07584C12.1585 1.31022 12.1587 1.68991 11.9242 1.92426M11.9242 1.92426L11.9242 1.92424L11.8535 1.85353M11.9242 1.92426L11.8535 1.85353" fill="white" stroke="white" stroke-width="0.2"/>
</svg>
