<svg width="98" height="51" viewBox="0 0 98 51" fill="none" xmlns="http://www.w3.org/2000/svg">
<path d="M0.349075 7C0.349075 3.13401 3.48308 0 7.34908 0H90.9528C94.8188 0 97.9528 3.13401 97.9528 7V43.145C97.9528 47.011 94.8188 50.145 90.9528 50.145H7.34907C3.48308 50.145 0.349075 47.011 0.349075 43.145V7Z" fill="#172654"/>
<path d="M31.7039 25.2512C30.9342 28.3505 27.8064 30.2367 24.7172 29.4638C21.6296 28.6912 19.7501 25.5519 20.5207 22.4528C21.2904 19.3532 24.4182 17.4668 27.5059 18.2395C30.5951 19.0122 32.4745 22.1518 31.7039 25.2512Z" fill="#F7931A"/>
<path d="M28.6542 23.0263C28.7686 22.2565 28.1841 21.8427 27.386 21.5666L27.6447 20.5238L27.0122 20.3656L26.7598 21.3809C26.5942 21.3393 26.4231 21.3001 26.2535 21.2612L26.5074 20.2392L25.8749 20.0811L25.6162 21.1235C25.4782 21.092 25.3434 21.0609 25.2125 21.0282V21.025L24.3402 20.8064L24.1722 21.4843C24.1722 21.4843 24.6415 21.5923 24.632 21.599C24.8875 21.6631 24.934 21.8333 24.9262 21.9681L24.6312 23.1561C24.6494 23.1606 24.6722 23.1671 24.6975 23.1772C24.6762 23.172 24.6533 23.1663 24.6304 23.1607L24.2164 24.8248C24.1856 24.9029 24.106 25.02 23.9269 24.9755C23.9332 24.9848 23.4671 24.8604 23.4671 24.8604L23.1532 25.587L23.9758 25.7929C24.1288 25.8314 24.2795 25.8718 24.4269 25.9097L24.1651 26.9644L24.7968 27.1226L25.0563 26.0791C25.229 26.1261 25.3962 26.1695 25.5603 26.2104L25.3024 27.249L25.9349 27.4071L26.1959 26.3544C27.2748 26.5593 28.0856 26.4767 28.4271 25.4977C28.7023 24.7094 28.4137 24.2548 27.8458 23.9582C28.2591 23.8627 28.5706 23.5899 28.6542 23.0263ZM27.2086 25.06C27.013 25.8483 25.6904 25.4221 25.2621 25.3153L25.6092 23.9179C26.0382 24.0254 27.4128 24.238 27.2086 25.06ZM27.4042 23.0149C27.2259 23.7319 26.1249 23.3676 25.7684 23.2783L26.0832 22.0109C26.4404 22.1003 27.5903 22.2669 27.4042 23.0149Z" fill="white"/>
<path d="M37.242 21.5689C37.7089 21.5689 38.1134 21.653 38.4526 21.8181C38.7933 21.9848 39.0748 22.2093 39.3004 22.4917C39.5236 22.7755 39.6892 23.1073 39.7965 23.4875C39.9022 23.8687 39.9558 24.2786 39.9558 24.7174C39.9558 25.3913 39.8327 26.0281 39.5843 26.6284C39.3359 27.2295 38.9991 27.7509 38.5701 28.1956C38.1419 28.6398 37.6355 28.99 37.0527 29.2487C36.4699 29.5076 35.8366 29.637 35.1568 29.637C35.0692 29.637 34.9146 29.6345 34.6961 29.6299C34.4777 29.6255 34.2269 29.6029 33.9454 29.5647C33.663 29.5251 33.3641 29.4665 33.0479 29.3881C32.7324 29.3111 32.4327 29.2031 32.1504 29.0661L34.6749 18.4219L36.9352 18.0703L36.0314 21.8475C36.2254 21.76 36.4202 21.6922 36.615 21.6429C36.809 21.5943 37.018 21.5689 37.242 21.5689ZM35.3452 27.8371C35.6859 27.8371 36.0069 27.753 36.3082 27.5879C36.6102 27.4227 36.8713 27.1996 37.0898 26.9218C37.3082 26.6426 37.481 26.3282 37.6071 25.9769C37.7333 25.6257 37.7972 25.2592 37.7972 24.8779C37.7972 24.4095 37.7191 24.0441 37.5638 23.78C37.4084 23.5169 37.1205 23.3846 36.7025 23.3846C36.5661 23.3846 36.3894 23.4108 36.1709 23.4576C35.9509 23.5074 35.7545 23.6106 35.5787 23.7659L34.6165 27.7773C34.6749 27.7875 34.7261 27.7973 34.7695 27.8066C34.8129 27.8165 34.8602 27.8235 34.9067 27.8284C34.9572 27.834 35.014 27.8369 35.0834 27.8369C35.152 27.8369 35.2387 27.8371 35.3452 27.8371Z" fill="white"/>
<path d="M42.3013 29.4334H40.1419L41.9653 21.7323H44.1396L42.3013 29.4334ZM43.3518 20.794C43.0505 20.794 42.7776 20.704 42.5347 20.5236C42.2902 20.3442 42.1696 20.0681 42.1696 19.6961C42.1696 19.4914 42.2106 19.2994 42.2926 19.1183C42.3762 18.9375 42.485 18.7818 42.6215 18.6495C42.7579 18.5182 42.9164 18.4134 43.0955 18.3344C43.2761 18.2566 43.4685 18.2178 43.6728 18.2178C43.974 18.2178 44.2461 18.3078 44.489 18.4882C44.7319 18.6696 44.8534 18.9456 44.8534 19.3157C44.8534 19.5211 44.8124 19.7138 44.7296 19.8946C44.6476 20.0754 44.5379 20.231 44.4015 20.3634C44.2666 20.4948 44.1073 20.5993 43.9283 20.6776C43.7469 20.7566 43.556 20.794 43.3518 20.794Z" fill="white"/>
<path d="M46.0324 19.8135L48.2943 19.4619L47.7391 21.7319H50.1611L49.7242 23.5178H47.3164L46.6744 26.2115C46.6153 26.4361 46.5821 26.6458 46.5727 26.8407C46.5624 27.0365 46.5869 27.2045 46.6452 27.3461C46.7028 27.4881 46.8077 27.5975 46.9591 27.6748C47.1098 27.7535 47.3251 27.7931 47.6082 27.7931C47.8408 27.7931 48.068 27.7708 48.2872 27.7267C48.5057 27.6833 48.7265 27.6229 48.9505 27.5439L49.1114 29.2137C48.8196 29.3211 48.5033 29.4134 48.1626 29.4912C47.8219 29.57 47.4181 29.608 46.9512 29.608C46.2809 29.608 45.7604 29.508 45.3897 29.3089C45.0198 29.1085 44.7587 28.8346 44.6018 28.4878C44.4472 28.1424 44.3786 27.7441 44.3975 27.2953C44.418 26.8455 44.4851 26.3727 44.6018 25.8749L46.0324 19.8135Z" fill="white"/>
<path d="M50.0649 26.3581C50.0649 25.6947 50.1714 25.0693 50.3859 24.4837C50.5988 23.8975 50.9064 23.385 51.3054 22.9451C51.7029 22.5074 52.1872 22.1607 52.7574 21.9062C53.3252 21.653 53.9609 21.5254 54.6612 21.5254C55.0989 21.5254 55.4909 21.567 55.8356 21.6503C56.181 21.7344 56.4941 21.843 56.7772 21.9793L56.032 23.6788C55.8379 23.5996 55.636 23.5298 55.427 23.4665C55.218 23.402 54.9625 23.3709 54.6612 23.3709C53.9404 23.3709 53.3702 23.6202 52.9467 24.1172C52.524 24.6145 52.311 25.284 52.311 26.1238C52.311 26.6215 52.4183 27.0239 52.6328 27.3318C52.8465 27.6397 53.2416 27.7928 53.8142 27.7928C54.0973 27.7928 54.3702 27.7632 54.6313 27.7053C54.8947 27.6468 55.1273 27.573 55.3324 27.4858L55.4933 29.2279C55.2204 29.3342 54.9191 29.4303 54.5887 29.5143C54.2574 29.5955 53.8639 29.6376 53.4065 29.6376C52.8031 29.6376 52.2921 29.549 51.8749 29.3745C51.4569 29.1974 51.1114 28.9622 50.8393 28.6642C50.5657 28.3656 50.3693 28.0168 50.2478 27.6166C50.1264 27.2166 50.0649 26.7965 50.0649 26.3581Z" fill="white"/>
<path d="M59.659 29.6357C59.1432 29.6357 58.6953 29.5568 58.3159 29.4008C57.9374 29.2448 57.6235 29.0259 57.375 28.742C57.1266 28.4596 56.9413 28.125 56.8135 27.7393C56.6865 27.3539 56.625 26.9271 56.625 26.4594C56.625 25.8727 56.7189 25.2862 56.9089 24.7014C57.0974 24.1152 57.3774 23.5886 57.7481 23.1206C58.1164 22.6517 58.5699 22.2685 59.1046 21.9696C59.6385 21.6728 60.2521 21.5234 60.9414 21.5234C61.4477 21.5234 61.8933 21.6024 62.2782 21.7585C62.6615 21.9142 62.9769 22.1349 63.2262 22.4172C63.473 22.7011 63.6607 23.0343 63.7869 23.4205C63.9139 23.8052 63.9769 24.2331 63.9769 24.7011C63.9769 25.286 63.8839 25.8725 63.7001 26.4592C63.5164 27.0429 63.2435 27.5709 62.8831 28.04C62.5235 28.508 62.0739 28.8912 61.5337 29.1887C60.9942 29.4863 60.3688 29.6357 59.659 29.6357ZM60.7379 23.3691C60.4177 23.3691 60.1346 23.4624 59.8924 23.6466C59.6495 23.8331 59.4453 24.0674 59.2804 24.3499C59.114 24.6337 58.9902 24.9433 58.9074 25.2797C58.8246 25.6169 58.7836 25.9356 58.7836 26.2384C58.7836 26.7271 58.8624 27.1077 59.017 27.3816C59.1732 27.654 59.4547 27.791 59.8633 27.791C60.1842 27.791 60.4658 27.6985 60.7095 27.5123C60.9516 27.3273 61.1559 27.0928 61.3223 26.8097C61.4872 26.5273 61.6117 26.217 61.6953 25.88C61.7766 25.5438 61.8184 25.2233 61.8184 24.921C61.8184 24.4336 61.7403 24.0521 61.5841 23.7786C61.4288 23.5062 61.1464 23.3691 60.7379 23.3691Z" fill="white"/>
<path d="M66.3296 29.4334H64.1678L65.992 21.7323H68.1671L66.3296 29.4334ZM67.3785 20.794C67.0772 20.794 66.8043 20.704 66.5622 20.5236C66.3193 20.3442 66.1971 20.0681 66.1971 19.6961C66.1971 19.4914 66.2388 19.2994 66.3209 19.1183C66.4037 18.9375 66.5133 18.7818 66.6498 18.6495C66.7854 18.5182 66.9447 18.4134 67.1237 18.3344C67.3035 18.2566 67.4952 18.2178 67.6995 18.2178C68.0015 18.2178 68.2744 18.3078 68.5173 18.4882C68.7602 18.6696 68.8825 18.9456 68.8825 19.3157C68.8825 19.5211 68.8391 19.7138 68.7579 19.8946C68.6758 20.0754 68.5662 20.231 68.4298 20.3634C68.2933 20.4948 68.1356 20.5993 67.9566 20.6776C67.7752 20.7566 67.5835 20.794 67.3785 20.794Z" fill="white"/>
<path d="M69.7239 22.0814C69.888 22.0333 70.071 21.9755 70.2697 21.9126C70.47 21.8497 70.6932 21.7911 70.9425 21.7383C71.1893 21.6839 71.4669 21.6398 71.7737 21.6056C72.0797 21.5707 72.4283 21.5537 72.8155 21.5537C73.9544 21.5537 74.7398 21.8866 75.1728 22.5502C75.6066 23.2139 75.6815 24.1222 75.4 25.2735L74.4071 29.4316H72.2335L73.1957 25.3609C73.2548 25.1068 73.3005 24.8611 73.3345 24.6209C73.3692 24.3831 73.3668 24.1734 73.3274 23.9918C73.2887 23.8125 73.1981 23.6657 73.0577 23.552C72.9157 23.4401 72.7004 23.3838 72.4078 23.3838C72.1262 23.3838 71.8399 23.4142 71.5473 23.4728L70.1325 29.4314H67.9573L69.7239 22.0814Z" fill="white"/>
</svg>
