<svg width="23" height="23" viewBox="0 0 23 23" fill="none" xmlns="http://www.w3.org/2000/svg">
<path d="M22.0894 5.07489L11.6465 0.0334893C11.5539 -0.0111631 11.4461 -0.0111631 11.3536 0.0334893L0.910612 5.07489C0.794174 5.13109 0.720188 5.24901 0.720188 5.37829V17.6217C0.720188 17.751 0.794174 17.8689 0.910612 17.9251L11.3535 22.9665C11.3998 22.9888 11.4499 23 11.5 23C11.5501 23 11.6002 22.9888 11.6465 22.9665L22.0894 17.9251C22.2058 17.8689 22.2798 17.751 22.2798 17.6217V5.37834C22.2798 5.24896 22.2058 5.13113 22.0894 5.07489ZM11.5 0.711046L21.168 5.37829L18.3654 6.73125C18.3477 6.71773 18.3289 6.70524 18.3084 6.69531L8.70608 2.05983L11.5 0.711046ZM7.9452 2.44076L17.5991 7.10123L15.6219 8.05577L5.97196 3.39719L7.9452 2.44076ZM17.825 7.74038V11.2688L15.9781 12.1604V8.63199L17.825 7.74038ZM21.606 17.4103L11.8369 22.1263V10.6311L14.1671 9.50621C14.3347 9.42531 14.405 9.22392 14.3241 9.05632C14.2432 8.8888 14.0418 8.81846 13.8742 8.89941L11.5 10.0456L10.5658 9.59457C10.3982 9.51358 10.1968 9.58393 10.1159 9.75148C10.035 9.91904 10.1053 10.1205 10.2728 10.2014L11.1631 10.6311V22.1263L1.39402 17.4102V5.91507L8.83308 9.50634C8.88029 9.52917 8.9302 9.53995 8.9793 9.53995C9.10454 9.53995 9.22484 9.46978 9.28293 9.34943C9.36383 9.18187 9.29357 8.98044 9.12601 8.89954L1.83205 5.37829L5.17895 3.76254L15.2996 8.64838C15.3011 8.65045 15.3027 8.65229 15.3043 8.65431V12.6972C15.3043 12.8132 15.3639 12.9209 15.4621 12.9826C15.5166 13.0169 15.5788 13.0341 15.6412 13.0341C15.6912 13.0341 15.7413 13.0231 15.7877 13.0006L18.3084 11.7837C18.4248 11.7276 18.4988 11.6097 18.4988 11.4803V7.41514L21.606 5.91511V17.4103Z" fill="#0D1C4C"/>
<path d="M4.17441 16.1035L2.6419 15.3637C2.47425 15.2827 2.27291 15.3531 2.19201 15.5206C2.1111 15.6882 2.18136 15.8896 2.34892 15.9705L3.88143 16.7103C3.92864 16.7332 3.97855 16.7439 4.02765 16.7439C4.15289 16.7439 4.27319 16.6738 4.33128 16.5534C4.41223 16.3858 4.34197 16.1845 4.17441 16.1035Z" fill="#0D1C4C"/>
<path d="M5.58482 15.1857L2.64401 13.766C2.47641 13.6851 2.27502 13.7554 2.19412 13.923C2.11326 14.0905 2.18352 14.292 2.35108 14.3729L5.29189 15.7926C5.3391 15.8153 5.38901 15.8262 5.43811 15.8262C5.56335 15.8262 5.68365 15.756 5.74173 15.6357C5.82264 15.468 5.75238 15.2666 5.58482 15.1857Z" fill="#0D1C4C"/>
</svg>
