<svg width="34" height="29" viewBox="0 0 34 29" fill="none" xmlns="http://www.w3.org/2000/svg">
<path d="M2.79252 9.52351L2.7924 9.52366C2.76815 9.55401 2.74629 9.59844 2.7601 9.6588L5.66617 22.3521C5.68372 22.4288 5.76229 22.4936 5.86147 22.4936H24.3952C24.4944 22.4936 24.573 22.4288 24.5906 22.3521L2.79252 9.52351ZM2.79252 9.52351C2.81459 9.49577 2.86457 9.44838 2.9554 9.44838H7.52141L7.36572 9.80489L7.45736 9.84491M2.79252 9.52351L7.45736 9.84491M7.45736 9.84491L7.36572 9.80489C7.16067 10.2745 7.37506 10.8214 7.84466 11.0265C7.96537 11.0793 8.09138 11.1043 8.21554 11.1043C8.57296 11.1043 8.9139 10.8965 9.06625 10.5476L9.5463 9.44849H20.7105L21.1905 10.5476C21.3429 10.8965 21.6838 11.1043 22.0412 11.1043C22.1653 11.1043 22.2914 11.0793 22.4121 11.0265L7.45736 9.84491ZM28.9154 8.36699L28.8387 8.42807L28.9153 8.36699C28.5231 7.87488 27.9344 7.59266 27.3012 7.59266H21.9249L19.0002 0.895713C18.7951 0.426184 18.2482 0.211587 17.7786 0.416773C17.309 0.621834 17.0945 1.16881 17.2996 1.63841L19.9 7.59271H10.3567L12.957 1.63841L12.8654 1.59839L12.957 1.6384C13.1621 1.16881 12.9477 0.621893 12.4781 0.416775C12.0085 0.211593 11.4615 0.426055 11.2565 0.895714C11.2565 0.895717 11.2565 0.89572 11.2565 0.895724L8.33178 7.59271H2.9554C2.32222 7.59271 1.73356 7.87488 1.34129 8.36705L1.41514 8.42591L1.34129 8.36705C0.956115 8.85036 0.813747 9.47234 0.9512 10.0729L0.951202 10.0729L3.85728 22.7663C4.07079 23.6989 4.8959 24.3493 5.86147 24.3493H24.3952C25.3607 24.3493 26.1859 23.6989 26.3994 22.7663L29.3054 10.0729C29.4429 9.47228 29.3005 8.85031 28.9154 8.36699ZM27.4967 9.65874L24.5906 22.3521L22.4121 11.0265C22.8817 10.8215 23.0961 10.2745 22.891 9.80488L22.7353 9.44838H27.3014C27.3922 9.44838 27.4422 9.49577 27.4642 9.52351L27.4643 9.52356C27.4886 9.55411 27.5104 9.59855 27.4967 9.65873L27.5941 9.68105L27.4967 9.65874Z" fill="white" stroke="white" stroke-width="0.2"/>
<path d="M10.1613 12.8355C9.64892 12.8355 9.2335 13.251 9.2335 13.7634V19.8341C9.2335 20.3466 9.64892 20.762 10.1613 20.762C10.6737 20.762 11.0892 20.3466 11.0892 19.8341V13.7634C11.0892 13.251 10.6738 12.8355 10.1613 12.8355Z" fill="white" stroke="white" stroke-width="0.2"/>
<path d="M15.1284 12.8355C14.616 12.8355 14.2005 13.251 14.2005 13.7634V19.8341C14.2005 20.3466 14.616 20.762 15.1284 20.762C15.6408 20.762 16.0562 20.3466 16.0562 19.8341V13.7634C16.0562 13.251 15.6408 12.8355 15.1284 12.8355Z" fill="white" stroke="white" stroke-width="0.2"/>
<path d="M21.0231 13.7634V13.7634C21.0231 13.251 20.6077 12.8355 20.0953 12.8355C19.5829 12.8355 19.1675 13.251 19.1675 13.7634V19.8341C19.1675 20.3466 19.5829 20.762 20.0953 20.762C20.6077 20.762 21.0231 20.3466 21.0231 19.8341V13.7634Z" fill="white" stroke="white" stroke-width="0.2"/>
<circle cx="26.0664" cy="20.5476" r="7.74779" fill="#46D9FF"/>
<path d="M27.7116 25.623H25.7076V19.503L24.9156 20.055L23.9076 18.591L25.5276 17.367H27.7116V25.623Z" fill="#433ACD"/>
</svg>
