<svg width="23" height="23" viewBox="0 0 23 23" fill="none" xmlns="http://www.w3.org/2000/svg">
<path d="M12.2395 13.9145H16.3522C16.511 13.9145 16.6395 13.7859 16.6395 13.6269C16.6395 13.4681 16.511 13.3394 16.3522 13.3394H12.2395C12.0807 13.3394 11.9521 13.4681 11.9521 13.6269C11.9521 13.7859 12.0807 13.9145 12.2395 13.9145Z" fill="#0E1D4C"/>
<path d="M6.78917 11.2124C6.63037 11.2124 6.50161 11.3409 6.50161 11.5V12.2481C6.50161 12.407 6.63037 12.5357 6.78917 12.5357C6.94798 12.5357 7.07651 12.407 7.07651 12.2481V11.5C7.07651 11.3409 6.94798 11.2124 6.78917 11.2124Z" fill="#0E1D4C"/>
<path d="M8.48449 11.2124C8.32569 11.2124 8.19693 11.3409 8.19693 11.5V12.2481C8.19693 12.407 8.32569 12.5357 8.48449 12.5357C8.6433 12.5357 8.77205 12.407 8.77205 12.2481V11.5C8.77205 11.3409 8.6433 11.2124 8.48449 11.2124Z" fill="#0E1D4C"/>
<path d="M6.78917 13.3394C6.63037 13.3394 6.50161 13.4681 6.50161 13.6269V14.3755C6.50161 14.5343 6.63037 14.6629 6.78917 14.6629C6.94798 14.6629 7.07651 14.5343 7.07651 14.3755V13.6269C7.07651 13.4681 6.94798 13.3394 6.78917 13.3394Z" fill="#0E1D4C"/>
<path d="M8.48449 13.3394C8.32569 13.3394 8.19693 13.4681 8.19693 13.6269V14.3755C8.19693 14.5343 8.32569 14.6629 8.48449 14.6629C8.6433 14.6629 8.77205 14.5343 8.77205 14.3755V13.6269C8.77205 13.4681 8.6433 13.3394 8.48449 13.3394Z" fill="#0E1D4C"/>
<path d="M6.78917 15.4668C6.63037 15.4668 6.50161 15.5953 6.50161 15.7544V16.5025C6.50161 16.6614 6.63037 16.7901 6.78917 16.7901C6.94798 16.7901 7.07651 16.6614 7.07651 16.5025V15.7544C7.07651 15.5953 6.94798 15.4668 6.78917 15.4668Z" fill="#0E1D4C"/>
<path d="M8.48449 15.4668C8.32569 15.4668 8.19693 15.5953 8.19693 15.7544V16.5025C8.19693 16.6614 8.32569 16.7901 8.48449 16.7901C8.6433 16.7901 8.77205 16.6614 8.77205 16.5025V15.7544C8.77205 15.5953 8.6433 15.4668 8.48449 15.4668Z" fill="#0E1D4C"/>
<path d="M6.78917 17.5942C6.63037 17.5942 6.50161 17.723 6.50161 17.8818V18.63C6.50161 18.789 6.63037 18.9175 6.78917 18.9175C6.94798 18.9175 7.07651 18.789 7.07651 18.63V17.8818C7.07651 17.723 6.94798 17.5942 6.78917 17.5942Z" fill="#0E1D4C"/>
<path d="M8.48449 17.5942C8.32569 17.5942 8.19693 17.723 8.19693 17.8818V18.63C8.19693 18.789 8.32569 18.9175 8.48449 18.9175C8.6433 18.9175 8.77205 18.789 8.77205 18.63V17.8818C8.77205 17.723 8.6433 17.5942 8.48449 17.5942Z" fill="#0E1D4C"/>
<path d="M6.78917 19.7212C6.63037 19.7212 6.50161 19.8497 6.50161 20.0085V20.7572C6.50161 20.916 6.63037 21.0447 6.78917 21.0447C6.94798 21.0447 7.07651 20.916 7.07651 20.7572V20.0085C7.07651 19.8497 6.94798 19.7212 6.78917 19.7212Z" fill="#0E1D4C"/>
<path d="M8.48449 19.7212C8.32569 19.7212 8.19693 19.8497 8.19693 20.0085V20.7572C8.19693 20.916 8.32569 21.0447 8.48449 21.0447C8.6433 21.0447 8.77205 20.916 8.77205 20.7572V20.0085C8.77205 19.8497 8.6433 19.7212 8.48449 19.7212Z" fill="#0E1D4C"/>
<path d="M12.2395 15.6394H16.3522C16.511 15.6394 16.6395 15.5108 16.6395 15.3518C16.6395 15.193 16.511 15.0645 16.3522 15.0645H12.2395C12.0807 15.0645 11.9521 15.193 11.9521 15.3518C11.9521 15.5108 12.0807 15.6394 12.2395 15.6394Z" fill="#0E1D4C"/>
<path d="M12.2395 17.3645H16.3522C16.511 17.3645 16.6395 17.2359 16.6395 17.0771C16.6395 16.9181 16.511 16.7896 16.3522 16.7896H12.2395C12.0807 16.7896 11.9521 16.9181 11.9521 17.0771C11.9521 17.2359 12.0807 17.3645 12.2395 17.3645Z" fill="#0E1D4C"/>
<path d="M12.2395 10.4362H16.3522C16.511 10.4362 16.6395 10.3077 16.6395 10.1487C16.6395 9.98986 16.511 9.86133 16.3522 9.86133H12.2395C12.0807 9.86133 11.9521 9.98986 11.9521 10.1487C11.9521 10.3077 12.0807 10.4362 12.2395 10.4362Z" fill="#0E1D4C"/>
<path d="M12.2395 12.1613H16.3522C16.511 12.1613 16.6395 12.0328 16.6395 11.874C16.6395 11.715 16.511 11.5864 16.3522 11.5864H12.2395C12.0807 11.5864 11.9521 11.715 11.9521 11.874C11.9521 12.0328 12.0807 12.1613 12.2395 12.1613Z" fill="#0E1D4C"/>
<path d="M23.0001 16.235C23.0001 15.3173 22.2534 14.5707 21.3359 14.5707C20.4184 14.5707 19.6717 15.3173 19.6717 16.235C19.6717 16.8646 20.0236 17.4136 20.5406 17.6963C20.0236 17.9788 19.6717 18.5279 19.6717 19.1576C19.6717 19.9769 20.2677 20.6581 21.0484 20.795V22.425H18.4504V4.1329C18.4504 4.03617 18.402 3.94646 18.3215 3.89294C18.241 3.83942 18.1387 3.83042 18.0503 3.86837L13.9521 5.61063V3.0546C13.9521 2.89579 13.8233 2.76726 13.6648 2.76726H10.9563V0.287561C10.9563 0.128536 10.8275 0 10.6687 0C10.5101 0 10.3814 0.128536 10.3814 0.287561V2.76726H7.57925C7.42045 2.76726 7.29191 2.89579 7.29191 3.0546V9.25395H4.837C4.67841 9.25395 4.54966 9.38249 4.54966 9.54151V22.425H1.95151V20.795C2.73238 20.6581 3.32812 19.9769 3.32812 19.1576C3.32812 18.5279 2.97651 17.9788 2.4593 17.6963C2.97651 17.4136 3.32812 16.8646 3.32812 16.235C3.32812 15.3173 2.58169 14.5707 1.66417 14.5707C0.746651 14.5707 0 15.3173 0 16.235C0 16.8646 0.35161 17.4136 0.868826 17.6963C0.35161 17.9788 0 18.5279 0 19.1576C0 19.9769 0.595741 20.6581 1.37661 20.795V22.425H0.287561C0.128756 22.425 0 22.5535 0 22.7125C0 22.8713 0.128756 23.0001 0.287561 23.0001H22.7125C22.8713 23.0001 23.0001 22.8713 23.0001 22.7125C23.0001 22.5535 22.8713 22.425 22.7125 22.425H21.6235V20.795C22.4041 20.6581 23.0001 19.9769 23.0001 19.1576C23.0001 18.5279 22.6483 17.9788 22.1313 17.6963C22.6483 17.4136 23.0001 16.8646 23.0001 16.235ZM1.66417 15.1458C2.26452 15.1458 2.75322 15.6345 2.75322 16.235C2.75322 16.8356 2.26452 17.3241 1.66417 17.3241C1.0636 17.3241 0.574904 16.8356 0.574904 16.235C0.574904 15.6345 1.0636 15.1458 1.66417 15.1458ZM0.574904 19.1576C0.574904 18.557 1.0636 18.0683 1.66417 18.0683C2.26452 18.0683 2.75322 18.557 2.75322 19.1576C2.75322 19.7579 2.26452 20.2467 1.66417 20.2467C1.0636 20.2467 0.574904 19.7579 0.574904 19.1576ZM17.8753 22.425H16.2528V19.5362C16.2528 19.3774 16.1241 19.2488 15.9653 19.2488H12.6266C12.4678 19.2488 12.339 19.3774 12.339 19.5362V22.425H10.7163V7.61084L17.8753 4.56742V22.425ZM15.6777 22.425H12.9142V19.8238H15.6777V22.425ZM13.3772 3.34216V5.5343H7.86681V3.34216H13.3772ZM7.86681 6.10942H12.779L10.3162 7.15635C10.2101 7.20132 10.1412 7.30551 10.1412 7.42088V9.25395H7.86681V6.10942ZM5.12456 9.82885H10.1412V22.425H5.12456V9.82885ZM21.3359 20.2467C20.7354 20.2467 20.2469 19.7579 20.2469 19.1576C20.2469 18.557 20.7354 18.0683 21.3359 18.0683C21.9365 18.0683 22.425 18.557 22.425 19.1576C22.425 19.7579 21.9365 20.2467 21.3359 20.2467ZM21.3359 17.3241C20.7354 17.3241 20.2469 16.8356 20.2469 16.235C20.2469 15.6345 20.7354 15.1458 21.3359 15.1458C21.9365 15.1458 22.425 15.6345 22.425 16.235C22.425 16.8356 21.9365 17.3241 21.3359 17.3241Z" fill="#0E1D4C"/>
</svg>
