<svg width="29" height="27" viewBox="0 0 29 27" fill="none" xmlns="http://www.w3.org/2000/svg">
<path d="M0.637956 16.748C0.637956 16.864 0.695956 16.922 0.753956 16.98L16.182 25.97C16.298 26.028 16.356 26.028 16.472 25.97L18.85 24.578L21.46 26.086C21.576 26.144 21.634 26.144 21.75 26.086C21.866 26.028 21.924 25.912 21.866 25.854V22.838L25.288 20.866L27.898 22.374C27.956 22.374 28.014 22.432 28.072 22.432C28.246 22.432 28.362 22.316 28.362 22.142L28.42 14.66C28.42 14.544 28.362 14.486 28.246 14.428L25.636 12.92V10.194C25.636 10.078 25.578 10.02 25.462 9.962L15.892 4.278C15.776 4.22 15.602 4.22 15.486 4.394C15.428 4.51 15.428 4.684 15.602 4.8L24.766 10.136L16.298 15.008L1.44996 6.366L9.91796 1.494L12.18 2.77C12.296 2.828 12.47 2.828 12.586 2.654C12.702 2.48 12.644 2.364 12.47 2.248L10.092 0.856C9.97596 0.798 9.91796 0.798 9.80196 0.856L0.753956 6.076C0.637956 6.192 0.579956 6.308 0.579956 6.366L0.637956 16.748ZM1.15996 16.574V6.888L16.008 15.53V25.216L1.15996 16.574ZM23.722 12.746V19.532L21.866 20.576V18.372C21.866 18.256 21.808 18.198 21.692 18.14L18.038 15.994L23.722 12.746ZM19.024 23.998L17.806 23.302C17.806 18.952 17.806 18.256 17.806 16.516L21.344 18.546C21.344 18.604 21.344 25.39 21.344 25.332L19.024 23.998ZM24.766 20.518L21.924 22.2V21.33L24.07 20.112C24.07 20.112 24.824 20.518 24.766 20.518ZM27.84 21.62C27.782 21.562 24.128 19.416 24.36 19.532C24.36 19.068 24.36 13.5 24.36 12.746L25.056 13.152L27.898 14.776L27.84 21.62ZM24.186 11.992C24.07 11.934 24.012 11.934 23.896 11.992C15.544 16.806 25.52 11.064 17.4 15.762C17.342 15.82 17.284 15.936 17.284 15.994V23.476C17.284 23.592 17.342 23.65 17.458 23.708L18.386 24.23L16.762 25.158V15.472L25.056 10.6V12.514L24.186 11.992Z" fill="#0D1C4C"/>
<path d="M2.49395 9.49805C2.31995 9.49805 2.20395 9.61405 2.20395 9.78805V15.182C2.20395 15.356 2.31995 15.472 2.49395 15.472C2.66795 15.472 2.78395 15.356 2.78395 15.182V9.78805C2.78395 9.67205 2.66795 9.49805 2.49395 9.49805Z" fill="#0D1C4C"/>
<path d="M4.52395 10.7158C4.34995 10.7158 4.23395 10.8318 4.23395 11.0058V16.3998C4.23395 16.5738 4.34995 16.6898 4.52395 16.6898C4.69795 16.6898 4.81395 16.5738 4.81395 16.3998V11.0058C4.81395 10.8318 4.69795 10.7158 4.52395 10.7158Z" fill="#0D1C4C"/>
<path d="M6.55395 11.876C6.37995 11.876 6.26395 11.992 6.26395 12.166V17.56C6.26395 17.734 6.37995 17.85 6.55395 17.85C6.72795 17.85 6.84395 17.734 6.84395 17.56V12.166C6.84395 11.992 6.72795 11.876 6.55395 11.876Z" fill="#0D1C4C"/>
<path d="M8.58395 13.0361C8.40995 13.0361 8.29395 13.1521 8.29395 13.3261V18.7201C8.29395 18.8941 8.40995 19.0101 8.58395 19.0101C8.75795 19.0101 8.87395 18.8941 8.87395 18.7201V13.3261C8.87395 13.2101 8.75795 13.0361 8.58395 13.0361Z" fill="#0D1C4C"/>
<path d="M10.6139 14.2539C10.4399 14.2539 10.3239 14.3699 10.3239 14.5439V19.9379C10.3239 20.1119 10.4399 20.2279 10.6139 20.2279C10.7879 20.2279 10.9039 20.1119 10.9039 19.9379V14.5439C10.9039 14.3699 10.7879 14.2539 10.6139 14.2539Z" fill="#0D1C4C"/>
<path d="M12.6439 15.4141C12.4699 15.4141 12.3539 15.5301 12.3539 15.7041V21.0981C12.3539 21.2721 12.4699 21.3881 12.6439 21.3881C12.8179 21.3881 12.9339 21.2721 12.9339 21.0981V15.7041C12.9339 15.5301 12.8179 15.4141 12.6439 15.4141Z" fill="#0D1C4C"/>
<path d="M14.9639 16.8642C14.9639 16.6902 14.8479 16.5742 14.6739 16.5742C14.4999 16.5742 14.3839 16.6902 14.3839 16.8642V22.2582C14.3839 22.4322 14.4999 22.5482 14.6739 22.5482C14.8479 22.5482 14.9639 22.4322 14.9639 22.2582V16.8642Z" fill="#0D1C4C"/>
<path d="M14.674 3.58176L13.514 2.88576C13.398 2.82776 13.224 2.82776 13.108 3.00176C13.05 3.11776 13.05 3.29176 13.224 3.40776L14.384 4.10376C14.5 4.16176 14.674 4.16176 14.79 3.98776C14.848 3.81376 14.79 3.63976 14.674 3.58176Z" fill="#0D1C4C"/>
<path d="M9.74397 2.48002L3.47997 6.13402C3.36397 6.19202 3.36397 6.30802 3.30597 6.36602C3.30597 6.48202 3.36397 6.54002 3.42197 6.59802L16.124 13.964C16.24 14.022 16.298 14.022 16.414 13.964L22.678 10.368C22.794 10.31 22.794 10.194 22.852 10.136C22.852 10.02 22.794 9.96202 22.736 9.90402L10.034 2.48002C9.97597 2.42202 9.85997 2.42202 9.74397 2.48002ZM16.298 13.384L4.23397 6.36602L9.91797 3.06002L22.04 10.136L16.298 13.384Z" fill="#0D1C4C"/>
<path d="M24.882 14.7179C24.824 14.8339 24.824 15.0079 24.998 15.1239L26.912 16.2259C27.028 16.2839 27.202 16.2839 27.318 16.1099C27.376 15.9939 27.376 15.8199 27.202 15.7039L25.288 14.6019C25.114 14.5439 24.94 14.6019 24.882 14.7179Z" fill="#0D1C4C"/>
<path d="M27.2019 17.5019L25.2299 16.3999C25.1139 16.3419 24.9399 16.3419 24.8239 16.5159C24.7659 16.6319 24.7659 16.8059 24.9399 16.9219L26.8539 18.0239C26.9699 18.0819 27.1439 18.0819 27.2599 17.9079C27.3759 17.7339 27.3179 17.5599 27.2019 17.5019Z" fill="#0D1C4C"/>
<path d="M27.2019 19.2422L25.2299 18.1402C25.1139 18.0822 24.9399 18.0822 24.8239 18.2562C24.7659 18.3722 24.7659 18.5462 24.9399 18.6622L26.8539 19.7642C26.9699 19.8222 27.1439 19.8222 27.2599 19.6482C27.3759 19.5322 27.3179 19.3582 27.2019 19.2422Z" fill="#0D1C4C"/>
<path d="M20.7059 19.4741L18.7919 18.3721C18.6759 18.3141 18.5019 18.3141 18.3859 18.4881C18.3279 18.6041 18.3279 18.7781 18.5019 18.8941L20.4159 19.9961C20.5319 20.0541 20.7059 20.0541 20.8219 19.8801C20.8799 19.7641 20.8219 19.5901 20.7059 19.4741Z" fill="#0D1C4C"/>
<path d="M20.7059 21.2719L18.7919 20.1699C18.6759 20.1119 18.5019 20.1119 18.3859 20.2859C18.3279 20.4019 18.3279 20.5759 18.5019 20.6919L20.4159 21.7939C20.5319 21.8519 20.7059 21.8519 20.8219 21.6779C20.8799 21.5039 20.8219 21.3299 20.7059 21.2719Z" fill="#0D1C4C"/>
<path d="M20.7059 23.0122L18.7919 21.9102C18.6759 21.8522 18.5019 21.8522 18.3859 22.0262C18.3279 22.1422 18.3279 22.3162 18.5019 22.4322L20.4159 23.5342C20.5319 23.5922 20.7059 23.5922 20.8219 23.4182C20.8799 23.2442 20.8219 23.0702 20.7059 23.0122Z" fill="#0D1C4C"/>
</svg>
