<svg width="21" height="21" viewBox="0 0 21 21" fill="none" xmlns="http://www.w3.org/2000/svg">
<path d="M0 7.4521V18.9739C0.000637662 19.5111 0.214329 20.0261 0.594198 20.406C0.974068 20.7859 1.4891 20.9996 2.02631 21.0002H13.5479C14.0852 20.9996 14.6002 20.7859 14.9801 20.406C15.3599 20.0261 15.5736 19.5111 15.5743 18.9739V7.4521C15.5736 6.91488 15.3599 6.39985 14.9801 6.01998C14.6002 5.64011 14.0852 5.42642 13.5479 5.42578H2.02631C1.4891 5.42642 0.974068 5.64011 0.594198 6.01998C0.214329 6.39985 0.000637662 6.91488 0 7.4521ZM14.469 7.4521V18.9739C14.4687 19.2181 14.3716 19.4522 14.1989 19.6249C14.0263 19.7976 13.7921 19.8947 13.5479 19.8949H2.02631C1.78211 19.8947 1.54799 19.7976 1.37532 19.6249C1.20264 19.4522 1.10552 19.2181 1.10526 18.9739V7.4521C1.10552 7.2079 1.20264 6.97377 1.37532 6.8011C1.54799 6.62842 1.78211 6.5313 2.02631 6.53104H13.5479C13.7921 6.5313 14.0263 6.62842 14.1989 6.8011C14.3716 6.97377 14.4687 7.2079 14.469 7.4521Z" fill="#3456FF"/>
<path d="M6.53104 3.26542V2.36091C6.53149 2.02797 6.66397 1.70879 6.89944 1.4734C7.1349 1.238 7.45411 1.10561 7.78706 1.10526H9.14363C9.2888 1.10314 9.4273 1.04398 9.52921 0.94057C9.63112 0.83716 9.68824 0.697805 9.68824 0.55262C9.68823 0.407436 9.6311 0.268083 9.52919 0.164677C9.42728 0.061271 9.28878 0.00211748 9.14361 0H7.78708C7.16109 0.000660062 6.56093 0.249598 6.11825 0.692202C5.67558 1.1348 5.42654 1.73493 5.42578 2.36091V3.26542C5.42783 3.41063 5.48696 3.5492 5.59038 3.65116C5.69379 3.75312 5.83318 3.81029 5.97841 3.81029C6.12364 3.81029 6.26303 3.75312 6.36645 3.65116C6.46986 3.5492 6.52899 3.41063 6.53104 3.26542Z" fill="#3456FF"/>
<path d="M20.4474 11.3037C20.3008 11.3037 20.1602 11.3619 20.0566 11.4656C19.953 11.5692 19.8947 11.7098 19.8947 11.8563V13.2127C19.8944 13.5457 19.7619 13.865 19.5264 14.1005C19.291 14.3359 18.9717 14.4684 18.6387 14.4687H17.7344C17.5878 14.4687 17.4473 14.527 17.3436 14.6306C17.24 14.7342 17.1818 14.8748 17.1818 15.0214C17.1818 15.1679 17.24 15.3085 17.3436 15.4121C17.4473 15.5158 17.5878 15.574 17.7344 15.574H18.6387C19.2648 15.5733 19.865 15.3243 20.3076 14.8816C20.7503 14.439 20.9993 13.8388 21 13.2127V11.8563C21 11.7098 20.9418 11.5692 20.8381 11.4656C20.7345 11.3619 20.5939 11.3037 20.4474 11.3037Z" fill="#3456FF"/>
<path d="M18.6388 0H17.2824C17.1372 0.00205658 16.9986 0.0611864 16.8967 0.164604C16.7947 0.268021 16.7375 0.407414 16.7375 0.552642C16.7376 0.69787 16.7947 0.837261 16.8967 0.940674C16.9986 1.04409 17.1372 1.10321 17.2824 1.10526H18.6388C18.9717 1.10561 19.291 1.238 19.5264 1.4734C19.7619 1.70879 19.8944 2.02797 19.8948 2.36091V3.71767C19.8948 3.86423 19.953 4.0048 20.0567 4.10844C20.1603 4.21207 20.3009 4.2703 20.4474 4.2703C20.594 4.2703 20.7346 4.21207 20.8382 4.10844C20.9419 4.0048 21.0001 3.86423 21.0001 3.71767V2.36091C20.9993 1.73493 20.7503 1.13481 20.3076 0.692208C19.8649 0.249605 19.2648 0.000664937 18.6388 0Z" fill="#3456FF"/>
<path d="M14.5695 1.10526C14.7147 1.10314 14.8532 1.04398 14.9551 0.94057C15.057 0.83716 15.1141 0.697805 15.1141 0.55262C15.1141 0.407436 15.057 0.268083 14.9551 0.164677C14.8532 0.061271 14.7147 0.00211748 14.5695 0H11.8566C11.7114 0.00212329 11.5729 0.0612824 11.471 0.164692C11.3691 0.268102 11.3119 0.407458 11.312 0.552642C11.312 0.697827 11.3691 0.83718 11.471 0.940586C11.5729 1.04399 11.7114 1.10315 11.8566 1.10526H14.5695Z" fill="#3456FF"/>
<path d="M20.4472 5.87793C20.3007 5.87794 20.1601 5.93616 20.0565 6.0398C19.9528 6.14344 19.8946 6.284 19.8946 6.43056V9.14335C19.8967 9.28851 19.9559 9.42702 20.0593 9.52892C20.1627 9.63083 20.3021 9.68795 20.4472 9.68795C20.5924 9.68795 20.7318 9.63082 20.8352 9.52891C20.9386 9.427 20.9977 9.28849 20.9999 9.14332V6.43056C20.9998 6.284 20.9416 6.14344 20.838 6.0398C20.7343 5.93616 20.5938 5.87794 20.4472 5.87793Z" fill="#3456FF"/>
<path d="M4.10285 13.7655H7.23442V16.8971C7.23655 17.0423 7.29571 17.1808 7.39912 17.2827C7.50253 17.3846 7.64188 17.4417 7.78707 17.4417C7.93225 17.4417 8.0716 17.3846 8.17501 17.2827C8.27841 17.1808 8.33757 17.0423 8.33969 16.8971V13.7655H11.4713C11.6178 13.7655 11.7584 13.7073 11.862 13.6037C11.9657 13.5 12.0239 13.3595 12.0239 13.2129C12.0239 13.0663 11.9657 12.9258 11.862 12.8221C11.7584 12.7185 11.6178 12.6603 11.4713 12.6603H8.33969V9.52871C8.33969 9.38214 8.28146 9.24157 8.17782 9.13794C8.07419 9.0343 7.93362 8.97607 7.78705 8.97607C7.64049 8.97607 7.49992 9.0343 7.39628 9.13794C7.29265 9.24157 7.23442 9.38214 7.23442 9.52871V12.6603H4.10285C3.95768 12.6624 3.81917 12.7216 3.71726 12.825C3.61535 12.9284 3.55823 13.0677 3.55823 13.2129C3.55823 13.3581 3.61535 13.4975 3.71726 13.6009C3.81917 13.7043 3.95768 13.7634 4.10285 13.7655Z" fill="#3456FF"/>
</svg>
