<svg width="44" height="36" viewBox="0 0 44 36" fill="none" xmlns="http://www.w3.org/2000/svg">
<path d="M22.8266 24.2314V24.2314V17.6335C22.8266 17.4363 22.8919 17.2797 22.9989 17.1727C23.1059 17.0657 23.2624 17.0004 23.4596 17.0004H35.1893C35.3865 17.0004 35.543 17.0657 35.6501 17.1727C35.7571 17.2797 35.8224 17.4363 35.8224 17.6335V24.2314C35.8224 24.4286 35.7571 24.5852 35.6501 24.6922C35.543 24.7992 35.3865 24.8645 35.1893 24.8645H23.4596C23.2624 24.8645 23.1059 24.7992 22.9988 24.6921C22.8918 24.5851 22.8265 24.4286 22.8266 24.2314ZM24.1927 18.2665H24.0927V18.3665V23.4982V23.5982H24.1927H34.4562H34.5562V23.4982V18.3665V18.2665H34.4562H24.1927Z" fill="#0D1C4C" stroke="white" stroke-width="0.2"/>
<path d="M9.53056 15.3339H3.66569C3.46848 15.3339 3.31192 15.2686 3.20492 15.1616C3.09791 15.0546 3.03262 14.8981 3.03262 14.7008C3.03262 14.5036 3.09791 14.3471 3.20492 14.2401C3.31192 14.1331 3.46848 14.0678 3.66569 14.0678H9.53056C9.72776 14.0678 9.88432 14.1331 9.99133 14.2401C10.0983 14.3471 10.1636 14.5036 10.1636 14.7008C10.1636 14.8981 10.0983 15.0546 9.99133 15.1616C9.88432 15.2686 9.72776 15.3339 9.53056 15.3339Z" fill="#0D1C4C" stroke="white" stroke-width="0.2"/>
<path d="M18.3274 15.3339H12.4626C12.2654 15.3339 12.1088 15.2686 12.0018 15.1616C11.8948 15.0546 11.8295 14.8981 11.8295 14.7008C11.8295 14.5036 11.8948 14.3471 12.0018 14.2401C12.1088 14.1331 12.2654 14.0678 12.4626 14.0678H18.3274C18.5246 14.0678 18.6812 14.1331 18.7882 14.2401C18.8952 14.3471 18.9605 14.5036 18.9605 14.7008C18.9605 14.8981 18.8952 15.0546 18.7882 15.1616C18.6812 15.2686 18.5246 15.3339 18.3274 15.3339Z" fill="#0D1C4C" stroke="white" stroke-width="0.2"/>
<path d="M13.196 18.2665H3.66569C3.46848 18.2665 3.31192 18.2012 3.20492 18.0942C3.09791 17.9872 3.03262 17.8307 3.03262 17.6335C3.03262 17.4363 3.09791 17.2797 3.20492 17.1727C3.31192 17.0657 3.46848 17.0004 3.66569 17.0004H13.196C13.3932 17.0004 13.5498 17.0657 13.6568 17.1727C13.7638 17.2797 13.8291 17.4363 13.8291 17.6335C13.8291 17.8307 13.7638 17.9872 13.6568 18.0942C13.5498 18.2012 13.3932 18.2665 13.196 18.2665Z" fill="#0D1C4C" stroke="white" stroke-width="0.2"/>
<path d="M16.1286 17.0004H18.3279C18.5251 17.0004 18.6817 17.0657 18.7887 17.1727C18.8957 17.2797 18.961 17.4363 18.961 17.6335C18.961 17.8307 18.8957 17.9872 18.7887 18.0942C18.6817 18.2012 18.5251 18.2665 18.3279 18.2665H16.1286C15.9314 18.2665 15.7748 18.2012 15.6678 18.0942C15.5608 17.9872 15.4955 17.8307 15.4955 17.6335C15.4955 17.4363 15.5608 17.2797 15.6678 17.1727C15.7748 17.0657 15.9314 17.0004 16.1286 17.0004Z" fill="#0D1C4C" stroke="white" stroke-width="0.2"/>
<path d="M38.6989 34.5945L38.6967 34.5943L4.90182 30.7823C4.90164 30.7823 4.90146 30.7823 4.90128 30.7822C4.11733 30.7036 3.57078 30.0764 3.49279 29.3742L3.48046 29.2632H3.59218H36.6552C38.2127 29.2632 39.4875 27.9884 39.4875 26.4308V10.3025V7.88322V7.77415L39.5962 7.7836L41.2782 7.92988C41.6809 7.93163 42.0728 8.17118 42.3067 8.48301C42.5377 8.79078 42.6971 9.25631 42.6191 9.65704L40.4203 33.1844L38.6989 34.5945ZM38.6989 34.5945C39.5578 34.6726 40.3417 34.0483 40.4203 33.1846L38.6989 34.5945ZM43.2475 7.87133L43.2474 7.87143L43.2512 7.87579C43.7444 8.43945 43.9576 9.21771 43.8868 9.92602L43.8867 9.92667L41.6875 33.4582C41.6875 33.4584 41.6874 33.4587 41.6874 33.459C41.5463 34.795 40.2751 35.8611 38.8546 35.8611H38.8541H38.8537H38.8533H38.8528H38.8524H38.852H38.8515H38.8511H38.8506H38.8502H38.8497H38.8493H38.8488H38.8484H38.8479H38.8475H38.847H38.8466H38.8461H38.8456H38.8452H38.8447H38.8442H38.8438H38.8433H38.8428H38.8424H38.8419H38.8414H38.841H38.8405H38.84H38.8395H38.839H38.8385H38.8381H38.8376H38.8371H38.8366H38.8361H38.8356H38.8351H38.8346H38.8341H38.8336H38.8331H38.8326H38.8321H38.8316H38.8311H38.8306H38.8301H38.8296H38.8291H38.8286H38.8281H38.8276H38.827H38.8265H38.826H38.8255H38.825H38.8244H38.8239H38.8234H38.8229H38.8223H38.8218H38.8213H38.8208H38.8202H38.8197H38.8192H38.8186H38.8181H38.8176H38.817H38.8165H38.8159H38.8154H38.8148H38.8143H38.8138H38.8132H38.8127H38.8121H38.8116H38.811H38.8105H38.8099H38.8094H38.8088H38.8082H38.8077H38.8071H38.8066H38.806H38.8054H38.8049H38.8043H38.8038H38.8032H38.8026H38.8021H38.8015H38.8009H38.8003H38.7998H38.7992H38.7986H38.798H38.7975H38.7969H38.7963H38.7957H38.7952H38.7946H38.794H38.7934H38.7928H38.7922H38.7917H38.7911H38.7905H38.7899H38.7893H38.7887H38.7881H38.7875H38.7869H38.7864H38.7858H38.7852H38.7846H38.784H38.7834H38.7828H38.7822H38.7816H38.781H38.7804H38.7798H38.7792H38.7786H38.778H38.7774H38.7768H38.7762H38.7756H38.7749H38.7743H38.7737H38.7731H38.7725H38.7719H38.7713H38.7707H38.7701H38.7695H38.7688H38.7682H38.7676H38.767H38.7664H38.7658H38.7651H38.7645H38.7639H38.7633H38.7627H38.762H38.7614H38.7608H38.7602H38.7596H38.7589H38.7583H38.7577H38.7571H38.7564H38.7558H38.7552H38.7546H38.7539H38.7533H38.7527H38.7521H38.7514H38.7508H38.7502H38.7495H38.7489H38.7483H38.7476H38.747H38.7464H38.7457H38.7451H38.7445H38.7438H38.7432H38.7426H38.7419H38.7413H38.7407H38.74H38.7394H38.7388H38.7381H38.7375H38.7368H38.7362H38.7356H38.7349H38.7343H38.7337H38.733H38.7324H38.7317H38.7311H38.7305H38.7298H38.7292H38.7285H38.7279H38.7273H38.7266H38.726H38.7253H38.7247H38.724H38.7234H38.7228H38.7221H38.7215H38.7208H38.7202H38.7195H38.7189H38.7183H38.7176H38.717H38.7163H38.7157H38.715H38.7144H38.7137H38.7131H38.7125H38.7118H38.7112H38.7105H38.7099H38.7092H38.7086H38.708H38.7073H38.7067H38.706H38.7054H38.7047H38.7041H38.7034H38.7028H38.7022H38.7015H38.7009H38.7002H38.6996H38.6989H38.6983H38.6976H38.697H38.6964H38.6957H38.6951H38.6944H38.6938H38.6931H38.6925H38.6919H38.6912H38.6906H38.6899H38.6893H38.6887H38.688H38.6874H38.6867H38.6861H38.6854H38.6848H38.6842H38.6835H38.6829H38.6822H38.6816H38.681H38.6803H38.6797H38.6791H38.6784H38.6778H38.6771H38.6765H38.6759H38.6752H38.6746H38.674H38.6733H38.6727H38.6721H38.6714H38.6708H38.6702H38.6695H38.6689H38.6683H38.6676H38.667H38.6664H38.6657H38.6651H38.6645H38.6639H38.6632H38.6626H38.662H38.6613H38.6607H38.6601H38.6595H38.6588H38.6582H38.6576H38.657H38.6563H38.6557H38.6551H38.6545H38.6539H38.6532H38.6526H38.652H38.6514H38.6508H38.6501H38.6495H38.6489H38.6483H38.6477H38.6471H38.6465H38.6458H38.6452H38.6446H38.644H38.6434H38.6428H38.6422H38.6416H38.641H38.6403H38.6397H38.6391H38.6385H38.6379H38.6373H38.6367H38.6361H38.6355H38.6349H38.6343H38.6337H38.6331H38.6325H38.6319H38.6313H38.6307H38.6301H38.6295H38.629H38.6284H38.6278H38.6272H38.6266H38.626H38.6254H38.6248H38.6242H38.6237H38.6231H38.6225H38.6219H38.6213H38.6207H38.6202H38.6196H38.619H38.6184H38.6179H38.6173H38.6167H38.6161H38.6156H38.615H38.6144H38.6139H38.6133H38.6127H38.6122H38.6116H38.611H38.6105H38.6099H38.6093H38.6088H38.6082H38.6077H38.6071H38.6065H38.606H38.6054H38.6049H38.6043H38.6038H38.6032H38.6027H38.6021H38.6016H38.6011H38.6005H38.6H38.5994H38.5989H38.5983H38.5978H38.5973H38.5967H38.5962H38.5957H38.5951H38.5946H38.5941H38.5936H38.593H38.5925H38.592H38.5915H38.5909H38.5904H38.5899H38.5894H38.5889H38.5883H38.5878H38.5873H38.5868H38.5863H38.5858H38.5853H38.5848H38.5843H38.5838H38.5833H38.5828H38.5823H38.5818H38.5813H38.5808H38.5803H38.5798H38.5793H38.5788H38.5783H38.5778H38.5774H38.5769H38.5764H38.5759H38.5754H38.575H38.5745H38.574H38.5735H38.5731H38.5726H38.5721H38.5717H38.5712H38.5707H38.5703H38.5698H38.5693H38.5689H38.5684H38.568H38.5675H38.5671H38.5666L4.70311 32.0496L4.70098 32.0494C3.24798 31.9173 2.1651 30.675 2.20074 29.2441L2.20265 29.1677L2.12933 29.1458C0.95927 28.7972 0.1 27.7092 0.1 26.4308V10.3026V4.43769V2.97145C0.1 1.41379 1.37482 0.13898 2.93238 0.139063H2.93239H36.6552C38.2128 0.139063 39.4876 1.41388 39.4876 2.97145V4.4376V6.49705V6.58566L39.5756 6.59633L41.3351 6.80956L41.335 6.8096L41.338 6.80987C42.1159 6.88056 42.7508 7.2326 43.2475 7.87133ZM1.46624 5.07076H1.36624V5.17076V9.56939V9.66939H1.46624H38.1215H38.2215V9.56939V7.07686V5.17076V5.07076H38.1215H1.46624ZM38.1214 3.80453H38.2214V3.70453V2.97145C38.2214 2.10978 37.5168 1.40521 36.6552 1.40521H2.93239C2.0708 1.40521 1.36624 2.10978 1.36624 2.97145V3.70453V3.80453H1.46624H38.1214ZM1.46624 10.9355H1.36624V11.0355V26.4307C1.36624 27.2924 2.0708 27.997 2.93247 27.997H3.00576H36.6552C37.5169 27.997 38.2215 27.2924 38.2215 26.4307V11.0355V10.9355H38.1215H1.46624Z" fill="#0D1C4C" stroke="white" stroke-width="0.2"/>
</svg>
