<svg width="19" height="19" viewBox="0 0 19 19" fill="none" xmlns="http://www.w3.org/2000/svg">
<mask id="mask0_294_327" style="mask-type:alpha" maskUnits="userSpaceOnUse" x="0" y="0" width="19" height="19">
<circle cx="9.0993" cy="9.62506" r="8.94" fill="white"/>
</mask>
<g mask="url(#mask0_294_327)">
<path d="M-3.39026 18.5527L10.217 9.63767L-3.39026 0.722656C-3.49497 0.80982 -3.56555 0.936123 -3.56555 1.08299V18.1923C-3.56555 18.3392 -3.49497 18.4655 -3.39026 18.5527Z" fill="#41479B"/>
<path d="M-3.3905 18.5527C-3.30813 18.6213 -3.20611 18.6676 -3.09057 18.6676H23.5239C23.7864 18.6676 23.9992 18.4548 23.9992 18.1923V9.6377H10.2167L-3.3905 18.5527Z" fill="#FF4B55"/>
<path d="M-3.3905 0.7228C-3.30813 0.654211 -3.20611 0.60791 -3.09057 0.60791H23.5239C23.7864 0.60791 23.9992 0.820731 23.9992 1.08319V9.63782H10.2167L-3.3905 0.7228Z" fill="#F5F5F5"/>
</g>
</svg>
