<svg width="22" height="22" viewBox="0 0 22 22" fill="none" xmlns="http://www.w3.org/2000/svg">
<path d="M1 8.42773V20.3218C1 21.0292 1.57269 21.5598 2.23348 21.5598H19.6784C20.3833 21.5598 20.9119 20.985 20.9119 20.3218V8.42773" stroke="#0E1D4C" stroke-width="0.65" stroke-miterlimit="10" stroke-linecap="round" stroke-linejoin="round"/>
<path d="M9.01763 15.0166L1.39648 21.251" stroke="#0E1D4C" stroke-width="0.65" stroke-miterlimit="10" stroke-linecap="round" stroke-linejoin="round"/>
<path d="M20.5154 21.251L12.8943 15.0166" stroke="#0E1D4C" stroke-width="0.65" stroke-miterlimit="10" stroke-linecap="round" stroke-linejoin="round"/>
<path d="M1 8.42857L3.20264 6.61572" stroke="#0E1D4C" stroke-width="0.65" stroke-miterlimit="10" stroke-linecap="round" stroke-linejoin="round"/>
<path d="M6.77094 3.65294L9.2379 1.61902C9.72248 1.22108 10.3392 1 10.956 1C11.5727 1 12.1894 1.22108 12.674 1.61902L15.141 3.65294" stroke="#0E1D4C" stroke-width="0.65" stroke-miterlimit="10" stroke-linecap="round" stroke-linejoin="round"/>
<path d="M18.7092 6.61572L20.9119 8.42857" stroke="#0E1D4C" stroke-width="0.65" stroke-miterlimit="10" stroke-linecap="round" stroke-linejoin="round"/>
<path d="M1 8.42773L3.20264 10.2406L9.28194 15.237C9.76652 15.6349 10.3833 15.856 11 15.856C11.6167 15.856 12.2335 15.6349 12.7181 15.237L18.7974 10.2406L21 8.42773" stroke="#0E1D4C" stroke-width="0.65" stroke-miterlimit="10" stroke-linecap="round" stroke-linejoin="round"/>
<path d="M3.20262 10.2407V4.93482C3.20262 4.22737 3.77531 3.69678 4.4361 3.69678H17.4758C18.1806 3.69678 18.7092 4.27158 18.7092 4.93482V10.2407" stroke="#0E1D4C" stroke-width="0.65" stroke-miterlimit="10" stroke-linecap="round" stroke-linejoin="round"/>
<path d="M7 9.84961H11.9339" stroke="#0E1D4C" stroke-width="0.65" stroke-miterlimit="10" stroke-linecap="round" stroke-linejoin="round"/>
<path d="M6.94713 7.42188H14.9648" stroke="#0E1D4C" stroke-width="0.65" stroke-miterlimit="10" stroke-linecap="round" stroke-linejoin="round"/>
</svg>
