<svg width="16" height="15" viewBox="0 0 16 15" fill="none" xmlns="http://www.w3.org/2000/svg">
<path d="M1.25 13.25H14.75C14.9489 13.25 15.1397 13.329 15.2803 13.4697C15.421 13.6103 15.5 13.8011 15.5 14C15.5 14.1989 15.421 14.3897 15.2803 14.5303C15.1397 14.671 14.9489 14.75 14.75 14.75H1.25C1.05109 14.75 0.86032 14.671 0.719668 14.5303C0.579016 14.3897 0.499999 14.1989 0.499999 14C0.499999 13.8011 0.579016 13.6103 0.719668 13.4697C0.86032 13.329 1.05109 13.25 1.25 13.25Z" fill="white"/>
<path d="M7.99986 0.5C8.19877 0.5 8.38954 0.579018 8.53019 0.71967C8.67084 0.860322 8.74986 1.05109 8.74986 1.25V9.1925L11.2174 6.7175C11.3586 6.57627 11.5501 6.49693 11.7499 6.49693C11.9496 6.49693 12.1411 6.57627 12.2824 6.7175C12.4236 6.85873 12.5029 7.05027 12.5029 7.25C12.5029 7.44973 12.4236 7.64127 12.2824 7.7825L8.53236 11.5325C8.46264 11.6028 8.37969 11.6586 8.28829 11.6967C8.1969 11.7347 8.09887 11.7543 7.99986 11.7543C7.90085 11.7543 7.80282 11.7347 7.71143 11.6967C7.62003 11.6586 7.53708 11.6028 7.46736 11.5325L3.71736 7.7825C3.64743 7.71257 3.59196 7.62955 3.55412 7.53819C3.51627 7.44682 3.49679 7.3489 3.49679 7.25C3.49679 7.15111 3.51627 7.05318 3.55412 6.96181C3.59196 6.87045 3.64743 6.78743 3.71736 6.7175C3.78729 6.64757 3.87031 6.5921 3.96167 6.55426C4.05304 6.51641 4.15097 6.49693 4.24986 6.49693C4.34876 6.49693 4.44668 6.51641 4.53805 6.55426C4.62941 6.5921 4.71243 6.64757 4.78236 6.7175L7.24986 9.1925V1.25C7.24986 1.05109 7.32888 0.860322 7.46953 0.71967C7.61018 0.579018 7.80095 0.5 7.99986 0.5Z" fill="white"/>
</svg>
