<svg width="91" height="55" viewBox="0 0 91 55" fill="none" xmlns="http://www.w3.org/2000/svg">
<path d="M58.7991 36.496C57.1612 36.9333 55.0274 37.1496 53.1724 37.1496C48.4108 37.1496 45.2578 34.594 45.2578 29.9167C45.2578 25.4899 48.1945 22.6223 52.4926 22.6223C53.4507 22.6223 54.4704 22.7452 55.0892 23.0582V16.6323H58.7991V36.496ZM55.0892 26.3626C54.5016 26.0821 53.729 25.9261 52.8001 25.9261C50.5448 25.9261 49.0293 27.3298 49.0293 29.7925C49.0293 32.4433 50.6675 33.9404 53.2957 33.9404C53.7596 33.9404 54.4704 33.9083 55.0892 33.7844V26.3626ZM89.2425 36.496C87.6032 36.9333 85.47 37.1496 83.6149 37.1496C78.8541 37.1496 75.6993 34.594 75.6993 29.9167C75.6993 25.4899 78.6373 22.6223 82.9355 22.6223C83.8938 22.6223 84.914 22.7452 85.5325 23.0582V16.6323H89.2425V36.496ZM85.5325 26.3626C84.9443 26.0821 84.1713 25.9261 83.2441 25.9261C80.9874 25.9261 79.4727 27.3298 79.4727 29.7925C79.4727 32.4433 81.1109 33.9404 83.7391 33.9404C84.2023 33.9404 84.9138 33.9083 85.5325 33.7844V26.3626ZM64.6335 26.332C65.2514 26.082 66.1158 25.9893 66.8577 25.9893C69.1462 25.9893 70.7231 27.3296 70.7231 29.7296C70.7231 32.5608 68.9765 33.8411 66.6411 33.8741V37.1477C66.7023 37.1477 66.7647 37.1498 66.8277 37.1498C71.619 37.1498 74.4953 34.4383 74.4953 29.6055C74.4953 25.2092 71.4348 22.6223 66.9206 22.6223C64.6333 22.6223 62.3753 23.1524 60.8917 23.7754V42.4529H64.6335V26.332Z" fill="#414042"/>
<path d="M25.1365 25.5064C24.9839 25.5956 24.7443 25.5886 24.5953 25.4963L23.7178 24.9741C23.6464 24.9297 23.5808 24.8589 23.5313 24.7735C23.5285 24.7687 23.5255 24.7637 23.5226 24.7586C23.4665 24.6671 23.4347 24.5705 23.4314 24.4819L23.4091 23.4575C23.4025 23.285 23.5162 23.0746 23.6695 22.985L34.2185 16.8316L19.4153 8.7533C19.2523 8.66276 19.0373 8.61904 18.8221 8.61865C18.6067 8.61826 18.3913 8.66315 18.2281 8.7533L3.42474 16.8318L20.0083 26.4982C20.162 26.5823 20.2788 26.782 20.2788 26.9623V41.0637C20.2788 41.2407 20.1524 41.4441 19.9975 41.5269L19.1051 42.0231C19.0309 42.0626 18.9366 42.0838 18.838 42.0838C18.8324 42.0838 18.8266 42.0838 18.8209 42.0838C18.7138 42.0863 18.6143 42.0651 18.5363 42.0231L17.6409 41.5267C17.4888 41.4457 17.3644 41.2413 17.3644 41.0637L17.3646 28.493C17.3566 28.4009 17.2893 28.2886 17.2156 28.2463L2.60507 19.7304V36.4105C2.60507 36.7837 2.86781 37.2442 3.18994 37.4328L18.2372 46.3185C18.3981 46.4129 18.61 46.4599 18.8217 46.4591C19.0337 46.4586 19.2455 46.4143 19.406 46.3186L34.4557 37.4328C34.7766 37.2422 35.0388 36.7843 35.0383 36.4105V19.7305L25.1365 25.5064Z" fill="url(#paint0_linear_294_1896)"/>
<defs>
<linearGradient id="paint0_linear_294_1896" x1="6.97546" y1="40.7309" x2="20.8888" y2="29.0883" gradientUnits="userSpaceOnUse">
<stop stop-color="#A90034"/>
<stop offset="0.2717" stop-color="#BB0033"/>
<stop offset="0.7226" stop-color="#D30032"/>
<stop offset="1" stop-color="#DC0032"/>
</linearGradient>
</defs>
</svg>
