<svg width="19" height="19" viewBox="0 0 19 19" fill="none" xmlns="http://www.w3.org/2000/svg">
<mask id="mask0_314_138" style="mask-type:alpha" maskUnits="userSpaceOnUse" x="0" y="0" width="19" height="19">
<circle cx="9.09918" cy="9.62506" r="8.94" fill="white"/>
</mask>
<g mask="url(#mask0_314_138)">
<path d="M-3.39038 18.5527L10.2168 9.63767L-3.39038 0.722656C-3.49509 0.80982 -3.56567 0.936123 -3.56567 1.08299V18.1923C-3.56567 18.3392 -3.49509 18.4655 -3.39038 18.5527Z" fill="#41479B"/>
<path d="M-3.39062 18.5527C-3.30825 18.6213 -3.20623 18.6676 -3.09069 18.6676H23.5238C23.7863 18.6676 23.9991 18.4548 23.9991 18.1923V9.6377H10.2166L-3.39062 18.5527Z" fill="#FF4B55"/>
<path d="M-3.39062 0.7228C-3.30825 0.654211 -3.20623 0.60791 -3.09069 0.60791H23.5238C23.7863 0.60791 23.9991 0.820731 23.9991 1.08319V9.63782H10.2166L-3.39062 0.7228Z" fill="#F5F5F5"/>
<path d="M21.3411 1H-2.86754C-4.0453 1 -5 1.9547 -5 3.13246V17.5227C-5 18.7004 -4.0453 19.6551 -2.86754 19.6551H21.3411C22.5188 19.6551 23.4735 18.7004 23.4735 17.5227V3.13246C23.4735 1.9547 22.5188 1 21.3411 1Z" fill="#41479B"/>
<path d="M23.444 2.77999C23.276 1.77012 22.3987 1 21.3411 1H20.7862L11.6914 6.9587V1.00006H6.78215V6.95876L-2.3127 1.00006H-2.86754C-3.92512 1.00006 -4.80241 1.77012 -4.97047 2.78004L2.80292 7.87302H-5V12.7823H2.80292L-4.97047 17.8751C-4.80241 18.885 -3.92512 19.6551 -2.86754 19.6551H-2.3127L6.78215 13.6964V19.6551H11.6914V13.6964L20.7862 19.6551H21.3411C22.3987 19.6551 23.276 18.8851 23.444 17.8751L15.6706 12.7822H23.4735V7.87291H15.6706L23.444 2.77999Z" fill="#F5F5F5"/>
<path d="M10.7096 1H7.76399V8.85475H-5V11.8003H7.76399V19.6551H10.7096V11.8003H23.4735V8.85475H10.7096V1Z" fill="#FF4B55"/>
<path d="M-3.62123 19.5177L6.7551 12.7822H4.9517L-4.48706 18.9092C-4.2561 19.1787 -3.9593 19.3899 -3.62123 19.5177Z" fill="#FF4B55"/>
<path d="M14.2635 12.7822H12.4601L22.5101 19.3058C22.7914 19.1211 23.026 18.8717 23.1934 18.5787L14.2635 12.7822Z" fill="#FF4B55"/>
<path d="M-4.77478 2.17906L3.99696 7.87305H5.80036L-4.13935 1.4209C-4.40624 1.61955 -4.62463 1.87926 -4.77478 2.17906Z" fill="#FF4B55"/>
<path d="M13.4946 7.87303L22.9506 1.73481C22.7171 1.46615 22.418 1.25615 22.0776 1.13086L11.6912 7.87303H13.4946Z" fill="#FF4B55"/>
</g>
</svg>
