<svg width="91" height="29" viewBox="0 0 91 29" fill="none" xmlns="http://www.w3.org/2000/svg">
<g clip-path="url(#clip0_294_1899)">
<mask id="mask0_294_1899" style="mask-type:luminance" maskUnits="userSpaceOnUse" x="0" y="0" width="91" height="29">
<path d="M90.7047 0.980957H0.84024V28.4905H90.7047V0.980957Z" fill="white"/>
</mask>
<g mask="url(#mask0_294_1899)">
<path d="M82.7547 27.5243L79.074 23.3994L75.4251 27.5243H67.748L75.2514 19.1007L67.748 10.6747H75.6648L79.3831 14.768L82.9609 10.6747H90.6008L83.1346 19.0654L90.7047 27.5243H82.7547ZM53.0056 27.5243V0.980957H67.748V6.89739H59.2501V10.6747H67.748V16.3678H59.2501V21.5929H67.748V27.5243H53.0056Z" fill="#FF5A00"/>
<path d="M46.7848 0.980957V11.8439H46.7157C45.3389 10.2627 43.6181 9.71164 41.6226 9.71164C37.5338 9.71164 34.4532 12.4911 33.3722 16.163C32.1388 12.1163 28.9584 9.63593 24.2435 9.63593C20.4136 9.63593 17.3903 11.353 15.811 14.1518V10.6741H7.89588V6.89802H16.5345V0.9822H0.84024V27.5243H7.89588V16.3678H14.9285C14.7119 17.2257 14.6036 18.1074 14.6062 18.9922C14.6062 24.5263 18.8386 28.4154 24.2423 28.4154C28.7845 28.4154 31.7804 26.2825 33.3635 22.3997H27.3164C26.4991 23.5682 25.8781 23.9132 24.2429 23.9132C22.3475 23.9132 20.7117 22.2601 20.7117 20.3028H33.0244C33.5585 24.6995 36.9866 28.4905 41.6917 28.4905C43.721 28.4905 45.5793 27.4932 46.7151 25.8084H46.7835V27.528H53.0046V0.9822H46.7848V0.980957ZM20.9079 16.4472C21.301 14.7605 22.6095 13.6584 24.2429 13.6584C26.0414 13.6584 27.2835 14.7264 27.6095 16.4472H20.9079ZM43.0095 23.485C40.7173 23.485 39.2925 21.3509 39.2925 19.1219C39.2925 16.7389 40.5322 14.4497 43.0095 14.4497C45.58 14.4497 46.6041 16.7401 46.6041 19.1219C46.6041 21.3795 45.5197 23.485 43.0095 23.485Z" fill="#29007C"/>
</g>
</g>
<defs>
<clipPath id="clip0_294_1899">
<rect width="89.8645" height="27.5095" fill="white" transform="translate(0.84024 0.980957)"/>
</clipPath>
</defs>
</svg>
