<svg width="87" height="41" viewBox="0 0 87 41" fill="none" xmlns="http://www.w3.org/2000/svg">
<path d="M75.4478 32.0856C77.5901 32.0856 79.3271 30.3435 79.3271 28.1946C79.3271 26.0457 77.5901 24.3037 75.4478 24.3037C73.3056 24.3037 71.569 26.0457 71.569 28.1946C71.569 30.3435 73.3056 32.0856 75.4478 32.0856Z" fill="#FFD100"/>
<path d="M20.1677 19.553V24.6439H24.3902C23.7732 25.615 22.3822 26.1324 21.4391 26.1324C18.2607 26.1324 16.6716 24.3152 16.6716 20.6482C16.6716 16.5988 18.7692 14.5268 22.9332 14.5268C24.5859 14.5268 26.7476 14.9409 29.0675 15.6747V9.58511C28.3996 9.2983 27.383 9.07528 26.0798 8.8514C24.7447 8.62829 23.5683 8.53271 22.5511 8.53271C18.4187 8.53271 15.1451 9.64883 12.6982 11.8803C10.2505 14.1125 9.01074 17.1094 9.01074 20.9039C9.01074 24.3788 9.96463 27.1209 11.8715 29.1302C13.7783 31.1704 16.3531 32.191 19.5951 32.191C22.8504 32.191 25.8415 30.4962 26.8054 28.3445L26.7845 31.8078H31.4935V19.553H20.1677Z" fill="#061AB1"/>
<path d="M33.8441 31.8047V8.91211H41.1549V25.8425H49.1326V31.8047H33.8441Z" fill="#061AB1"/>
<path d="M51.8022 31.2341V24.9852C52.883 25.3357 54.1546 25.6226 55.5849 25.8783C57.0154 26.1332 58.255 26.2606 59.3042 26.2606C61.084 26.2606 62.0061 25.8145 62.0061 25.017C62.0061 24.5073 61.7201 24.2514 60.4169 23.9647L57.8738 23.3911C53.5193 22.4024 51.4854 20.2029 51.4854 16.4722C51.4854 14.0168 52.3439 12.0723 54.0284 10.6375C55.7112 9.23379 58.0637 8.53271 61.0197 8.53271C63.0535 8.53271 66.1693 8.94697 68.0761 9.42581V15.3879C67.0905 15.133 65.9151 14.8781 64.4848 14.6542C63.0545 14.4311 61.9417 14.3355 61.1158 14.3355C59.5584 14.3355 58.6681 14.7816 58.6681 15.5791C58.6681 16.0571 59.081 16.3766 59.9395 16.5997L62.8957 17.3007C67.2185 18.3212 69.2205 20.5525 69.2205 24.347C69.2205 26.7706 68.3303 28.6832 66.5822 30.0861C64.8342 31.4891 62.4182 32.19 59.3352 32.19C56.4109 32.19 53.4549 31.7758 51.8022 31.2341Z" fill="#061AB1"/>
</svg>
