<svg version="1.2" xmlns="http://www.w3.org/2000/svg" viewBox="0 0 72 23" width="72" height="23">
	<title>gls 1 c-svg-svg</title>
	<style>
		.s0 { fill: #ffd100 } 
		.s1 { fill: #061ab1 } 
	</style>
	<path id="Layer" class="s0" d="m67.4 23.1c2.2 0 3.9-1.8 3.9-3.9 0-2.2-1.7-3.9-3.9-3.9-2.1 0-3.8 1.7-3.8 3.9 0 2.1 1.7 3.9 3.8 3.9z"/>
	<path id="Layer" class="s1" d="m12.2 10.6v5h4.2c-0.6 1-2 1.5-3 1.5q-4.7 0-4.7-5.5c0-4 2.1-6.1 6.2-6.1 1.7 0 3.8 0.4 6.2 1.2v-6.1c-0.7-0.3-1.7-0.5-3-0.7q-2-0.4-3.5-0.4-6.2 0-9.9 3.4-3.7 3.3-3.7 9 0 5.2 2.9 8.2 2.8 3.1 7.7 3.1c3.3 0 6.2-1.7 7.2-3.9v3.5h4.7v-12.2z"/>
	<path id="Layer" class="s1" d="m25.8 22.8v-22.9h7.4v16.9h7.9v6z"/>
	<path id="Layer" class="s1" d="m43.8 22.2v-6.2q1.6 0.5 3.8 0.9 2.1 0.4 3.7 0.4c1.8 0 2.7-0.5 2.7-1.3 0-0.5-0.3-0.7-1.6-1l-2.5-0.6c-4.4-1-6.4-3.2-6.4-6.9q0-3.7 2.5-5.9c1.7-1.4 4.1-2.1 7-2.1 2.1 0 5.2 0.4 7.1 0.9v6c-1-0.3-2.2-0.5-3.6-0.7q-2.2-0.4-3.4-0.4c-1.5 0-2.4 0.5-2.4 1.3 0 0.5 0.4 0.8 1.2 1l3 0.7c4.3 1 6.3 3.3 6.3 7q0 3.7-2.6 5.8-2.6 2.1-7.3 2.1c-2.9 0-5.8-0.4-7.5-1z"/>
</svg>