<svg width="27" height="23" viewBox="0 0 27 23" fill="none" xmlns="http://www.w3.org/2000/svg">
<mask id="path-1-inside-1_320_501" fill="white">
<path d="M0.597908 13.6171C1.29681 13.0632 1.72601 12.3469 1.78981 11.4479C1.85361 10.5402 1.68831 9.63252 1.80721 8.72482C1.91161 7.93022 2.23061 7.18782 2.88021 6.69192C3.50081 6.21922 4.29541 6.03652 5.06681 6.07422C6.19491 5.19842 8.04801 5.24192 9.27471 5.59282C10.9915 6.08582 12.8765 6.77602 14.6977 6.53822C14.8543 6.29172 14.6861 5.93212 14.689 5.65952C14.6948 5.22452 15.0312 4.99832 15.1414 4.60392C15.3473 3.86152 15.0747 2.92772 16.0056 2.59712C16.2869 2.49852 16.7103 2.54782 16.9423 2.34482C17.2033 2.11572 17.3396 1.67492 17.5078 1.37912C17.8819 0.720819 18.4474 0.375719 19.2101 0.436619C19.4189 0.454019 19.6306 0.474319 19.8336 0.422119C20.0714 0.361219 20.2599 0.201719 20.5064 0.164019C20.9965 0.0886193 21.4402 0.355419 21.8549 0.584519C22.0405 0.398919 22.2522 0.236519 22.4929 0.114719C22.809 -0.0476807 23.1106 0.158219 23.1483 0.491719C23.2063 1.02242 23.2672 1.55022 23.3252 2.08092C23.6065 2.17952 23.8443 2.36802 24.056 2.60002C24.3692 2.94512 24.6824 3.24092 25.0391 3.53962C25.7206 4.11092 26.7211 4.87362 26.5036 5.87992C26.4195 6.27432 26.3586 6.74702 26.1643 7.10372C25.9613 7.47492 25.5756 7.61992 25.1667 7.60832C24.2445 7.58512 22.6524 7.13272 22.0289 6.81662C21.8839 7.28352 21.7418 7.75332 21.5968 8.22022C21.4199 8.79732 21.214 9.37152 21.2082 9.98052C21.1966 11.0332 21.5127 12.0946 21.1473 13.1212C21.0023 13.5301 20.7732 13.91 20.431 14.1826C20.2483 14.3276 20.0511 14.403 19.8539 14.5161C19.6161 14.6524 19.6016 14.8699 19.5436 15.1251C19.2884 16.2677 19.1318 17.4277 18.9868 18.5906C18.9114 19.1996 18.778 19.8376 18.8331 20.4524C18.8911 21.0643 19.2507 21.7023 19.5001 22.2533C19.6306 22.5433 19.4798 22.9116 19.1231 22.9087C18.5982 22.9029 18.0733 22.9058 17.5484 22.8913C17.1656 22.8797 16.9278 22.8014 16.7857 22.4186C16.5276 21.7255 16.4667 20.8178 16.5479 20.087C16.6204 19.4548 16.8118 18.8429 16.8727 18.2078C16.9336 17.5466 16.9104 16.8796 16.8901 16.2155C16.8814 15.9429 16.8727 15.6674 16.8669 15.3948C16.2144 16.5026 16.023 17.8482 15.9563 19.13C15.9331 19.5592 15.907 19.9884 15.9099 20.4176C15.9099 20.6815 15.9186 20.87 16.0984 21.0585C16.4986 21.479 16.6871 21.8676 16.6349 22.465C16.6146 22.7086 16.4522 22.8855 16.1999 22.9C15.5793 22.9319 14.9587 22.8681 14.3352 22.9C14.1525 22.9087 13.9553 22.7579 13.9147 22.581C13.7523 21.8792 13.7929 21.1948 13.848 20.4843C13.9089 19.6897 13.8712 18.8922 13.8219 18.0976C13.7465 16.8622 13.5406 15.4673 13.9176 14.2522C12.9838 14.1333 12.0529 13.9071 11.1452 13.6432C10.5565 14.4117 9.93301 15.1541 9.32111 15.9023C9.00211 16.2938 8.67731 16.6853 8.38151 17.0942C8.04801 17.5553 8.19881 18.2658 8.21911 18.811C8.23071 19.1155 8.28291 20.0087 8.29451 20.1508C8.30901 20.348 8.29451 20.4379 8.42211 20.5713C8.57581 20.7308 8.75271 20.8439 8.88611 21.0266C9.03401 21.2296 9.14711 21.4674 9.20511 21.711C9.28631 22.0532 9.33851 22.5433 9.00791 22.7695C8.81651 22.9 8.58161 22.8942 8.35831 22.8971C8.03931 22.9 7.71741 22.8971 7.39841 22.8971C7.19541 22.8971 7.04461 22.7608 6.97791 22.5781C6.53421 21.3485 6.16591 20.0783 5.90201 18.7936C5.76861 19.1242 5.76861 19.5969 5.88171 20.3973C5.92811 20.7221 5.89621 21.0208 6.00641 21.1716C6.30511 21.5805 6.47911 22.1141 6.16011 22.6071C5.84111 23.1001 4.98271 22.8884 4.47231 22.8971C4.23741 22.9 4.07211 22.6912 4.03731 22.4621C3.95321 21.9198 3.78501 21.5167 3.66611 21.0324C3.50371 20.377 3.43701 19.6955 3.41961 19.0227C3.38191 17.5901 3.46891 16.23 4.03151 14.8989C4.27801 14.3131 4.59701 13.707 4.65501 13.0661C4.70431 12.5122 4.50711 11.3145 4.01411 10.0704C3.89231 10.8215 3.90391 11.6306 3.76181 12.3266C3.65161 12.8747 3.44571 13.4228 3.00781 13.794C2.38721 14.3189 1.57231 14.5335 0.777708 14.3363C0.484808 14.2638 0.325308 13.8143 0.586308 13.6084L0.597908 13.6171ZM20.1642 1.22832C19.7292 1.37042 19.3319 1.24572 18.8998 1.29212C18.5141 1.33562 18.3459 1.64592 18.1806 1.95912C17.9747 2.34482 17.7775 2.82332 17.4063 3.08142C17.2381 3.19742 17.0438 3.26702 16.8437 3.30762C16.6726 3.34242 16.3768 3.32792 16.2318 3.43522C15.965 3.63532 16.0723 4.29942 16.0259 4.59232C15.9882 4.83012 15.9128 5.05922 15.7968 5.27382C15.6808 5.48552 15.5387 5.55802 15.5648 5.80162C15.5822 5.97852 15.6083 6.15252 15.617 6.32362C16.9336 5.87122 17.3483 4.45312 18.1487 3.44682C18.9404 2.45502 20.0946 1.59662 21.3445 1.28342C21.1647 1.17902 20.9791 1.06592 20.7819 1.02242C20.5644 0.976019 20.3672 1.15292 20.1613 1.21962L20.1642 1.22832ZM14.6977 18.1034C14.7412 18.8371 14.776 19.5708 14.7354 20.3045C14.7035 20.8845 14.6339 21.4558 14.7035 22.0271C15.0515 22.0271 15.4024 22.0416 15.7504 22.0416C15.6866 21.7197 15.3096 21.508 15.2081 21.3195C15.0225 20.9744 15.037 20.5481 15.0486 20.1682C15.0631 19.6839 15.0805 19.1996 15.1153 18.7153C15.2313 17.1116 15.5909 15.476 16.632 14.2261C16.0288 14.3276 15.4227 14.3595 14.8166 14.3305C14.399 15.5079 14.6252 16.8883 14.6977 18.1005V18.1034ZM7.71451 22.0358C7.90881 22.0358 8.36121 22.0358 8.39021 22.03C8.36121 21.8299 8.27421 21.6327 8.14371 21.479C8.00161 21.3108 7.79571 21.2209 7.65651 21.0498C7.34911 20.667 7.41871 19.9884 7.39261 19.5273C7.35781 18.9386 7.33751 18.3528 7.33461 17.7641C7.33171 17.2392 7.45641 16.9057 7.77251 16.4939C8.07991 16.0879 8.39601 15.6935 8.71791 15.2991C9.23701 14.6611 9.76771 14.0347 10.2752 13.3851C10.0751 13.3213 9.66331 13.185 9.65461 13.1821C9.40521 13.9216 8.18141 15.1599 7.78121 15.5282C7.37231 15.9023 6.61831 16.5374 6.47911 16.9666C6.69081 18.6892 7.14611 20.4031 7.72031 22.0445L7.71451 22.0358ZM4.45781 16.3576C4.28671 17.1029 4.28961 17.883 4.29251 18.6428C4.29251 19.3707 4.48101 21.1368 4.87251 22.0358C5.06391 22.0358 5.25241 22.0358 5.44381 22.0358C5.48151 21.6066 5.10451 21.1919 5.07841 20.9831C5.03491 20.6322 5.00591 20.2784 4.97981 19.9275C4.91021 18.9502 5.06101 17.8569 5.50761 16.9898C5.99771 16.0328 6.97501 15.1425 7.69711 14.3798C8.52361 13.5098 9.17031 12.4832 9.44291 11.3058C9.56761 10.7606 10.4086 10.9926 10.281 11.5378C10.2143 11.8307 10.1244 12.112 10.0171 12.3875C12.1718 13.0893 14.5382 13.8143 16.8089 13.3097C16.7944 12.8573 16.7828 12.402 16.7683 11.9496C16.7509 11.3899 17.6209 11.3899 17.6383 11.9496C17.676 13.2024 17.7108 14.4581 17.7485 15.7109C17.7833 16.926 17.8268 18.1208 17.5716 19.3156C17.3976 20.1363 17.2845 21.4645 17.5948 22.0184C17.6383 22.0242 18.198 22.0329 18.4532 22.0358C18.3198 21.7313 18.1893 21.421 18.0849 21.1107C17.908 20.58 17.9457 20.0145 18.0095 19.4693C18.1545 18.2513 18.2937 17.0304 18.5141 15.824C18.6069 15.3136 18.6562 14.6785 18.9201 14.2203C19.1753 13.7766 19.7089 13.7418 20.0279 13.3793C20.7297 12.5818 20.3991 11.3261 20.3469 10.3836C20.2686 8.99742 20.8602 7.63442 21.2662 6.32652C20.8283 5.93502 20.5615 5.41012 20.7326 4.73442C20.8689 4.19212 21.7099 4.42122 21.5707 4.96642C21.3416 5.87122 22.8177 6.20762 23.4151 6.41642C24.491 6.79632 25.3088 6.87752 25.4277 6.60492C25.6249 6.15252 25.6829 5.68272 25.6713 5.54642C25.6365 5.14042 25.0942 4.75762 24.8216 4.50822C24.4707 4.19212 24.0705 3.91662 23.7515 3.57152C23.5398 3.34242 23.2817 2.88422 22.9308 2.87842C22.6756 2.87262 22.5219 2.68122 22.4958 2.44342C22.4552 2.06642 22.4117 1.68942 22.3711 1.31242C21.9419 1.72132 21.9477 2.23462 21.9477 2.45792C21.9477 3.01762 21.1357 3.15392 21.0893 2.29262C20.2077 2.63772 19.4247 3.26702 18.836 3.98622C18.1052 4.87652 17.7369 6.00462 16.7799 6.70932C15.8258 7.41112 14.5092 7.47782 13.3666 7.43432C12.3864 7.39662 11.3946 7.10662 10.455 6.84852C9.39361 6.55562 8.25971 6.04232 7.14031 6.17862C6.07601 6.30622 5.13351 6.86882 4.84061 7.95052C4.55931 8.98582 4.86091 10.0066 5.17701 10.9926C5.53371 12.0975 5.67871 13.1212 5.26111 14.2319C4.99431 14.9453 4.62891 15.6181 4.45781 16.3634V16.3576ZM3.02231 11.5059C3.14701 10.43 2.95851 8.93652 3.92131 8.12452C3.98801 7.72722 4.11561 7.34152 4.30701 6.99062C3.86041 7.07762 3.43991 7.27192 3.13541 7.62862C2.63951 8.20862 2.60761 9.04962 2.62791 9.77462C2.65111 10.633 2.74971 11.5088 2.51191 12.3469C2.40171 12.7413 2.21321 13.1067 1.97541 13.4344C2.77871 13.0284 2.96721 11.9699 3.02231 11.503V11.5059Z"/>
</mask>
<path d="M0.597908 13.6171C1.29681 13.0632 1.72601 12.3469 1.78981 11.4479C1.85361 10.5402 1.68831 9.63252 1.80721 8.72482C1.91161 7.93022 2.23061 7.18782 2.88021 6.69192C3.50081 6.21922 4.29541 6.03652 5.06681 6.07422C6.19491 5.19842 8.04801 5.24192 9.27471 5.59282C10.9915 6.08582 12.8765 6.77602 14.6977 6.53822C14.8543 6.29172 14.6861 5.93212 14.689 5.65952C14.6948 5.22452 15.0312 4.99832 15.1414 4.60392C15.3473 3.86152 15.0747 2.92772 16.0056 2.59712C16.2869 2.49852 16.7103 2.54782 16.9423 2.34482C17.2033 2.11572 17.3396 1.67492 17.5078 1.37912C17.8819 0.720819 18.4474 0.375719 19.2101 0.436619C19.4189 0.454019 19.6306 0.474319 19.8336 0.422119C20.0714 0.361219 20.2599 0.201719 20.5064 0.164019C20.9965 0.0886193 21.4402 0.355419 21.8549 0.584519C22.0405 0.398919 22.2522 0.236519 22.4929 0.114719C22.809 -0.0476807 23.1106 0.158219 23.1483 0.491719C23.2063 1.02242 23.2672 1.55022 23.3252 2.08092C23.6065 2.17952 23.8443 2.36802 24.056 2.60002C24.3692 2.94512 24.6824 3.24092 25.0391 3.53962C25.7206 4.11092 26.7211 4.87362 26.5036 5.87992C26.4195 6.27432 26.3586 6.74702 26.1643 7.10372C25.9613 7.47492 25.5756 7.61992 25.1667 7.60832C24.2445 7.58512 22.6524 7.13272 22.0289 6.81662C21.8839 7.28352 21.7418 7.75332 21.5968 8.22022C21.4199 8.79732 21.214 9.37152 21.2082 9.98052C21.1966 11.0332 21.5127 12.0946 21.1473 13.1212C21.0023 13.5301 20.7732 13.91 20.431 14.1826C20.2483 14.3276 20.0511 14.403 19.8539 14.5161C19.6161 14.6524 19.6016 14.8699 19.5436 15.1251C19.2884 16.2677 19.1318 17.4277 18.9868 18.5906C18.9114 19.1996 18.778 19.8376 18.8331 20.4524C18.8911 21.0643 19.2507 21.7023 19.5001 22.2533C19.6306 22.5433 19.4798 22.9116 19.1231 22.9087C18.5982 22.9029 18.0733 22.9058 17.5484 22.8913C17.1656 22.8797 16.9278 22.8014 16.7857 22.4186C16.5276 21.7255 16.4667 20.8178 16.5479 20.087C16.6204 19.4548 16.8118 18.8429 16.8727 18.2078C16.9336 17.5466 16.9104 16.8796 16.8901 16.2155C16.8814 15.9429 16.8727 15.6674 16.8669 15.3948C16.2144 16.5026 16.023 17.8482 15.9563 19.13C15.9331 19.5592 15.907 19.9884 15.9099 20.4176C15.9099 20.6815 15.9186 20.87 16.0984 21.0585C16.4986 21.479 16.6871 21.8676 16.6349 22.465C16.6146 22.7086 16.4522 22.8855 16.1999 22.9C15.5793 22.9319 14.9587 22.8681 14.3352 22.9C14.1525 22.9087 13.9553 22.7579 13.9147 22.581C13.7523 21.8792 13.7929 21.1948 13.848 20.4843C13.9089 19.6897 13.8712 18.8922 13.8219 18.0976C13.7465 16.8622 13.5406 15.4673 13.9176 14.2522C12.9838 14.1333 12.0529 13.9071 11.1452 13.6432C10.5565 14.4117 9.93301 15.1541 9.32111 15.9023C9.00211 16.2938 8.67731 16.6853 8.38151 17.0942C8.04801 17.5553 8.19881 18.2658 8.21911 18.811C8.23071 19.1155 8.28291 20.0087 8.29451 20.1508C8.30901 20.348 8.29451 20.4379 8.42211 20.5713C8.57581 20.7308 8.75271 20.8439 8.88611 21.0266C9.03401 21.2296 9.14711 21.4674 9.20511 21.711C9.28631 22.0532 9.33851 22.5433 9.00791 22.7695C8.81651 22.9 8.58161 22.8942 8.35831 22.8971C8.03931 22.9 7.71741 22.8971 7.39841 22.8971C7.19541 22.8971 7.04461 22.7608 6.97791 22.5781C6.53421 21.3485 6.16591 20.0783 5.90201 18.7936C5.76861 19.1242 5.76861 19.5969 5.88171 20.3973C5.92811 20.7221 5.89621 21.0208 6.00641 21.1716C6.30511 21.5805 6.47911 22.1141 6.16011 22.6071C5.84111 23.1001 4.98271 22.8884 4.47231 22.8971C4.23741 22.9 4.07211 22.6912 4.03731 22.4621C3.95321 21.9198 3.78501 21.5167 3.66611 21.0324C3.50371 20.377 3.43701 19.6955 3.41961 19.0227C3.38191 17.5901 3.46891 16.23 4.03151 14.8989C4.27801 14.3131 4.59701 13.707 4.65501 13.0661C4.70431 12.5122 4.50711 11.3145 4.01411 10.0704C3.89231 10.8215 3.90391 11.6306 3.76181 12.3266C3.65161 12.8747 3.44571 13.4228 3.00781 13.794C2.38721 14.3189 1.57231 14.5335 0.777708 14.3363C0.484808 14.2638 0.325308 13.8143 0.586308 13.6084L0.597908 13.6171ZM20.1642 1.22832C19.7292 1.37042 19.3319 1.24572 18.8998 1.29212C18.5141 1.33562 18.3459 1.64592 18.1806 1.95912C17.9747 2.34482 17.7775 2.82332 17.4063 3.08142C17.2381 3.19742 17.0438 3.26702 16.8437 3.30762C16.6726 3.34242 16.3768 3.32792 16.2318 3.43522C15.965 3.63532 16.0723 4.29942 16.0259 4.59232C15.9882 4.83012 15.9128 5.05922 15.7968 5.27382C15.6808 5.48552 15.5387 5.55802 15.5648 5.80162C15.5822 5.97852 15.6083 6.15252 15.617 6.32362C16.9336 5.87122 17.3483 4.45312 18.1487 3.44682C18.9404 2.45502 20.0946 1.59662 21.3445 1.28342C21.1647 1.17902 20.9791 1.06592 20.7819 1.02242C20.5644 0.976019 20.3672 1.15292 20.1613 1.21962L20.1642 1.22832ZM14.6977 18.1034C14.7412 18.8371 14.776 19.5708 14.7354 20.3045C14.7035 20.8845 14.6339 21.4558 14.7035 22.0271C15.0515 22.0271 15.4024 22.0416 15.7504 22.0416C15.6866 21.7197 15.3096 21.508 15.2081 21.3195C15.0225 20.9744 15.037 20.5481 15.0486 20.1682C15.0631 19.6839 15.0805 19.1996 15.1153 18.7153C15.2313 17.1116 15.5909 15.476 16.632 14.2261C16.0288 14.3276 15.4227 14.3595 14.8166 14.3305C14.399 15.5079 14.6252 16.8883 14.6977 18.1005V18.1034ZM7.71451 22.0358C7.90881 22.0358 8.36121 22.0358 8.39021 22.03C8.36121 21.8299 8.27421 21.6327 8.14371 21.479C8.00161 21.3108 7.79571 21.2209 7.65651 21.0498C7.34911 20.667 7.41871 19.9884 7.39261 19.5273C7.35781 18.9386 7.33751 18.3528 7.33461 17.7641C7.33171 17.2392 7.45641 16.9057 7.77251 16.4939C8.07991 16.0879 8.39601 15.6935 8.71791 15.2991C9.23701 14.6611 9.76771 14.0347 10.2752 13.3851C10.0751 13.3213 9.66331 13.185 9.65461 13.1821C9.40521 13.9216 8.18141 15.1599 7.78121 15.5282C7.37231 15.9023 6.61831 16.5374 6.47911 16.9666C6.69081 18.6892 7.14611 20.4031 7.72031 22.0445L7.71451 22.0358ZM4.45781 16.3576C4.28671 17.1029 4.28961 17.883 4.29251 18.6428C4.29251 19.3707 4.48101 21.1368 4.87251 22.0358C5.06391 22.0358 5.25241 22.0358 5.44381 22.0358C5.48151 21.6066 5.10451 21.1919 5.07841 20.9831C5.03491 20.6322 5.00591 20.2784 4.97981 19.9275C4.91021 18.9502 5.06101 17.8569 5.50761 16.9898C5.99771 16.0328 6.97501 15.1425 7.69711 14.3798C8.52361 13.5098 9.17031 12.4832 9.44291 11.3058C9.56761 10.7606 10.4086 10.9926 10.281 11.5378C10.2143 11.8307 10.1244 12.112 10.0171 12.3875C12.1718 13.0893 14.5382 13.8143 16.8089 13.3097C16.7944 12.8573 16.7828 12.402 16.7683 11.9496C16.7509 11.3899 17.6209 11.3899 17.6383 11.9496C17.676 13.2024 17.7108 14.4581 17.7485 15.7109C17.7833 16.926 17.8268 18.1208 17.5716 19.3156C17.3976 20.1363 17.2845 21.4645 17.5948 22.0184C17.6383 22.0242 18.198 22.0329 18.4532 22.0358C18.3198 21.7313 18.1893 21.421 18.0849 21.1107C17.908 20.58 17.9457 20.0145 18.0095 19.4693C18.1545 18.2513 18.2937 17.0304 18.5141 15.824C18.6069 15.3136 18.6562 14.6785 18.9201 14.2203C19.1753 13.7766 19.7089 13.7418 20.0279 13.3793C20.7297 12.5818 20.3991 11.3261 20.3469 10.3836C20.2686 8.99742 20.8602 7.63442 21.2662 6.32652C20.8283 5.93502 20.5615 5.41012 20.7326 4.73442C20.8689 4.19212 21.7099 4.42122 21.5707 4.96642C21.3416 5.87122 22.8177 6.20762 23.4151 6.41642C24.491 6.79632 25.3088 6.87752 25.4277 6.60492C25.6249 6.15252 25.6829 5.68272 25.6713 5.54642C25.6365 5.14042 25.0942 4.75762 24.8216 4.50822C24.4707 4.19212 24.0705 3.91662 23.7515 3.57152C23.5398 3.34242 23.2817 2.88422 22.9308 2.87842C22.6756 2.87262 22.5219 2.68122 22.4958 2.44342C22.4552 2.06642 22.4117 1.68942 22.3711 1.31242C21.9419 1.72132 21.9477 2.23462 21.9477 2.45792C21.9477 3.01762 21.1357 3.15392 21.0893 2.29262C20.2077 2.63772 19.4247 3.26702 18.836 3.98622C18.1052 4.87652 17.7369 6.00462 16.7799 6.70932C15.8258 7.41112 14.5092 7.47782 13.3666 7.43432C12.3864 7.39662 11.3946 7.10662 10.455 6.84852C9.39361 6.55562 8.25971 6.04232 7.14031 6.17862C6.07601 6.30622 5.13351 6.86882 4.84061 7.95052C4.55931 8.98582 4.86091 10.0066 5.17701 10.9926C5.53371 12.0975 5.67871 13.1212 5.26111 14.2319C4.99431 14.9453 4.62891 15.6181 4.45781 16.3634V16.3576ZM3.02231 11.5059C3.14701 10.43 2.95851 8.93652 3.92131 8.12452C3.98801 7.72722 4.11561 7.34152 4.30701 6.99062C3.86041 7.07762 3.43991 7.27192 3.13541 7.62862C2.63951 8.20862 2.60761 9.04962 2.62791 9.77462C2.65111 10.633 2.74971 11.5088 2.51191 12.3469C2.40171 12.7413 2.21321 13.1067 1.97541 13.4344C2.77871 13.0284 2.96721 11.9699 3.02231 11.503V11.5059Z" fill="#0E1D4C" stroke="white" stroke-width="0.2" mask="url(#path-1-inside-1_320_501)"/>
<path d="M22.5944 4.40594C22.7201 4.40594 22.8111 4.35764 22.8713 4.28745C22.9324 4.2162 22.9642 4.1195 22.9642 4.02094C22.9642 3.92237 22.9324 3.82568 22.8713 3.75443C22.8111 3.68423 22.7201 3.63594 22.5944 3.63594C22.4687 3.63594 22.3777 3.68423 22.3175 3.75443C22.2564 3.82568 22.2246 3.92237 22.2246 4.02094C22.2246 4.1195 22.2564 4.2162 22.3175 4.28745C22.3777 4.35764 22.4687 4.40594 22.5944 4.40594Z" fill="#0E1D4C" stroke="white" stroke-width="0.1"/>
</svg>
