<svg width="12" height="12" viewBox="0 0 12 12" fill="none" xmlns="http://www.w3.org/2000/svg">
<path d="M11.9765 11.6152V7.24719C11.9765 4.90671 10.7126 3.81797 9.02733 3.81797C7.66776 3.81797 7.05847 4.55711 6.71879 5.07622V3.99726H4.15713C4.19093 4.71195 4.15713 11.6152 4.15713 11.6152H6.71879V7.36046C6.71879 7.1331 6.73528 6.90573 6.80371 6.74356C6.98839 6.28883 7.4097 5.8178 8.1171 5.8178C9.04464 5.8178 9.41483 6.5162 9.41483 7.53975V11.6152H11.9765ZM1.45861 2.95741C2.35152 2.95741 2.90804 2.37229 2.90804 1.64049C2.89155 0.8932 2.35152 0.325195 1.4751 0.325195C0.598678 0.325195 0.0264893 0.8932 0.0264893 1.64049C0.0264893 2.37148 0.583013 2.95741 1.44212 2.95741H1.45861ZM2.73903 11.6152V3.99726H0.178193V11.6152H2.73903Z" fill="#46D9FF"/>
</svg>
