<svg width="42" height="38" viewBox="0 0 42 38" fill="none" xmlns="http://www.w3.org/2000/svg">
<path d="M1.80952 32.44V29.3148V29.1648H1.95952H22.838H22.988V29.3148V32.3467L1.80952 32.44ZM1.80952 32.44C1.812 34.4128 3.3409 36.0473 5.30911 36.1813L1.80952 32.44ZM37.4696 0.261963L37.4956 0.278028L37.5259 0.28261C39.5879 0.594887 41.1153 2.36223 41.1262 4.44782C41.1262 4.44807 41.1262 4.44834 41.1262 4.44858L41.1262 17.8786C41.1262 18.2955 40.7884 18.6334 40.3715 18.6334H34.2728H34.1228V18.7834V32.3462C34.1218 35.3807 31.6646 37.8413 28.6301 37.8468C28.4988 37.8468 28.3676 37.8407 28.2361 37.8313L28.2361 37.8309H28.2254H5.74594H5.7305L5.71538 37.8341C5.66446 37.8447 5.6122 37.85 5.56022 37.85C2.57345 37.8466 0.153095 35.4262 0.15 32.4394L0.15 28.2597C0.15 27.8428 0.487865 27.5049 0.904762 27.5049H5.77387H5.92284L5.92386 27.3559L6.0822 4.15409H6.0822V4.15307C6.0822 1.95045 7.89794 0.15 10.133 0.15H37.0758C37.2146 0.15 37.351 0.188836 37.4696 0.261963ZM1.65952 32.44L1.65952 32.4401C1.6621 34.4918 3.25208 36.1916 5.29893 36.3309L5.31532 36.3321L5.33155 36.3296C5.36588 36.3244 5.4009 36.3217 5.43673 36.3214H24.4819H24.8246L24.5921 36.0696C23.6561 35.0558 23.137 33.7266 23.138 32.3468V32.3467V29.1648V29.0148H22.988H1.80952H1.65952V29.1648L1.65952 32.44ZM28.7277 36.3326L28.7428 36.3352L28.7582 36.3347C29.7757 36.3024 30.7414 35.8768 31.4523 35.1478C32.1941 34.4041 32.6114 33.3974 32.6133 32.3466V32.3463V4.44782C32.6129 3.52637 32.9183 2.63085 33.4808 1.90111L33.6671 1.65952H33.362H10.1335C8.74234 1.64932 7.60563 2.76709 7.59173 4.15793L7.59173 4.15841L7.43339 27.3539L7.43236 27.5049H7.58339H23.8928C24.3096 27.5049 24.6475 27.8431 24.6475 28.2597L24.6475 32.347L24.6475 32.348C24.6611 34.405 26.2255 36.1195 28.2725 36.321L28.2799 36.3217H28.2872L28.6043 36.3217C28.6044 36.3217 28.6046 36.3217 28.6048 36.3217C28.6466 36.3221 28.6877 36.3256 28.7277 36.3326ZM39.4667 17.1238H39.6167V16.9738L39.6167 4.44782L39.6167 4.44532C39.5916 2.94587 38.3692 1.74399 36.8698 1.74399C35.3703 1.74399 34.1479 2.94587 34.1228 4.44532V4.44782V16.9738V17.1238H34.2728H39.4667Z" fill="#0D1C4C" stroke="white" stroke-width="0.3"/>
<path d="M20.1858 9.65171H11.6167C11.1998 9.65171 10.8619 9.31385 10.8619 8.89695C10.8619 8.48005 11.1998 8.14219 11.6167 8.14219H20.1858C20.6027 8.14219 20.9405 8.48005 20.9405 8.89695C20.9405 9.31385 20.6027 9.65171 20.1858 9.65171Z" fill="#0D1C4C" stroke="white" stroke-width="0.3"/>
<path d="M11.6167 14.6109H27.6013C28.0182 14.6109 28.356 14.9488 28.356 15.3657C28.356 15.7823 28.0181 16.1205 27.6013 16.1205H11.6167C11.1998 16.1205 10.8619 15.7823 10.8619 15.3657C10.8619 14.9488 11.1998 14.6109 11.6167 14.6109Z" fill="#0D1C4C" stroke="white" stroke-width="0.3"/>
<path d="M11.6167 21.0802H27.6013C28.0181 21.0802 28.356 21.4184 28.356 21.8349C28.356 22.2518 28.0182 22.5897 27.6013 22.5897H11.6167C11.1998 22.5897 10.8619 22.2518 10.8619 21.8349C10.8619 21.4184 11.1998 21.0802 11.6167 21.0802Z" fill="#0D1C4C" stroke="white" stroke-width="0.3"/>
</svg>
