<svg width="229" height="37" viewBox="0 0 229 37" fill="none" xmlns="http://www.w3.org/2000/svg">
<path d="M5.84743 2.52002C2.62127 2.52002 0 5.14126 0 8.36742C0 11.5936 2.62127 14.2148 5.84743 14.2148C6.20029 14.2148 6.50273 14.2148 6.80518 14.114L5.54496 12.0473C3.62943 11.896 2.06678 10.283 2.06678 8.31702C2.06678 6.35108 3.73026 4.53637 5.84743 4.53637C7.9646 4.53637 9.62808 6.19986 9.62808 8.31702C9.62808 8.51866 9.62807 8.72028 9.57766 8.92192L11.4932 10.0813C11.6948 9.52683 11.7452 8.92192 11.7452 8.26661C11.7452 5.14127 9.124 2.52002 5.84743 2.52002Z" fill="#6C6CFF"/>
<path d="M25.0531 2.52002C21.827 2.52002 19.1553 5.14126 19.1553 8.36742C19.1553 9.02273 19.2561 9.62764 19.4578 10.1821L21.3733 9.02274C21.3229 8.82111 21.3229 8.61946 21.3229 8.36742C21.3229 6.30066 22.9864 4.58676 25.0531 4.58676C27.1199 4.58676 28.8338 6.25025 28.8338 8.36742C28.8338 10.3334 27.3215 11.9465 25.406 12.0977L24.1458 14.1644C24.4482 14.2148 24.7507 14.2148 25.1035 14.2148C28.3297 14.2148 30.951 11.5936 30.951 8.36742C30.951 5.14126 28.3297 2.52002 25.0531 2.52002Z" fill="#6C6CFF"/>
<path d="M11.5436 26.9687L9.62808 28.1785C9.62808 28.3298 9.67848 28.481 9.67848 28.5818C9.67848 30.6485 8.01499 32.3624 5.89783 32.3624C3.83107 32.3624 2.16757 30.699 2.16757 28.5818C2.16757 26.4646 3.78067 24.902 5.74661 24.8515L7.00682 22.8352C6.65396 22.7848 6.3011 22.7344 5.89783 22.7344C2.67167 22.7344 0.0504265 25.3556 0.0504265 28.5818C0.0504265 31.8079 2.67167 34.4292 5.89783 34.4292C9.12398 34.4292 11.7957 31.8079 11.7957 28.5818C11.7452 28.0273 11.6444 27.4728 11.5436 26.9687Z" fill="#6C6CFF"/>
<path d="M25.0531 22.6836C24.7003 22.6836 24.3474 22.734 23.9946 22.7844L25.2548 24.8008C27.2207 24.9016 28.8338 26.5651 28.8338 28.531C28.8338 30.4969 27.1703 32.3116 25.0531 32.3116C22.9864 32.3116 21.3229 30.6482 21.3229 28.531C21.3229 28.3798 21.3229 28.2285 21.3229 28.0773L19.4074 26.8675C19.2561 27.3716 19.1553 27.9261 19.1553 28.4806C19.1553 31.7068 21.7766 34.328 25.0531 34.328C28.3297 34.328 30.951 31.7068 30.951 28.4806C30.951 25.2544 28.2793 22.6836 25.0531 22.6836Z" fill="#6C6CFF"/>
<path d="M26.1621 28.5314C26.4142 28.9347 26.1117 29.3884 25.7084 29.3884C25.6076 29.3884 25.5068 29.3884 25.406 29.2876L21.6757 26.9688L19.861 25.8598L16.282 23.6418C16.03 23.4906 15.7779 23.4402 15.4755 23.4402C15.2234 23.4402 14.921 23.4906 14.669 23.6418L11.0395 25.8598L9.22479 26.9688L5.49456 29.2876C5.39374 29.338 5.29291 29.3884 5.19209 29.3884C4.78882 29.3884 4.48639 28.9347 4.73843 28.5314L6.906 25.0028L8.06539 23.1881L10.3842 19.4075C10.6867 18.9034 10.6867 18.2985 10.3842 17.8448L7.96457 13.9129L6.80517 12.0478L4.73843 8.67042C4.48639 8.26715 4.83923 7.81348 5.19209 7.81348C5.29291 7.81348 5.39374 7.81347 5.49456 7.91428L9.12399 10.1827L10.9387 11.2917L14.6185 13.5601C14.8706 13.7113 15.1226 13.7617 15.4251 13.7617C15.6771 13.7617 15.9796 13.7113 16.2316 13.5601L19.9114 11.2917L21.7262 10.1827L25.406 7.91428C25.5068 7.86388 25.6076 7.81348 25.7084 7.81348C26.1117 7.81348 26.4142 8.26715 26.1621 8.67042L24.0954 12.0478L22.936 13.9129L20.5164 17.8448C20.2139 18.3489 20.2139 18.9538 20.5164 19.4075L22.8351 23.1881L23.9946 25.0028L26.1621 28.5314Z" fill="#6C6CFF"/>
<path d="M36.9496 22.4823H41.5872C41.8896 24.4483 43.5531 25.6077 45.8215 25.6077C48.0899 25.6077 49.6022 24.7507 49.6022 23.1376C49.6022 21.5246 48.4428 20.9701 45.6703 20.5668L43.7548 20.2643C39.2684 19.5082 37.4537 17.6935 37.4537 14.2657C37.4537 10.485 40.9319 8.06543 45.4687 8.06543C50.3583 8.06543 53.7861 11.0899 53.9373 14.7698H49.2493C49.0477 13.2071 47.6866 11.7453 45.3678 11.7453C43.4019 11.7453 41.8897 12.6022 41.8897 14.2153C41.8897 15.8284 43.1499 16.3829 45.8215 16.7861L47.7371 17.0886C52.2234 17.8447 54.0886 19.7098 54.0886 23.0872C54.0886 26.9183 50.6103 29.2875 45.7711 29.2875C40.579 29.3379 37.2016 26.3638 36.9496 22.4823Z" fill="white"/>
<path d="M56.7098 2.62124C56.7098 1.10898 57.8188 0 59.3311 0C60.8433 0 61.9523 1.10898 61.9523 2.62124C61.9523 4.13351 60.8433 5.19209 59.3311 5.19209C57.8188 5.19209 56.7098 4.13351 56.7098 2.62124ZM57.0627 28.8842V8.46866H61.6499V28.9346H57.0627V28.8842Z" fill="white"/>
<path d="M65.6322 28.9346V8.46869H70.0177V10.485C71.3284 8.92237 73.3951 8.06543 75.8147 8.06543C78.7384 8.06543 81.1077 9.27524 82.4687 11.594C84.0314 9.42647 86.6526 8.06543 89.7275 8.06543C94.7684 8.06543 98.2466 11.594 98.2466 17.1894V28.9346H93.6594V17.5927C93.6594 14.3161 91.8951 12.4006 88.9714 12.4006C86.0477 12.4006 84.233 14.4169 84.233 17.5927V28.9346H79.6458V17.5927C79.6458 14.3161 77.8815 12.4006 74.9578 12.4006C72.0341 12.4006 70.1689 14.4169 70.1689 17.5927V28.9346H65.6322Z" fill="white"/>
<path d="M102.027 37V8.46869H106.413V11.1908C107.925 9.22482 110.345 8.06543 113.268 8.06543C119.116 8.06543 123.602 12.703 123.602 18.7017C123.602 24.7003 119.166 29.3379 113.268 29.3379C110.496 29.3379 108.177 28.2793 106.614 26.4142V37H102.027ZM118.965 18.7017C118.965 14.9714 116.343 12.3502 112.764 12.3502C109.185 12.3502 106.564 14.9714 106.564 18.7017C106.564 22.4319 109.185 25.0028 112.764 25.0028C116.343 25.0028 118.965 22.3311 118.965 18.7017Z" fill="white"/>
<path d="M126.123 28.9345V0.453613H130.71V28.9345H126.123Z" fill="white"/>
<path d="M133.281 18.7017C133.281 12.703 137.868 8.06543 143.665 8.06543C149.462 8.06543 153.898 12.5014 153.898 18.6009C153.898 19.1049 153.898 19.609 153.797 20.1131H137.817C138.372 23.4401 140.691 25.3556 143.866 25.3556C146.437 25.3556 148.353 24.0954 149.26 22.1295H153.948C152.386 26.5654 148.403 29.3379 143.866 29.3379C137.868 29.3379 133.281 24.5995 133.281 18.7017ZM137.918 16.7357H149.21C148.857 13.9632 146.689 11.9973 143.614 11.9973C140.741 11.9973 138.574 13.7616 137.918 16.7357Z" fill="white"/>
<path d="M155.561 22.4823H160.199C160.501 24.4483 162.114 25.6077 164.433 25.6077C166.752 25.6077 168.164 24.7507 168.164 23.1376C168.164 21.5246 167.004 20.9701 164.232 20.5668L162.316 20.2643C157.83 19.5082 156.015 17.6935 156.015 14.2657C156.015 10.485 159.493 8.06543 164.03 8.06543C168.92 8.06543 172.347 11.0899 172.499 14.7698H167.861C167.659 13.2071 166.298 11.7453 163.98 11.7453C162.014 11.7453 160.501 12.6022 160.501 14.2153C160.501 15.8284 161.762 16.3829 164.433 16.7861L166.349 17.0886C170.835 17.8447 172.7 19.7098 172.7 23.0872C172.7 26.9183 169.222 29.2875 164.383 29.2875C159.241 29.3379 155.813 26.3638 155.561 22.4823Z" fill="#6C6CFF"/>
<path d="M175.674 28.9345V0.453613H180.262V10.5354C181.522 8.97269 183.538 8.06533 186.059 8.06533C191.15 8.06533 194.729 11.6443 194.729 17.2901V28.9345H190.142V17.6934C190.142 14.3664 188.327 12.4005 185.353 12.4005C182.379 12.4005 180.262 14.4672 180.262 17.6934V28.9345H175.674Z" fill="#6C6CFF"/>
<path d="M198.106 2.62124C198.106 1.10898 199.215 0 200.728 0C202.24 0 203.349 1.10898 203.349 2.62124C203.349 4.13351 202.24 5.19209 200.728 5.19209C199.266 5.2425 198.106 4.13351 198.106 2.62124ZM198.459 28.8842V8.46866H203.046V28.9346H198.459V28.8842Z" fill="#6C6CFF"/>
<path d="M207.029 37V8.46869H211.414V11.1908C212.926 9.22482 215.396 8.06543 218.27 8.06543C224.117 8.06543 228.553 12.703 228.553 18.7017C228.553 24.7003 224.117 29.3379 218.27 29.3379C215.497 29.3379 213.178 28.2793 211.616 26.4142V37H207.029ZM223.966 18.7017C223.966 14.9714 221.345 12.3502 217.766 12.3502C214.187 12.3502 211.565 14.9714 211.565 18.7017C211.565 22.4319 214.187 25.0028 217.766 25.0028C221.345 25.0028 223.966 22.3311 223.966 18.7017Z" fill="#6C6CFF"/>
</svg>
