<svg width="17" height="17" viewBox="0 0 17 17" fill="none" xmlns="http://www.w3.org/2000/svg">
<path d="M0 2.38645V14.8149C0.000687848 15.3944 0.231197 15.95 0.640963 16.3597C1.05073 16.7695 1.6063 17 2.18579 17.0007H14.6142C15.1937 17 15.7493 16.7695 16.159 16.3597C16.5688 15.95 16.7993 15.3944 16.8 14.8149V2.38645C16.7993 1.80696 16.5688 1.2514 16.159 0.841641C15.7493 0.431879 15.1937 0.201371 14.6142 0.200684H2.18579C1.6063 0.201371 1.05073 0.431879 0.640963 0.841641C0.231197 1.2514 0.000687848 1.80696 0 2.38645ZM15.6077 2.38645V14.8149C15.6075 15.0783 15.5027 15.3309 15.3164 15.5171C15.1302 15.7034 14.8776 15.8082 14.6142 15.8084H2.18579C1.92237 15.8082 1.66982 15.7034 1.48356 15.5171C1.29729 15.3309 1.19253 15.0783 1.19225 14.8149V2.38645C1.19253 2.12304 1.29729 1.87049 1.48356 1.68423C1.66982 1.49796 1.92237 1.3932 2.18579 1.39292H14.6142C14.8776 1.3932 15.1302 1.49796 15.3164 1.68423C15.5027 1.87049 15.6075 2.12304 15.6077 2.38645Z" fill="#3456FF"/>
<path d="M4.42574 9.19664H7.80378V12.5746C7.80607 12.7312 7.86989 12.8806 7.98144 12.9906C8.09298 13.1005 8.24331 13.1621 8.39992 13.1621C8.55653 13.1621 8.70685 13.1005 8.81839 12.9906C8.92994 12.8806 8.99375 12.7312 8.99603 12.5746V9.19664H12.3741C12.5322 9.19664 12.6838 9.13383 12.7956 9.02204C12.9074 8.91025 12.9702 8.75862 12.9702 8.60052C12.9702 8.44242 12.9074 8.29079 12.7956 8.179C12.6838 8.06721 12.5322 8.0044 12.3741 8.0044H8.99603V4.62639C8.99603 4.46829 8.93323 4.31667 8.82143 4.20487C8.70964 4.09308 8.55801 4.03027 8.39991 4.03027C8.24181 4.03027 8.09018 4.09308 7.97838 4.20487C7.86659 4.31667 7.80378 4.46829 7.80378 4.62639V8.0044H4.42574C4.26914 8.00669 4.11974 8.0705 4.00981 8.18204C3.89988 8.29359 3.83826 8.44391 3.83826 8.60052C3.83826 8.75713 3.89988 8.90745 4.00981 9.019C4.11974 9.13054 4.26914 9.19435 4.42574 9.19664Z" fill="#3456FF"/>
</svg>
