<svg width="22" height="29" viewBox="0 0 22 29" fill="none" xmlns="http://www.w3.org/2000/svg">
<path d="M3.05892 12.1486H3.25892V11.9486V8.54357C3.25892 4.40449 6.69197 1.08232 11.0001 1.08232C15.3082 1.08232 18.7413 4.40449 18.7413 8.54357V11.9486V12.1486H18.9413C20.3376 12.1486 21.3883 13.1724 21.3883 14.5023V25.5686C21.3883 26.8985 20.3376 27.9223 18.9413 27.9223H3.05892C1.66256 27.9223 0.611865 26.8985 0.611865 25.5686V14.5023C0.611865 13.1724 1.66256 12.1486 3.05892 12.1486ZM4.62363 11.9486V12.1486H4.82363H17.1766H17.3766V11.9486V8.54357C17.3766 5.10654 14.5449 2.38482 11.0001 2.38482C7.45529 2.38482 4.62363 5.10654 4.62363 8.54357V11.9486ZM20.0236 25.5686V14.5023C20.0236 14.1993 19.9179 13.9323 19.7198 13.7412C19.5225 13.5508 19.2493 13.4511 18.9413 13.4511H18.0589H3.94128H3.05892C2.75088 13.4511 2.47772 13.5508 2.28036 13.7412C2.08235 13.9323 1.97657 14.1993 1.97657 14.5023V25.5686C1.97657 25.8716 2.08235 26.1386 2.28036 26.3297C2.47772 26.5201 2.75088 26.6198 3.05892 26.6198H18.9413C19.2493 26.6198 19.5225 26.5201 19.7198 26.3297C19.9179 26.1386 20.0236 25.8716 20.0236 25.5686Z" fill="white" stroke="#172654" stroke-width="0.4"/>
<path d="M10.3177 21.1418V20.9961L10.179 20.9514C9.19969 20.6365 8.55303 19.7748 8.55303 18.7583C8.55303 17.4284 9.60372 16.4046 11.0001 16.4046C12.3965 16.4046 13.4471 17.4284 13.4471 18.7583C13.4471 19.7748 12.8005 20.6365 11.8212 20.9514L11.6824 20.9961V21.1418V23.0146C11.6824 23.2223 11.6117 23.3809 11.5009 23.4878C11.3895 23.5953 11.2215 23.6658 11.0001 23.6658C10.7787 23.6658 10.6107 23.5953 10.4992 23.4878C10.3884 23.3809 10.3177 23.2223 10.3177 23.0146V21.1418ZM9.91773 18.7583C9.91773 19.0614 10.0235 19.3284 10.2215 19.5194C10.4189 19.7098 10.692 19.8096 11.0001 19.8096C11.3081 19.8096 11.5813 19.7098 11.7787 19.5194C11.9767 19.3284 12.0824 19.0614 12.0824 18.7583C12.0824 18.4553 11.9767 18.1883 11.7787 17.9972C11.5813 17.8068 11.3081 17.7071 11.0001 17.7071C10.692 17.7071 10.4189 17.8068 10.2215 17.9972C10.0235 18.1883 9.91773 18.4553 9.91773 18.7583Z" fill="white" stroke="#172654" stroke-width="0.4"/>
</svg>
