<svg width="98" height="52" viewBox="0 0 98 52" fill="none" xmlns="http://www.w3.org/2000/svg">
<path d="M0.396301 7.89551C0.396301 4.02951 3.53031 0.895508 7.3963 0.895508H91C94.866 0.895508 98 4.02952 98 7.89551V44.0405C98 47.9065 94.866 51.0405 91 51.0405H7.3963C3.53031 51.0405 0.396301 47.9065 0.396301 44.0405V7.89551Z" fill="#172654"/>
<path d="M37.3017 22.1783C37.151 21.8601 36.9127 21.5976 36.6168 21.4006C36.3081 21.2016 35.9437 21.0622 35.5273 20.9795C35.1035 20.8987 34.614 20.8622 34.0469 20.8564L31.4287 20.8584C31.1565 20.8622 30.8899 21.0852 30.8259 21.3621L29.0643 29.4392C29.0004 29.7123 29.1712 29.941 29.4433 29.941H30.6972C30.9693 29.941 31.2387 29.719 31.299 29.4392L31.7291 27.4781C31.7867 27.2051 32.0552 26.9773 32.33 26.9773H32.6889C34.2223 26.9753 35.4095 26.6456 36.2624 25.9852C37.12 25.3238 37.5428 24.4499 37.5428 23.3674C37.5419 22.8935 37.4679 22.4955 37.3017 22.1783ZM34.5976 24.8171C34.2186 25.1094 33.6917 25.2555 33.0122 25.2555H32.7054C32.4323 25.2555 32.2652 25.0286 32.3246 24.7518L32.7017 23.0367C32.7547 22.7618 33.0296 22.534 33.299 22.5359L33.7099 22.533C34.1894 22.533 34.5556 22.6205 34.8003 22.7897C35.0423 22.957 35.1638 23.2232 35.162 23.5761C35.1693 24.1125 34.9748 24.5249 34.5976 24.8171Z" fill="white"/>
<path d="M73.0456 21.4888L72.967 21.5138L72.862 21.5292L72.7333 21.508L72.6675 21.4407L72.6374 21.335L72.6355 21.1764V20.589H73.0547V20.4073H72.6355V20.041H72.4282V20.4073H72.2876V20.589H72.4282V21.2725L72.525 21.6109L72.81 21.7185L72.9296 21.708L73.0565 21.682V21.4888H73.0456Z" fill="white"/>
<path d="M74.9899 20.5009L74.6904 20.3711L74.4694 20.4182L74.2447 20.5778L74.1141 20.4249L73.9022 20.3721L73.6986 20.4192L73.5059 20.5499V20.4076H73.3022V21.691H73.505V20.7326L73.6758 20.621L73.8456 20.5768L73.9844 20.6028L74.0529 20.6768L74.0831 20.7998L74.0931 20.9585V21.692H74.2968V20.871L74.2931 20.8027L74.2894 20.7402L74.463 20.6239L74.6347 20.5787L74.7689 20.6047L74.842 20.6787L74.8675 20.8027L74.8812 20.9594V21.6929H75.0858V20.8595L74.9899 20.5009Z" fill="white"/>
<path d="M43.3481 23.3322C42.8751 23.0515 42.128 22.9111 41.107 22.9111C40.602 22.9111 40.0988 22.9525 39.5902 23.0351C39.2148 23.0957 39.1783 23.1072 38.9472 23.1601C38.4705 23.2697 38.3956 23.7706 38.3956 23.7706L38.2422 24.4348C38.1555 24.8588 38.3874 24.8425 38.4842 24.8069C38.6924 24.7415 38.8084 24.6742 39.234 24.5742C39.6404 24.4771 40.0687 24.4041 40.4084 24.4089C40.9098 24.4089 41.2933 24.4646 41.549 24.5781C41.8011 24.6934 41.9271 24.8915 41.9271 25.178L41.9052 25.3645L41.7244 25.4817C41.013 25.5288 40.4988 25.5981 39.8751 25.6932C39.265 25.7826 38.7299 25.9393 38.2851 26.1537C37.8075 26.3748 37.4532 26.6719 37.2057 27.0497C36.9664 27.4294 36.8468 27.8899 36.8468 28.4301C36.8468 28.9387 37.0203 29.3588 37.3573 29.6837C37.6961 30.0029 38.1436 30.1586 38.6787 30.1586C39.0176 30.1567 39.2797 30.1288 39.466 30.0817L40.0733 29.8616L40.5874 29.5616L41.0605 29.2329L41.0669 29.2425L41.0194 29.454L41.0166 29.4626V29.4645C40.9655 29.7222 41.1134 29.9337 41.3518 29.9587L41.3564 29.9644H41.3783H42.3399H42.5207L42.5372 29.9567C42.7874 29.926 43.0221 29.7145 43.0769 29.4626L43.991 25.2972L44.0385 24.9578L44.0604 24.6396C44.0641 24.0494 43.8221 23.6119 43.3481 23.3322ZM41.3262 28.0158L41.1308 28.2869L40.6376 28.5551C40.4057 28.6541 40.1856 28.7041 39.9819 28.7041C39.6733 28.7041 39.4313 28.657 39.2678 28.5609L39.0258 28.0658C39.0258 27.7976 39.0842 27.5851 39.2093 27.4217L39.7408 27.041C39.9682 26.9603 40.2459 26.892 40.5673 26.8449C40.8541 26.8074 41.4203 26.7392 41.4942 26.7372L41.581 26.8978C41.5637 26.9891 41.4029 27.6967 41.3262 28.0158Z" fill="white"/>
<path d="M66.1223 23.338C65.6466 23.0573 64.9004 22.916 63.8822 22.916C63.3772 22.916 62.8731 22.9574 62.3662 23.0429C61.99 23.1006 61.9525 23.1131 61.7206 23.165C61.2448 23.2736 61.1708 23.7764 61.1708 23.7764L61.0174 24.4397C60.9315 24.8637 61.158 24.8445 61.2639 24.8118C61.4731 24.7464 61.5854 24.682 62.0073 24.5782C62.4119 24.482 62.8438 24.4109 63.1845 24.4128C63.684 24.4128 64.0676 24.4695 64.3224 24.583C64.5762 24.6983 64.7004 24.8983 64.7004 25.1819L64.6813 25.3674L64.5023 25.4876C63.7836 25.5328 63.2685 25.602 62.6511 25.6972C62.0429 25.7866 61.5059 25.9423 61.0603 26.1576C60.5845 26.3797 60.2256 26.6768 59.9808 27.0555C59.7388 27.4352 59.621 27.8948 59.621 28.4302C59.621 28.9426 59.7927 29.3627 60.1343 29.6857C60.4749 30.0039 60.9178 30.1635 61.453 30.1635C61.79 30.1597 62.0521 30.1366 62.2393 30.0856L62.8448 29.8684L63.3635 29.5684L63.8329 29.2358L63.8411 29.2464L63.7982 29.4598L63.7936 29.4637L63.7954 29.4675C63.7388 29.7251 63.8877 29.9386 64.1288 29.9616L64.1306 29.9664H64.1525C64.3105 29.9664 64.8566 29.9664 65.1169 29.9664H65.294L65.3132 29.9597C65.5607 29.928 65.7945 29.7165 65.8465 29.4617L66.7634 25.302L66.8118 24.9608L66.8383 24.6416C66.8392 24.0533 66.6 23.6178 66.1223 23.338ZM64.105 28.0217L63.9014 28.2956L63.4128 28.5619C63.1808 28.66 62.9598 28.7109 62.7598 28.7109C62.4411 28.7109 62.2055 28.6629 62.0466 28.5667L61.8018 28.0736C61.8018 27.8044 61.8612 27.5939 61.9808 27.4276C62.1023 27.2709 62.2877 27.142 62.5178 27.0478C62.7425 26.9671 63.0201 26.9017 63.3434 26.8527C63.6283 26.8152 64.1927 26.745 64.2657 26.744L64.3543 26.9046C64.3415 26.9959 64.1799 27.7006 64.105 28.0217Z" fill="white"/>
<path d="M60.0722 22.2076C59.9151 21.8874 59.6795 21.6288 59.3818 21.427C59.0768 21.227 58.7151 21.0866 58.2923 21.0059C57.8768 20.928 57.3809 20.8857 56.8174 20.8848L54.1955 20.8867C53.9225 20.8915 53.6604 21.1145 53.5974 21.3885L51.8339 29.4695C51.77 29.7435 51.9453 29.9703 52.212 29.9703L53.4677 29.9684C53.7344 29.9703 54.0074 29.7454 54.0704 29.4685L54.4951 27.5064C54.5572 27.2334 54.8266 27.0037 55.0978 27.0056H55.4567C56.9919 27.0056 58.1818 26.673 59.0384 26.0144C59.885 25.3482 60.3133 24.4763 60.3133 23.3929C60.3087 22.9209 60.2311 22.5219 60.0722 22.2076ZM57.3681 24.8503C56.99 25.1367 56.4622 25.2829 55.7864 25.2829H55.4741C55.2047 25.2858 55.0302 25.055 55.0905 24.7801L55.4704 23.068C55.5261 22.794 55.7983 22.5642 56.0695 22.5671L56.4759 22.5642C56.9581 22.5671 57.3197 22.6507 57.5663 22.8199C57.812 22.9891 57.9279 23.2545 57.9307 23.6063C57.9334 24.1427 57.7444 24.5561 57.3681 24.8503Z" fill="white"/>
<path d="M70.8237 21.4541C70.8812 21.1782 70.7168 20.9542 70.4474 20.9581H69.3241C69.094 20.9581 68.8867 21.1378 68.7853 21.3589L68.7232 21.4608L68.6666 21.7223L67.0968 29.2342L67.0456 29.4649L67.0474 29.4707C66.9954 29.7177 67.1397 29.9042 67.3625 29.9398L67.3817 29.9677H68.5479C68.7762 29.9677 68.9908 29.785 69.0885 29.5601L69.1488 29.4639L70.8273 21.4551L70.8237 21.4541Z" fill="white"/>
<path d="M51.8686 23.0118C51.5718 23.0157 50.3654 23.0118 50.3654 23.0118C50.0951 23.0118 49.7481 23.2416 49.5764 23.5156C49.5764 23.5156 47.781 26.7591 47.6066 27.085L47.3983 27.0821L46.8394 23.5377C46.7773 23.2589 46.5006 23.0205 46.1563 23.0205L45.0331 23.0224C44.7628 23.0224 44.5965 23.2493 44.6577 23.5261C44.6577 23.5261 45.5107 28.6356 45.6815 29.8383C45.7609 30.5016 45.6714 30.6198 45.6714 30.6198L44.5609 32.6559C44.3965 32.9328 44.4851 33.1587 44.7545 33.1587L46.0532 33.1568C46.3235 33.1568 46.6787 32.9328 46.8394 32.655L51.8348 23.7607C51.8348 23.7607 52.3152 23.0013 51.8686 23.0118Z" fill="white"/>
</svg>
