<svg width="19" height="19" viewBox="0 0 19 19" fill="none" xmlns="http://www.w3.org/2000/svg">
<path d="M9.5 0C4.26169 0 0 4.26169 0 9.5C0 14.7383 4.26169 19 9.5 19C14.7383 19 19 14.7383 19 9.5C19 4.26166 14.7383 0 9.5 0ZM9.5 17.8125C4.91649 17.8125 1.1875 14.0835 1.1875 9.5C1.1875 4.91649 4.91649 1.1875 9.5 1.1875C14.0835 1.1875 17.8125 4.91645 17.8125 9.5C17.8125 14.0835 14.0835 17.8125 9.5 17.8125ZM14.7696 9.5C14.7696 9.82794 14.5037 10.0938 14.1758 10.0938H10.0938V14.1758C10.0938 14.5037 9.8279 14.7696 9.5 14.7696C9.1721 14.7696 8.90625 14.5037 8.90625 14.1758V10.0938H4.8242C4.4963 10.0938 4.23045 9.82794 4.23045 9.5C4.23045 9.17206 4.4963 8.90625 4.8242 8.90625H8.90625V4.8242C8.90625 4.49626 9.1721 4.23045 9.5 4.23045C9.8279 4.23045 10.0938 4.49626 10.0938 4.8242V8.90625H14.1758C14.5037 8.90625 14.7696 9.1721 14.7696 9.5Z" fill="#0E1C4C"/>
</svg>
