<svg width="142" height="142" viewBox="0 0 142 142" fill="none" xmlns="http://www.w3.org/2000/svg">
<rect width="140.6" height="140.6" transform="translate(0.439453 0.439941)" fill="white"/>
<path d="M7.46987 63.71H2.7832V68.3966H7.46987V63.71Z" fill="black"/>
<path d="M7.46987 82.4565H2.7832V87.1432H7.46987V82.4565Z" fill="black"/>
<path d="M7.46987 87.1431H2.7832V91.8297H7.46987V87.1431Z" fill="black"/>
<path d="M7.46987 96.5166H2.7832V101.203H7.46987V96.5166Z" fill="black"/>
<path d="M12.1574 40.2764H7.4707V44.963H12.1574V40.2764Z" fill="black"/>
<path d="M12.1574 68.3965H7.4707V73.0832H12.1574V68.3965Z" fill="black"/>
<path d="M12.1574 73.083H7.4707V77.7697H12.1574V73.083Z" fill="black"/>
<path d="M12.1574 77.77H7.4707V82.4567H12.1574V77.77Z" fill="black"/>
<path d="M12.1574 82.4565H7.4707V87.1432H12.1574V82.4565Z" fill="black"/>
<path d="M12.1574 87.1431H7.4707V91.8297H12.1574V87.1431Z" fill="black"/>
<path d="M12.1574 91.8301H7.4707V96.5167H12.1574V91.8301Z" fill="black"/>
<path d="M12.1574 96.5166H7.4707V101.203H12.1574V96.5166Z" fill="black"/>
<path d="M16.8429 40.2764H12.1562V44.963H16.8429V40.2764Z" fill="black"/>
<path d="M16.8429 49.6499H12.1562V54.3366H16.8429V49.6499Z" fill="black"/>
<path d="M16.8429 54.3364H12.1562V59.0231H16.8429V54.3364Z" fill="black"/>
<path d="M16.8429 63.71H12.1562V68.3966H16.8429V63.71Z" fill="black"/>
<path d="M16.8429 77.77H12.1562V82.4567H16.8429V77.77Z" fill="black"/>
<path d="M16.8429 87.1431H12.1562V91.8297H16.8429V87.1431Z" fill="black"/>
<path d="M16.8429 96.5166H12.1562V101.203H16.8429V96.5166Z" fill="black"/>
<path d="M21.5304 49.6499H16.8438V54.3366H21.5304V49.6499Z" fill="black"/>
<path d="M21.5304 59.0234H16.8438V63.7101H21.5304V59.0234Z" fill="black"/>
<path d="M21.5304 73.083H16.8438V77.7697H21.5304V73.083Z" fill="black"/>
<path d="M21.5304 77.77H16.8438V82.4567H21.5304V77.77Z" fill="black"/>
<path d="M21.5304 82.4565H16.8438V87.1432H21.5304V82.4565Z" fill="black"/>
<path d="M21.5304 91.8301H16.8438V96.5167H21.5304V91.8301Z" fill="black"/>
<path d="M26.216 49.6499H21.5293V54.3366H26.216V49.6499Z" fill="black"/>
<path d="M26.216 54.3364H21.5293V59.0231H26.216V54.3364Z" fill="black"/>
<path d="M26.216 59.0234H21.5293V63.7101H26.216V59.0234Z" fill="black"/>
<path d="M26.216 63.71H21.5293V68.3966H26.216V63.71Z" fill="black"/>
<path d="M26.216 77.77H21.5293V82.4567H26.216V77.77Z" fill="black"/>
<path d="M26.216 82.4565H21.5293V87.1432H26.216V82.4565Z" fill="black"/>
<path d="M26.216 87.1431H21.5293V91.8297H26.216V87.1431Z" fill="black"/>
<path d="M26.216 91.8301H21.5293V96.5167H26.216V91.8301Z" fill="black"/>
<path d="M26.216 96.5166H21.5293V101.203H26.216V96.5166Z" fill="black"/>
<path d="M30.9035 44.9634H26.2168V49.65H30.9035V44.9634Z" fill="black"/>
<path d="M30.9035 68.3965H26.2168V73.0832H30.9035V68.3965Z" fill="black"/>
<path d="M30.9035 91.8301H26.2168V96.5167H30.9035V91.8301Z" fill="black"/>
<path d="M30.9035 96.5166H26.2168V101.203H30.9035V96.5166Z" fill="black"/>
<path d="M35.589 40.2764H30.9023V44.963H35.589V40.2764Z" fill="black"/>
<path d="M35.589 49.6499H30.9023V54.3366H35.589V49.6499Z" fill="black"/>
<path d="M35.589 59.0234H30.9023V63.7101H35.589V59.0234Z" fill="black"/>
<path d="M35.589 68.3965H30.9023V73.0832H35.589V68.3965Z" fill="black"/>
<path d="M35.589 77.77H30.9023V82.4567H35.589V77.77Z" fill="black"/>
<path d="M35.589 87.1431H30.9023V91.8297H35.589V87.1431Z" fill="black"/>
<path d="M35.589 96.5166H30.9023V101.203H35.589V96.5166Z" fill="black"/>
<path d="M40.2765 44.9634H35.5898V49.65H40.2765V44.9634Z" fill="black"/>
<path d="M40.2765 49.6499H35.5898V54.3366H40.2765V49.6499Z" fill="black"/>
<path d="M40.2765 59.0234H35.5898V63.7101H40.2765V59.0234Z" fill="black"/>
<path d="M40.2765 63.71H35.5898V68.3966H40.2765V63.71Z" fill="black"/>
<path d="M40.2765 68.3965H35.5898V73.0832H40.2765V68.3965Z" fill="black"/>
<path d="M40.2765 73.083H35.5898V77.7697H40.2765V73.083Z" fill="black"/>
<path d="M40.2765 77.77H35.5898V82.4567H40.2765V77.77Z" fill="black"/>
<path d="M40.2765 82.4565H35.5898V87.1432H40.2765V82.4565Z" fill="black"/>
<path d="M40.2765 87.1431H35.5898V91.8297H40.2765V87.1431Z" fill="black"/>
<path d="M44.964 7.46973H40.2773V12.1564H44.964V7.46973Z" fill="black"/>
<path d="M44.964 12.1567H40.2773V16.8434H44.964V12.1567Z" fill="black"/>
<path d="M44.964 16.8433H40.2773V21.5299H44.964V16.8433Z" fill="black"/>
<path d="M44.964 26.2163H40.2773V30.903H44.964V26.2163Z" fill="black"/>
<path d="M44.964 30.9033H40.2773V35.59H44.964V30.9033Z" fill="black"/>
<path d="M44.964 44.9634H40.2773V49.65H44.964V44.9634Z" fill="black"/>
<path d="M44.964 49.6499H40.2773V54.3366H44.964V49.6499Z" fill="black"/>
<path d="M44.964 68.3965H40.2773V73.0832H44.964V68.3965Z" fill="black"/>
<path d="M44.964 91.8301H40.2773V96.5167H44.964V91.8301Z" fill="black"/>
<path d="M44.964 124.637H40.2773V129.323H44.964V124.637Z" fill="black"/>
<path d="M44.964 129.323H40.2773V134.01H44.964V129.323Z" fill="black"/>
<path d="M49.6496 12.1567H44.9629V16.8434H49.6496V12.1567Z" fill="black"/>
<path d="M49.6496 16.8433H44.9629V21.5299H49.6496V16.8433Z" fill="black"/>
<path d="M49.6496 21.5298H44.9629V26.2165H49.6496V21.5298Z" fill="black"/>
<path d="M49.6496 26.2163H44.9629V30.903H49.6496V26.2163Z" fill="black"/>
<path d="M49.6496 59.0234H44.9629V63.7101H49.6496V59.0234Z" fill="black"/>
<path d="M49.6496 77.77H44.9629V82.4567H49.6496V77.77Z" fill="black"/>
<path d="M49.6496 101.203H44.9629V105.89H49.6496V101.203Z" fill="black"/>
<path d="M49.6496 105.89H44.9629V110.576H49.6496V105.89Z" fill="black"/>
<path d="M49.6496 110.577H44.9629V115.263H49.6496V110.577Z" fill="black"/>
<path d="M49.6496 115.263H44.9629V119.95H49.6496V115.263Z" fill="black"/>
<path d="M49.6496 119.95H44.9629V124.636H49.6496V119.95Z" fill="black"/>
<path d="M49.6496 124.637H44.9629V129.323H49.6496V124.637Z" fill="black"/>
<path d="M49.6496 134.01H44.9629V138.696H49.6496V134.01Z" fill="black"/>
<path d="M54.3371 2.7832H49.6504V7.46987H54.3371V2.7832Z" fill="black"/>
<path d="M54.3371 7.46973H49.6504V12.1564H54.3371V7.46973Z" fill="black"/>
<path d="M54.3371 12.1567H49.6504V16.8434H54.3371V12.1567Z" fill="black"/>
<path d="M54.3371 16.8433H49.6504V21.5299H54.3371V16.8433Z" fill="black"/>
<path d="M54.3371 30.9033H49.6504V35.59H54.3371V30.9033Z" fill="black"/>
<path d="M54.3371 35.5898H49.6504V40.2765H54.3371V35.5898Z" fill="black"/>
<path d="M54.3371 40.2764H49.6504V44.963H54.3371V40.2764Z" fill="black"/>
<path d="M54.3371 49.6499H49.6504V54.3366H54.3371V49.6499Z" fill="black"/>
<path d="M54.3371 59.0234H49.6504V63.7101H54.3371V59.0234Z" fill="black"/>
<path d="M54.3371 63.71H49.6504V68.3966H54.3371V63.71Z" fill="black"/>
<path d="M54.3371 73.083H49.6504V77.7697H54.3371V73.083Z" fill="black"/>
<path d="M54.3371 82.4565H49.6504V87.1432H54.3371V82.4565Z" fill="black"/>
<path d="M54.3371 105.89H49.6504V110.576H54.3371V105.89Z" fill="black"/>
<path d="M54.3371 110.577H49.6504V115.263H54.3371V110.577Z" fill="black"/>
<path d="M54.3371 119.95H49.6504V124.636H54.3371V119.95Z" fill="black"/>
<path d="M54.3371 129.323H49.6504V134.01H54.3371V129.323Z" fill="black"/>
<path d="M59.0226 21.5298H54.3359V26.2165H59.0226V21.5298Z" fill="black"/>
<path d="M59.0226 77.77H54.3359V82.4567H59.0226V77.77Z" fill="black"/>
<path d="M59.0226 87.1431H54.3359V91.8297H59.0226V87.1431Z" fill="black"/>
<path d="M59.0226 91.8301H54.3359V96.5167H59.0226V91.8301Z" fill="black"/>
<path d="M59.0226 96.5166H54.3359V101.203H59.0226V96.5166Z" fill="black"/>
<path d="M59.0226 119.95H54.3359V124.636H59.0226V119.95Z" fill="black"/>
<path d="M59.0226 134.01H54.3359V138.696H59.0226V134.01Z" fill="black"/>
<path d="M63.7101 7.46973H59.0234V12.1564H63.7101V7.46973Z" fill="black"/>
<path d="M63.7101 16.8433H59.0234V21.5299H63.7101V16.8433Z" fill="black"/>
<path d="M63.7101 21.5298H59.0234V26.2165H63.7101V21.5298Z" fill="black"/>
<path d="M63.7101 30.9033H59.0234V35.59H63.7101V30.9033Z" fill="black"/>
<path d="M63.7101 44.9634H59.0234V49.65H63.7101V44.9634Z" fill="black"/>
<path d="M63.7101 54.3364H59.0234V59.0231H63.7101V54.3364Z" fill="black"/>
<path d="M63.7101 77.77H59.0234V82.4567H63.7101V77.77Z" fill="black"/>
<path d="M63.7101 82.4565H59.0234V87.1432H63.7101V82.4565Z" fill="black"/>
<path d="M63.7101 101.203H59.0234V105.89H63.7101V101.203Z" fill="black"/>
<path d="M63.7101 110.577H59.0234V115.263H63.7101V110.577Z" fill="black"/>
<path d="M63.7101 119.95H59.0234V124.636H63.7101V119.95Z" fill="black"/>
<path d="M63.7101 124.637H59.0234V129.323H63.7101V124.637Z" fill="black"/>
<path d="M63.7101 129.323H59.0234V134.01H63.7101V129.323Z" fill="black"/>
<path d="M63.7101 134.01H59.0234V138.696H63.7101V134.01Z" fill="black"/>
<path d="M68.3957 40.2764H63.709V44.963H68.3957V40.2764Z" fill="black"/>
<path d="M68.3957 54.3364H63.709V59.0231H68.3957V54.3364Z" fill="black"/>
<path d="M68.3957 59.0234H63.709V63.7101H68.3957V59.0234Z" fill="black"/>
<path d="M68.3957 63.71H63.709V68.3966H68.3957V63.71Z" fill="black"/>
<path d="M68.3957 77.77H63.709V82.4567H68.3957V77.77Z" fill="black"/>
<path d="M68.3957 87.1431H63.709V91.8297H68.3957V87.1431Z" fill="black"/>
<path d="M68.3957 91.8301H63.709V96.5167H68.3957V91.8301Z" fill="black"/>
<path d="M68.3957 105.89H63.709V110.576H68.3957V105.89Z" fill="black"/>
<path d="M68.3957 110.577H63.709V115.263H68.3957V110.577Z" fill="black"/>
<path d="M68.3957 119.95H63.709V124.636H68.3957V119.95Z" fill="black"/>
<path d="M68.3957 124.637H63.709V129.323H68.3957V124.637Z" fill="black"/>
<path d="M68.3957 134.01H63.709V138.696H68.3957V134.01Z" fill="black"/>
<path d="M73.0832 12.1567H68.3965V16.8434H73.0832V12.1567Z" fill="black"/>
<path d="M73.0832 16.8433H68.3965V21.5299H73.0832V16.8433Z" fill="black"/>
<path d="M73.0832 30.9033H68.3965V35.59H73.0832V30.9033Z" fill="black"/>
<path d="M73.0832 40.2764H68.3965V44.963H73.0832V40.2764Z" fill="black"/>
<path d="M73.0832 49.6499H68.3965V54.3366H73.0832V49.6499Z" fill="black"/>
<path d="M73.0832 54.3364H68.3965V59.0231H73.0832V54.3364Z" fill="black"/>
<path d="M73.0832 77.77H68.3965V82.4567H73.0832V77.77Z" fill="black"/>
<path d="M73.0832 82.4565H68.3965V87.1432H73.0832V82.4565Z" fill="black"/>
<path d="M73.0832 87.1431H68.3965V91.8297H73.0832V87.1431Z" fill="black"/>
<path d="M73.0832 91.8301H68.3965V96.5167H73.0832V91.8301Z" fill="black"/>
<path d="M73.0832 96.5166H68.3965V101.203H73.0832V96.5166Z" fill="black"/>
<path d="M73.0832 105.89H68.3965V110.576H73.0832V105.89Z" fill="black"/>
<path d="M73.0832 110.577H68.3965V115.263H73.0832V110.577Z" fill="black"/>
<path d="M73.0832 115.263H68.3965V119.95H73.0832V115.263Z" fill="black"/>
<path d="M73.0832 119.95H68.3965V124.636H73.0832V119.95Z" fill="black"/>
<path d="M73.0832 134.01H68.3965V138.696H73.0832V134.01Z" fill="black"/>
<path d="M77.7707 21.5298H73.084V26.2165H77.7707V21.5298Z" fill="black"/>
<path d="M77.7707 35.5898H73.084V40.2765H77.7707V35.5898Z" fill="black"/>
<path d="M77.7707 40.2764H73.084V44.963H77.7707V40.2764Z" fill="black"/>
<path d="M77.7707 44.9634H73.084V49.65H77.7707V44.9634Z" fill="black"/>
<path d="M77.7707 49.6499H73.084V54.3366H77.7707V49.6499Z" fill="black"/>
<path d="M77.7707 59.0234H73.084V63.7101H77.7707V59.0234Z" fill="black"/>
<path d="M77.7707 63.71H73.084V68.3966H77.7707V63.71Z" fill="black"/>
<path d="M77.7707 68.3965H73.084V73.0832H77.7707V68.3965Z" fill="black"/>
<path d="M77.7707 82.4565H73.084V87.1432H77.7707V82.4565Z" fill="black"/>
<path d="M77.7707 87.1431H73.084V91.8297H77.7707V87.1431Z" fill="black"/>
<path d="M77.7707 96.5166H73.084V101.203H77.7707V96.5166Z" fill="black"/>
<path d="M77.7707 115.263H73.084V119.95H77.7707V115.263Z" fill="black"/>
<path d="M77.7707 119.95H73.084V124.636H77.7707V119.95Z" fill="black"/>
<path d="M82.4562 7.46973H77.7695V12.1564H82.4562V7.46973Z" fill="black"/>
<path d="M82.4562 12.1567H77.7695V16.8434H82.4562V12.1567Z" fill="black"/>
<path d="M82.4562 21.5298H77.7695V26.2165H82.4562V21.5298Z" fill="black"/>
<path d="M82.4562 26.2163H77.7695V30.903H82.4562V26.2163Z" fill="black"/>
<path d="M82.4562 30.9033H77.7695V35.59H82.4562V30.9033Z" fill="black"/>
<path d="M82.4562 35.5898H77.7695V40.2765H82.4562V35.5898Z" fill="black"/>
<path d="M82.4562 40.2764H77.7695V44.963H82.4562V40.2764Z" fill="black"/>
<path d="M82.4562 44.9634H77.7695V49.65H82.4562V44.9634Z" fill="black"/>
<path d="M82.4562 68.3965H77.7695V73.0832H82.4562V68.3965Z" fill="black"/>
<path d="M82.4562 73.083H77.7695V77.7697H82.4562V73.083Z" fill="black"/>
<path d="M82.4562 77.77H77.7695V82.4567H82.4562V77.77Z" fill="black"/>
<path d="M82.4562 82.4565H77.7695V87.1432H82.4562V82.4565Z" fill="black"/>
<path d="M82.4562 87.1431H77.7695V91.8297H82.4562V87.1431Z" fill="black"/>
<path d="M82.4562 91.8301H77.7695V96.5167H82.4562V91.8301Z" fill="black"/>
<path d="M82.4562 101.203H77.7695V105.89H82.4562V101.203Z" fill="black"/>
<path d="M82.4562 119.95H77.7695V124.636H82.4562V119.95Z" fill="black"/>
<path d="M82.4562 129.323H77.7695V134.01H82.4562V129.323Z" fill="black"/>
<path d="M82.4562 134.01H77.7695V138.696H82.4562V134.01Z" fill="black"/>
<path d="M87.1437 12.1567H82.457V16.8434H87.1437V12.1567Z" fill="black"/>
<path d="M87.1437 26.2163H82.457V30.903H87.1437V26.2163Z" fill="black"/>
<path d="M87.1437 35.5898H82.457V40.2765H87.1437V35.5898Z" fill="black"/>
<path d="M87.1437 49.6499H82.457V54.3366H87.1437V49.6499Z" fill="black"/>
<path d="M87.1437 54.3364H82.457V59.0231H87.1437V54.3364Z" fill="black"/>
<path d="M87.1437 59.0234H82.457V63.7101H87.1437V59.0234Z" fill="black"/>
<path d="M87.1437 63.71H82.457V68.3966H87.1437V63.71Z" fill="black"/>
<path d="M87.1437 68.3965H82.457V73.0832H87.1437V68.3965Z" fill="black"/>
<path d="M87.1437 77.77H82.457V82.4567H87.1437V77.77Z" fill="black"/>
<path d="M87.1437 96.5166H82.457V101.203H87.1437V96.5166Z" fill="black"/>
<path d="M87.1437 110.577H82.457V115.263H87.1437V110.577Z" fill="black"/>
<path d="M91.8292 2.7832H87.1426V7.46987H91.8292V2.7832Z" fill="black"/>
<path d="M91.8292 12.1567H87.1426V16.8434H91.8292V12.1567Z" fill="black"/>
<path d="M91.8292 16.8433H87.1426V21.5299H91.8292V16.8433Z" fill="black"/>
<path d="M91.8292 30.9033H87.1426V35.59H91.8292V30.9033Z" fill="black"/>
<path d="M91.8292 35.5898H87.1426V40.2765H91.8292V35.5898Z" fill="black"/>
<path d="M91.8292 49.6499H87.1426V54.3366H91.8292V49.6499Z" fill="black"/>
<path d="M91.8292 59.0234H87.1426V63.7101H91.8292V59.0234Z" fill="black"/>
<path d="M91.8292 63.71H87.1426V68.3966H91.8292V63.71Z" fill="black"/>
<path d="M91.8292 73.083H87.1426V77.7697H91.8292V73.083Z" fill="black"/>
<path d="M91.8292 77.77H87.1426V82.4567H91.8292V77.77Z" fill="black"/>
<path d="M91.8292 82.4565H87.1426V87.1432H91.8292V82.4565Z" fill="black"/>
<path d="M91.8292 87.1431H87.1426V91.8297H91.8292V87.1431Z" fill="black"/>
<path d="M91.8292 105.89H87.1426V110.576H91.8292V105.89Z" fill="black"/>
<path d="M91.8292 110.577H87.1426V115.263H91.8292V110.577Z" fill="black"/>
<path d="M91.8292 124.637H87.1426V129.323H91.8292V124.637Z" fill="black"/>
<path d="M96.5167 12.1567H91.8301V16.8434H96.5167V12.1567Z" fill="black"/>
<path d="M96.5167 16.8433H91.8301V21.5299H96.5167V16.8433Z" fill="black"/>
<path d="M96.5167 35.5898H91.8301V40.2765H96.5167V35.5898Z" fill="black"/>
<path d="M96.5167 44.9634H91.8301V49.65H96.5167V44.9634Z" fill="black"/>
<path d="M96.5167 49.6499H91.8301V54.3366H96.5167V49.6499Z" fill="black"/>
<path d="M96.5167 54.3364H91.8301V59.0231H96.5167V54.3364Z" fill="black"/>
<path d="M96.5167 59.0234H91.8301V63.7101H96.5167V59.0234Z" fill="black"/>
<path d="M96.5167 63.71H91.8301V68.3966H96.5167V63.71Z" fill="black"/>
<path d="M96.5167 68.3965H91.8301V73.0832H96.5167V68.3965Z" fill="black"/>
<path d="M96.5167 82.4565H91.8301V87.1432H96.5167V82.4565Z" fill="black"/>
<path d="M96.5167 101.203H91.8301V105.89H96.5167V101.203Z" fill="black"/>
<path d="M96.5167 105.89H91.8301V110.576H96.5167V105.89Z" fill="black"/>
<path d="M96.5167 110.577H91.8301V115.263H96.5167V110.577Z" fill="black"/>
<path d="M96.5167 119.95H91.8301V124.636H96.5167V119.95Z" fill="black"/>
<path d="M96.5167 124.637H91.8301V129.323H96.5167V124.637Z" fill="black"/>
<path d="M96.5167 134.01H91.8301V138.696H96.5167V134.01Z" fill="black"/>
<path d="M101.202 7.46973H96.5156V12.1564H101.202V7.46973Z" fill="black"/>
<path d="M101.202 26.2163H96.5156V30.903H101.202V26.2163Z" fill="black"/>
<path d="M101.202 30.9033H96.5156V35.59H101.202V30.9033Z" fill="black"/>
<path d="M101.202 35.5898H96.5156V40.2765H101.202V35.5898Z" fill="black"/>
<path d="M101.202 40.2764H96.5156V44.963H101.202V40.2764Z" fill="black"/>
<path d="M101.202 63.71H96.5156V68.3966H101.202V63.71Z" fill="black"/>
<path d="M101.202 68.3965H96.5156V73.0832H101.202V68.3965Z" fill="black"/>
<path d="M101.202 77.77H96.5156V82.4567H101.202V77.77Z" fill="black"/>
<path d="M101.202 82.4565H96.5156V87.1432H101.202V82.4565Z" fill="black"/>
<path d="M101.202 96.5166H96.5156V101.203H101.202V96.5166Z" fill="black"/>
<path d="M101.202 101.203H96.5156V105.89H101.202V101.203Z" fill="black"/>
<path d="M101.202 105.89H96.5156V110.576H101.202V105.89Z" fill="black"/>
<path d="M101.202 110.577H96.5156V115.263H101.202V110.577Z" fill="black"/>
<path d="M101.202 115.263H96.5156V119.95H101.202V115.263Z" fill="black"/>
<path d="M101.202 124.637H96.5156V129.323H101.202V124.637Z" fill="black"/>
<path d="M105.89 40.2764H101.203V44.963H105.89V40.2764Z" fill="black"/>
<path d="M105.89 49.6499H101.203V54.3366H105.89V49.6499Z" fill="black"/>
<path d="M105.89 59.0234H101.203V63.7101H105.89V59.0234Z" fill="black"/>
<path d="M105.89 77.77H101.203V82.4567H105.89V77.77Z" fill="black"/>
<path d="M105.89 87.1431H101.203V91.8297H105.89V87.1431Z" fill="black"/>
<path d="M105.89 96.5166H101.203V101.203H105.89V96.5166Z" fill="black"/>
<path d="M105.89 115.263H101.203V119.95H105.89V115.263Z" fill="black"/>
<path d="M105.89 119.95H101.203V124.636H105.89V119.95Z" fill="black"/>
<path d="M105.89 129.323H101.203V134.01H105.89V129.323Z" fill="black"/>
<path d="M105.89 134.01H101.203V138.696H105.89V134.01Z" fill="black"/>
<path d="M110.577 54.3364H105.891V59.0231H110.577V54.3364Z" fill="black"/>
<path d="M110.577 59.0234H105.891V63.7101H110.577V59.0234Z" fill="black"/>
<path d="M110.577 63.71H105.891V68.3966H110.577V63.71Z" fill="black"/>
<path d="M110.577 68.3965H105.891V73.0832H110.577V68.3965Z" fill="black"/>
<path d="M110.577 77.77H105.891V82.4567H110.577V77.77Z" fill="black"/>
<path d="M110.577 82.4565H105.891V87.1432H110.577V82.4565Z" fill="black"/>
<path d="M110.577 91.8301H105.891V96.5167H110.577V91.8301Z" fill="black"/>
<path d="M110.577 96.5166H105.891V101.203H110.577V96.5166Z" fill="black"/>
<path d="M110.577 105.89H105.891V110.576H110.577V105.89Z" fill="black"/>
<path d="M110.577 115.263H105.891V119.95H110.577V115.263Z" fill="black"/>
<path d="M110.577 124.637H105.891V129.323H110.577V124.637Z" fill="black"/>
<path d="M110.577 129.323H105.891V134.01H110.577V129.323Z" fill="black"/>
<path d="M115.263 40.2764H110.576V44.963H115.263V40.2764Z" fill="black"/>
<path d="M115.263 44.9634H110.576V49.65H115.263V44.9634Z" fill="black"/>
<path d="M115.263 59.0234H110.576V63.7101H115.263V59.0234Z" fill="black"/>
<path d="M115.263 73.083H110.576V77.7697H115.263V73.083Z" fill="black"/>
<path d="M115.263 77.77H110.576V82.4567H115.263V77.77Z" fill="black"/>
<path d="M115.263 87.1431H110.576V91.8297H115.263V87.1431Z" fill="black"/>
<path d="M115.263 96.5166H110.576V101.203H115.263V96.5166Z" fill="black"/>
<path d="M115.263 115.263H110.576V119.95H115.263V115.263Z" fill="black"/>
<path d="M115.263 129.323H110.576V134.01H115.263V129.323Z" fill="black"/>
<path d="M119.95 44.9634H115.264V49.65H119.95V44.9634Z" fill="black"/>
<path d="M119.95 49.6499H115.264V54.3366H119.95V49.6499Z" fill="black"/>
<path d="M119.95 54.3364H115.264V59.0231H119.95V54.3364Z" fill="black"/>
<path d="M119.95 59.0234H115.264V63.7101H119.95V59.0234Z" fill="black"/>
<path d="M119.95 68.3965H115.264V73.0832H119.95V68.3965Z" fill="black"/>
<path d="M119.95 73.083H115.264V77.7697H119.95V73.083Z" fill="black"/>
<path d="M119.95 87.1431H115.264V91.8297H119.95V87.1431Z" fill="black"/>
<path d="M119.95 96.5166H115.264V101.203H119.95V96.5166Z" fill="black"/>
<path d="M119.95 101.203H115.264V105.89H119.95V101.203Z" fill="black"/>
<path d="M119.95 105.89H115.264V110.576H119.95V105.89Z" fill="black"/>
<path d="M119.95 110.577H115.264V115.263H119.95V110.577Z" fill="black"/>
<path d="M119.95 115.263H115.264V119.95H119.95V115.263Z" fill="black"/>
<path d="M119.95 119.95H115.264V124.636H119.95V119.95Z" fill="black"/>
<path d="M119.95 124.637H115.264V129.323H119.95V124.637Z" fill="black"/>
<path d="M119.95 134.01H115.264V138.696H119.95V134.01Z" fill="black"/>
<path d="M124.636 40.2764H119.949V44.963H124.636V40.2764Z" fill="black"/>
<path d="M124.636 54.3364H119.949V59.0231H124.636V54.3364Z" fill="black"/>
<path d="M124.636 77.77H119.949V82.4567H124.636V77.77Z" fill="black"/>
<path d="M124.636 87.1431H119.949V91.8297H124.636V87.1431Z" fill="black"/>
<path d="M124.636 91.8301H119.949V96.5167H124.636V91.8301Z" fill="black"/>
<path d="M124.636 115.263H119.949V119.95H124.636V115.263Z" fill="black"/>
<path d="M124.636 119.95H119.949V124.636H124.636V119.95Z" fill="black"/>
<path d="M124.636 124.637H119.949V129.323H124.636V124.637Z" fill="black"/>
<path d="M124.636 129.323H119.949V134.01H124.636V129.323Z" fill="black"/>
<path d="M129.323 40.2764H124.637V44.963H129.323V40.2764Z" fill="black"/>
<path d="M129.323 44.9634H124.637V49.65H129.323V44.9634Z" fill="black"/>
<path d="M129.323 49.6499H124.637V54.3366H129.323V49.6499Z" fill="black"/>
<path d="M129.323 54.3364H124.637V59.0231H129.323V54.3364Z" fill="black"/>
<path d="M129.323 68.3965H124.637V73.0832H129.323V68.3965Z" fill="black"/>
<path d="M129.323 73.083H124.637V77.7697H129.323V73.083Z" fill="black"/>
<path d="M129.323 77.77H124.637V82.4567H129.323V77.77Z" fill="black"/>
<path d="M129.323 82.4565H124.637V87.1432H129.323V82.4565Z" fill="black"/>
<path d="M129.323 87.1431H124.637V91.8297H129.323V87.1431Z" fill="black"/>
<path d="M129.323 96.5166H124.637V101.203H129.323V96.5166Z" fill="black"/>
<path d="M129.323 110.577H124.637V115.263H129.323V110.577Z" fill="black"/>
<path d="M129.323 134.01H124.637V138.696H129.323V134.01Z" fill="black"/>
<path d="M134.009 40.2764H129.322V44.963H134.009V40.2764Z" fill="black"/>
<path d="M134.009 44.9634H129.322V49.65H134.009V44.9634Z" fill="black"/>
<path d="M134.009 49.6499H129.322V54.3366H134.009V49.6499Z" fill="black"/>
<path d="M134.009 59.0234H129.322V63.7101H134.009V59.0234Z" fill="black"/>
<path d="M134.009 68.3965H129.322V73.0832H134.009V68.3965Z" fill="black"/>
<path d="M134.009 77.77H129.322V82.4567H134.009V77.77Z" fill="black"/>
<path d="M134.009 87.1431H129.322V91.8297H134.009V87.1431Z" fill="black"/>
<path d="M134.009 96.5166H129.322V101.203H134.009V96.5166Z" fill="black"/>
<path d="M134.009 101.203H129.322V105.89H134.009V101.203Z" fill="black"/>
<path d="M134.009 115.263H129.322V119.95H134.009V115.263Z" fill="black"/>
<path d="M134.009 119.95H129.322V124.636H134.009V119.95Z" fill="black"/>
<path d="M134.009 129.323H129.322V134.01H134.009V129.323Z" fill="black"/>
<path d="M138.696 44.9634H134.01V49.65H138.696V44.9634Z" fill="black"/>
<path d="M138.696 49.6499H134.01V54.3366H138.696V49.6499Z" fill="black"/>
<path d="M138.696 54.3364H134.01V59.0231H138.696V54.3364Z" fill="black"/>
<path d="M138.696 59.0234H134.01V63.7101H138.696V59.0234Z" fill="black"/>
<path d="M138.696 73.083H134.01V77.7697H138.696V73.083Z" fill="black"/>
<path d="M138.696 87.1431H134.01V91.8297H138.696V87.1431Z" fill="black"/>
<path d="M138.696 91.8301H134.01V96.5167H138.696V91.8301Z" fill="black"/>
<path d="M138.696 96.5166H134.01V101.203H138.696V96.5166Z" fill="black"/>
<path d="M138.696 101.203H134.01V105.89H138.696V101.203Z" fill="black"/>
<path d="M138.696 105.89H134.01V110.576H138.696V105.89Z" fill="black"/>
<path d="M138.696 110.577H134.01V115.263H138.696V110.577Z" fill="black"/>
<path d="M138.696 119.95H134.01V124.636H138.696V119.95Z" fill="black"/>
<path d="M138.696 129.323H134.01V134.01H138.696V129.323Z" fill="black"/>
<path d="M7.46987 2.7832H2.7832V7.46987H7.46987V2.7832Z" fill="black"/>
<path d="M7.46987 7.46973H2.7832V12.1564H7.46987V7.46973Z" fill="black"/>
<path d="M7.46987 12.1567H2.7832V16.8434H7.46987V12.1567Z" fill="black"/>
<path d="M7.46987 16.8433H2.7832V21.5299H7.46987V16.8433Z" fill="black"/>
<path d="M7.46987 21.5298H2.7832V26.2165H7.46987V21.5298Z" fill="black"/>
<path d="M7.46987 26.2163H2.7832V30.903H7.46987V26.2163Z" fill="black"/>
<path d="M7.46987 30.9033H2.7832V35.59H7.46987V30.9033Z" fill="black"/>
<path d="M12.1574 2.7832H7.4707V7.46987H12.1574V2.7832Z" fill="black"/>
<path d="M12.1574 30.9033H7.4707V35.59H12.1574V30.9033Z" fill="black"/>
<path d="M16.8429 2.7832H12.1562V7.46987H16.8429V2.7832Z" fill="black"/>
<path d="M16.8429 30.9033H12.1562V35.59H16.8429V30.9033Z" fill="black"/>
<path d="M21.5304 2.7832H16.8438V7.46987H21.5304V2.7832Z" fill="black"/>
<path d="M21.5304 30.9033H16.8438V35.59H21.5304V30.9033Z" fill="black"/>
<path d="M26.216 2.7832H21.5293V7.46987H26.216V2.7832Z" fill="black"/>
<path d="M26.216 30.9033H21.5293V35.59H26.216V30.9033Z" fill="black"/>
<path d="M30.9035 2.7832H26.2168V7.46987H30.9035V2.7832Z" fill="black"/>
<path d="M30.9035 30.9033H26.2168V35.59H30.9035V30.9033Z" fill="black"/>
<path d="M35.589 2.7832H30.9023V7.46987H35.589V2.7832Z" fill="black"/>
<path d="M35.589 7.46973H30.9023V12.1564H35.589V7.46973Z" fill="black"/>
<path d="M35.589 12.1567H30.9023V16.8434H35.589V12.1567Z" fill="black"/>
<path d="M35.589 16.8433H30.9023V21.5299H35.589V16.8433Z" fill="black"/>
<path d="M35.589 21.5298H30.9023V26.2165H35.589V21.5298Z" fill="black"/>
<path d="M35.589 26.2163H30.9023V30.903H35.589V26.2163Z" fill="black"/>
<path d="M35.589 30.9033H30.9023V35.59H35.589V30.9033Z" fill="black"/>
<path d="M16.8429 12.1567H12.1562V16.8434H16.8429V12.1567Z" fill="black"/>
<path d="M16.8429 16.8433H12.1562V21.5299H16.8429V16.8433Z" fill="black"/>
<path d="M16.8429 21.5303H12.1562V26.2169H16.8429V21.5303Z" fill="black"/>
<path d="M21.5304 12.1567H16.8438V16.8434H21.5304V12.1567Z" fill="black"/>
<path d="M21.5304 16.8433H16.8438V21.5299H21.5304V16.8433Z" fill="black"/>
<path d="M21.5304 21.5303H16.8438V26.2169H21.5304V21.5303Z" fill="black"/>
<path d="M26.216 12.1567H21.5293V16.8434H26.216V12.1567Z" fill="black"/>
<path d="M26.216 16.8433H21.5293V21.5299H26.216V16.8433Z" fill="black"/>
<path d="M26.216 21.5303H21.5293V26.2169H26.216V21.5303Z" fill="black"/>
<path d="M110.575 2.7832H105.889V7.46987H110.575V2.7832Z" fill="black"/>
<path d="M110.575 7.46973H105.889V12.1564H110.575V7.46973Z" fill="black"/>
<path d="M110.575 12.1567H105.889V16.8434H110.575V12.1567Z" fill="black"/>
<path d="M110.575 16.8433H105.889V21.5299H110.575V16.8433Z" fill="black"/>
<path d="M110.575 21.5298H105.889V26.2165H110.575V21.5298Z" fill="black"/>
<path d="M110.575 26.2163H105.889V30.903H110.575V26.2163Z" fill="black"/>
<path d="M110.575 30.9033H105.889V35.59H110.575V30.9033Z" fill="black"/>
<path d="M115.263 2.7832H110.576V7.46987H115.263V2.7832Z" fill="black"/>
<path d="M115.263 30.9033H110.576V35.59H115.263V30.9033Z" fill="black"/>
<path d="M119.948 2.7832H115.262V7.46987H119.948V2.7832Z" fill="black"/>
<path d="M119.948 30.9033H115.262V35.59H119.948V30.9033Z" fill="black"/>
<path d="M124.636 2.7832H119.949V7.46987H124.636V2.7832Z" fill="black"/>
<path d="M124.636 30.9033H119.949V35.59H124.636V30.9033Z" fill="black"/>
<path d="M129.321 2.7832H124.635V7.46987H129.321V2.7832Z" fill="black"/>
<path d="M129.321 30.9033H124.635V35.59H129.321V30.9033Z" fill="black"/>
<path d="M134.009 2.7832H129.322V7.46987H134.009V2.7832Z" fill="black"/>
<path d="M134.009 30.9033H129.322V35.59H134.009V30.9033Z" fill="black"/>
<path d="M138.694 2.7832H134.008V7.46987H138.694V2.7832Z" fill="black"/>
<path d="M138.694 7.46973H134.008V12.1564H138.694V7.46973Z" fill="black"/>
<path d="M138.694 12.1567H134.008V16.8434H138.694V12.1567Z" fill="black"/>
<path d="M138.694 16.8433H134.008V21.5299H138.694V16.8433Z" fill="black"/>
<path d="M138.694 21.5298H134.008V26.2165H138.694V21.5298Z" fill="black"/>
<path d="M138.694 26.2163H134.008V30.903H138.694V26.2163Z" fill="black"/>
<path d="M138.694 30.9033H134.008V35.59H138.694V30.9033Z" fill="black"/>
<path d="M119.95 12.1567H115.264V16.8434H119.95V12.1567Z" fill="black"/>
<path d="M119.95 16.8433H115.264V21.5299H119.95V16.8433Z" fill="black"/>
<path d="M119.95 21.5303H115.264V26.2169H119.95V21.5303Z" fill="black"/>
<path d="M124.638 12.1567H119.951V16.8434H124.638V12.1567Z" fill="black"/>
<path d="M124.638 16.8433H119.951V21.5299H124.638V16.8433Z" fill="black"/>
<path d="M124.638 21.5303H119.951V26.2169H124.638V21.5303Z" fill="black"/>
<path d="M129.323 12.1567H124.637V16.8434H129.323V12.1567Z" fill="black"/>
<path d="M129.323 16.8433H124.637V21.5299H129.323V16.8433Z" fill="black"/>
<path d="M129.323 21.5303H124.637V26.2169H129.323V21.5303Z" fill="black"/>
<path d="M7.46987 105.89H2.7832V110.577H7.46987V105.89Z" fill="black"/>
<path d="M7.46987 110.577H2.7832V115.263H7.46987V110.577Z" fill="black"/>
<path d="M7.46987 115.264H2.7832V119.95H7.46987V115.264Z" fill="black"/>
<path d="M7.46987 119.95H2.7832V124.637H7.46987V119.95Z" fill="black"/>
<path d="M7.46987 124.637H2.7832V129.323H7.46987V124.637Z" fill="black"/>
<path d="M7.46987 129.323H2.7832V134.01H7.46987V129.323Z" fill="black"/>
<path d="M7.46987 134.01H2.7832V138.697H7.46987V134.01Z" fill="black"/>
<path d="M12.1574 105.89H7.4707V110.577H12.1574V105.89Z" fill="black"/>
<path d="M12.1574 134.01H7.4707V138.697H12.1574V134.01Z" fill="black"/>
<path d="M16.8429 105.89H12.1562V110.577H16.8429V105.89Z" fill="black"/>
<path d="M16.8429 134.01H12.1562V138.697H16.8429V134.01Z" fill="black"/>
<path d="M21.5304 105.89H16.8438V110.577H21.5304V105.89Z" fill="black"/>
<path d="M21.5304 134.01H16.8438V138.697H21.5304V134.01Z" fill="black"/>
<path d="M26.216 105.89H21.5293V110.577H26.216V105.89Z" fill="black"/>
<path d="M26.216 134.01H21.5293V138.697H26.216V134.01Z" fill="black"/>
<path d="M30.9035 105.89H26.2168V110.577H30.9035V105.89Z" fill="black"/>
<path d="M30.9035 134.01H26.2168V138.697H30.9035V134.01Z" fill="black"/>
<path d="M35.589 105.89H30.9023V110.577H35.589V105.89Z" fill="black"/>
<path d="M35.589 110.577H30.9023V115.263H35.589V110.577Z" fill="black"/>
<path d="M35.589 115.264H30.9023V119.95H35.589V115.264Z" fill="black"/>
<path d="M35.589 119.95H30.9023V124.637H35.589V119.95Z" fill="black"/>
<path d="M35.589 124.637H30.9023V129.323H35.589V124.637Z" fill="black"/>
<path d="M35.589 129.323H30.9023V134.01H35.589V129.323Z" fill="black"/>
<path d="M35.589 134.01H30.9023V138.697H35.589V134.01Z" fill="black"/>
<path d="M16.8429 115.263H12.1562V119.95H16.8429V115.263Z" fill="black"/>
<path d="M16.8429 119.95H12.1562V124.636H16.8429V119.95Z" fill="black"/>
<path d="M16.8429 124.637H12.1562V129.323H16.8429V124.637Z" fill="black"/>
<path d="M21.5304 115.263H16.8438V119.95H21.5304V115.263Z" fill="black"/>
<path d="M21.5304 119.95H16.8438V124.636H21.5304V119.95Z" fill="black"/>
<path d="M21.5304 124.637H16.8438V129.323H21.5304V124.637Z" fill="black"/>
<path d="M26.216 115.263H21.5293V119.95H26.216V115.263Z" fill="black"/>
<path d="M26.216 119.95H21.5293V124.636H26.216V119.95Z" fill="black"/>
<path d="M26.216 124.637H21.5293V129.323H26.216V124.637Z" fill="black"/>
</svg>
