<svg width="15" height="15" viewBox="0 0 15 15" fill="none" xmlns="http://www.w3.org/2000/svg">
<path d="M11.2391 6.93327C11.1046 6.93327 10.97 6.88368 10.8637 6.77743C10.6583 6.57202 10.6583 6.23202 10.8637 6.0266L13.1233 3.76702L10.8637 1.50743C10.6583 1.30201 10.6583 0.962018 10.8637 0.756602C11.0691 0.551185 11.4091 0.551185 11.6145 0.756602L14.2496 3.39162C14.3487 3.49079 14.4054 3.62535 14.4054 3.76702C14.4054 3.90868 14.3487 4.04328 14.2496 4.14245L11.6145 6.77743C11.5082 6.8766 11.3737 6.93327 11.2391 6.93327Z" fill="#0D1C4C"/>
<path d="M13.875 4.29834H1.125C0.834583 4.29834 0.59375 4.05751 0.59375 3.76709C0.59375 3.47667 0.834583 3.23584 1.125 3.23584H13.875C14.1654 3.23584 14.4062 3.47667 14.4062 3.76709C14.4062 4.05751 14.1654 4.29834 13.875 4.29834Z" fill="#0D1C4C"/>
<path d="M3.75998 14.4059C3.6254 14.4059 3.49083 14.3563 3.38458 14.2501L0.749562 11.6151C0.650395 11.5159 0.59375 11.3813 0.59375 11.2397C0.59375 11.098 0.650395 10.9634 0.749562 10.8643L3.38458 8.22926C3.59 8.02384 3.93 8.02384 4.13542 8.22926C4.34083 8.43467 4.34083 8.77467 4.13542 8.98009L1.87583 11.2397L4.13542 13.4992C4.34083 13.7046 4.34083 14.0447 4.13542 14.2501C4.03625 14.3563 3.90165 14.4059 3.75998 14.4059Z" fill="#0D1C4C"/>
<path d="M13.875 11.7642H1.125C0.834583 11.7642 0.59375 11.5233 0.59375 11.2329C0.59375 10.9425 0.834583 10.7017 1.125 10.7017H13.875C14.1654 10.7017 14.4062 10.9425 14.4062 11.2329C14.4062 11.5233 14.1654 11.7642 13.875 11.7642Z" fill="#0D1C4C"/>
</svg>
