<svg version="1.2" xmlns="http://www.w3.org/2000/svg" viewBox="0 0 77 28" width="77" height="28">
	<title>tnt 1 c-svg-svg</title>
	<style>
		.s0 { fill: #ff5000 } 
	</style>
	<path id="Layer" class="s0" d="m19.2 8.3c0.2 0 0.3 0.2 0.3 0.4v2.3c0 0.2-0.1 0.4-0.3 0.4h-2.7c-0.3 0-0.6 0-0.6 0v9.3c0 0.2-0.2 0.4-0.4 0.4h-2.9c-0.2 0-0.4-0.2-0.4-0.4v-9.4c0 0-0.2 0.1-0.5 0.1h-2.8c-0.2 0-0.3-0.2-0.3-0.4v-2.3c0-0.2 0.1-0.4 0.3-0.4z"/>
	<path id="Layer" class="s0" d="m67.7 8.3c0.2 0 0.4 0.2 0.4 0.4v2.3c0 0.2-0.2 0.4-0.4 0.4h-2.6c-0.4 0-0.7 0-0.7 0v9.3c0 0.2-0.1 0.4-0.4 0.4h-2.8c-0.2 0-0.4-0.2-0.4-0.4v-9.4c0 0-0.3 0.1-0.5 0.1h-2.9c-0.1 0-0.3-0.2-0.3-0.4v-2.3c0-0.2 0.1-0.4 0.3-0.4z"/>
	<path id="Layer" fill-rule="evenodd" class="s0" d="m76.3 14.3c0 7.7-6.1 14-13.7 14-5.3 0-9.9-3.1-12.2-7.5-2.2 4.4-6.8 7.5-12.1 7.5-5.3 0-9.8-3.1-12.1-7.5-2.3 4.4-6.9 7.5-12.2 7.5-7.5 0-13.7-6.2-13.7-14 0-7.7 6.2-13.9 13.7-13.9 5.3 0 9.9 3 12.2 7.5 2.3-4.5 6.8-7.5 12.1-7.5 5.3 0 9.9 3 12.1 7.5 2.3-4.5 6.9-7.5 12.2-7.5 7.5 0 13.7 6.2 13.7 13.9zm-51.7 0.1c0-6-4.8-10.9-10.6-10.9-5.9 0-10.6 4.9-10.6 10.9 0 5.9 4.8 10.8 10.6 10.8 5.9 0 10.6-4.9 10.6-10.8zm24.3 0c0-6-4.8-10.9-10.6-10.9-5.9 0-10.6 4.9-10.6 10.9 0 5.9 4.8 10.8 10.6 10.8 5.8 0 10.6-4.9 10.6-10.8zm24.3 0c0-6-4.8-10.9-10.6-10.9-5.9 0-10.6 4.9-10.6 10.9 0 5.9 4.8 10.8 10.6 10.8 5.8 0 10.6-4.9 10.6-10.8z"/>
	<path id="Layer" class="s0" d="m43.6 8.1c0.2 0 0.4 0.1 0.4 0.4v11.8c0 0.2-0.2 0.4-0.4 0.4h-2.4q-0.2 0-0.4-0.2c0 0-4.3-6-4.5-6.2-0.1-0.2-0.3-0.5-0.3-0.5v6.5c0 0.2-0.1 0.4-0.3 0.4h-2.7c-0.2 0-0.4-0.1-0.4-0.4v-11.9c0-0.2 0.2-0.4 0.4-0.4h2.4q0.2 0.1 0.4 0.2c0 0 4.3 6 4.5 6.2 0.1 0.2 0.3 0.6 0.3 0.6v-6.6c0-0.2 0.1-0.4 0.3-0.4 0 0.1 2.5 0.1 2.7 0.1z"/>
</svg>