<svg width="80" height="48" viewBox="0 0 80 48" fill="none" xmlns="http://www.w3.org/2000/svg">
<path d="M21.1635 18.3161C21.3515 18.3161 21.5395 18.4692 21.5395 18.6988V21.0333C21.5395 21.2246 21.3891 21.416 21.1635 21.416H18.5313C18.1929 21.416 17.8544 21.3777 17.8544 21.3777V30.6774C17.8544 30.8687 17.704 31.0601 17.4784 31.0601H14.6205C14.4326 31.0601 14.2445 30.907 14.2445 30.6774V21.3394C14.2445 21.3394 13.9813 21.3777 13.7181 21.3777H10.9355C10.7475 21.3777 10.5594 21.2246 10.5594 20.995V18.6605C10.5594 18.4692 10.7099 18.2778 10.9355 18.2778H21.1635V18.3161Z" fill="#FF5000"/>
<path d="M69.7101 18.3161C69.898 18.3161 70.0861 18.4692 70.0861 18.6988V21.0333C70.0861 21.2246 69.9357 21.416 69.7101 21.416H67.0779C66.7394 21.416 66.4009 21.3777 66.4009 21.3777V30.6774C66.4009 30.8687 66.2506 31.0601 66.0249 31.0601H63.1671C62.9791 31.0601 62.7911 30.907 62.7911 30.6774V21.3394C62.7911 21.3394 62.5279 21.3777 62.2646 21.3777H59.4445C59.2564 21.3777 59.0684 21.2246 59.0684 20.995V18.6605C59.0684 18.4692 59.2188 18.2778 59.4445 18.2778H69.7101V18.3161Z" fill="#FF5000"/>
<path d="M64.5955 10.3545C59.3311 10.3545 54.7435 13.4161 52.4497 17.8937C50.1559 13.4161 45.5684 10.3545 40.304 10.3545C35.0396 10.3545 30.4521 13.4161 28.1583 17.8937C25.8645 13.4161 21.2769 10.3545 16.0125 10.3545C8.45434 10.3545 2.32507 16.6308 2.32507 24.3231C2.32507 32.0537 8.45434 38.2918 16.0125 38.2918C21.2769 38.2918 25.8645 35.2301 28.1583 30.7526C30.4521 35.2301 35.0396 38.2918 40.304 38.2918C45.5684 38.2918 50.1559 35.2301 52.4497 30.7526C54.7435 35.2301 59.3311 38.2918 64.5955 38.2918C72.1537 38.2918 78.2828 32.0155 78.2828 24.3231C78.2828 16.6308 72.116 10.3545 64.5955 10.3545ZM16.0125 35.1919C10.1841 35.1919 5.40851 30.3316 5.40851 24.3614C5.40851 18.3912 10.1465 13.5309 16.0125 13.5309C21.8409 13.5309 26.6166 18.3912 26.6166 24.3614C26.6166 30.3316 21.8785 35.1919 16.0125 35.1919ZM40.304 35.1919C34.4756 35.1919 29.7 30.3316 29.7 24.3614C29.7 18.3912 34.4379 13.5309 40.304 13.5309C46.1324 13.5309 50.908 18.3912 50.908 24.3614C50.908 30.3316 46.1324 35.1919 40.304 35.1919ZM64.5955 35.1919C58.767 35.1919 53.9914 30.3316 53.9914 24.3614C53.9914 18.3912 58.7294 13.5309 64.5955 13.5309C70.4239 13.5309 75.1994 18.3912 75.1994 24.3614C75.1994 30.3316 70.4239 35.1919 64.5955 35.1919Z" fill="#FF5000"/>
<path d="M45.6059 18.0861C45.8315 18.0861 45.9819 18.2392 45.9819 18.4688V30.2943C45.9819 30.4857 45.8315 30.6771 45.6059 30.6771H43.1993C43.0489 30.6771 42.8985 30.6005 42.7857 30.4857C42.7857 30.4857 38.4614 24.4772 38.3485 24.3242C38.1981 24.1328 38.0477 23.7501 38.0477 23.7501V30.3326C38.0477 30.5239 37.8973 30.7153 37.6717 30.7153H35.0019C34.8138 30.7153 34.6259 30.5622 34.6259 30.3326V18.4306C34.6259 18.2392 34.7763 18.0479 35.0019 18.0479H37.4085C37.5589 18.0479 37.7093 18.1244 37.8221 18.2392C37.8221 18.2392 42.0712 24.1711 42.2593 24.4007C42.4096 24.592 42.5601 24.9748 42.5601 24.9748V18.4306C42.5601 18.2392 42.7104 18.0479 42.9361 18.0479C42.8985 18.0861 45.4179 18.0861 45.6059 18.0861Z" fill="#FF5000"/>
</svg>
