<svg width="125" height="28" viewBox="0 0 125 28" fill="none" xmlns="http://www.w3.org/2000/svg">
<g clip-path="url(#clip0_294_1866)">
<path d="M0.496155 26.774C1.02957 26.1075 1.16292 25.241 1.42963 24.5079C1.62966 24.0413 1.82969 23.8413 2.22975 23.908C2.42979 23.908 2.62982 23.908 2.82985 23.908C32.101 23.908 61.3056 23.908 90.5766 23.908C100.378 23.908 110.18 23.908 119.981 23.908C120.315 23.908 120.581 23.908 120.915 23.908C120.715 25.0411 120.048 25.9742 119.915 27.1072C80.3751 27.1072 40.8357 27.1072 1.29628 27.1072C1.02957 27.0407 0.496155 27.4406 0.496155 26.774Z" fill="#005DAB"/>
<path d="M118.746 0.640381C118.612 1.37354 118.279 1.97339 117.479 2.24C117.079 2.3733 116.745 2.70655 116.479 3.0398C115.745 3.97292 115.879 4.77272 116.879 5.37259C117.479 5.77247 118.146 6.03909 118.812 6.37234C121.279 7.63871 121.88 9.37162 120.746 11.9043C119.479 14.7037 116.078 16.8365 113.145 16.7698C113.211 16.0367 113.478 15.5035 114.278 15.3035C114.678 15.2369 115.012 14.9703 115.279 14.7703C116.612 13.7039 116.479 12.5042 115.012 11.7044C114.145 11.2378 113.278 10.9046 112.478 10.3047C111.078 9.30496 110.611 8.03859 111.144 6.37234C112.078 3.3064 114.212 1.50684 117.212 0.773682C117.345 0.707032 117.546 0.840334 117.612 0.57373C118.079 0.640381 118.412 0.640381 118.746 0.640381Z" fill="#005DAB"/>
<path d="M29.3171 0.57373C29.3837 0.707032 29.4506 0.707032 29.5839 0.773682C32.1176 1.37354 33.3176 2.83985 33.251 5.37259C33.1177 9.03837 30.2505 15.0369 24.6497 16.5699C24.1163 16.7032 23.6496 16.9031 23.0495 16.8365C23.1829 16.17 23.3829 15.6368 24.0497 15.3702C24.5831 15.1702 24.8498 14.7037 25.0498 14.1704C26.3834 10.5713 27.717 7.03884 29.0505 3.43972C29.2504 2.9065 29.3171 2.3733 28.7837 2.04004C28.5169 1.90674 28.6504 1.70679 28.7171 1.50684C28.6504 1.17359 28.8503 0.906984 28.7837 0.57373C28.9839 0.57373 29.1838 0.57373 29.3171 0.57373Z" fill="#005DAB"/>
<path d="M124.253 1.51149C123.653 2.5779 123.387 3.77762 122.92 4.91067C122.787 5.17728 122.72 5.51054 122.52 5.71047C122.32 6.04374 121.986 6.17704 121.586 6.04374C121.12 5.91042 121.253 5.51054 121.32 5.17728C121.586 3.6443 121.12 2.7112 119.786 1.97804C119.453 1.77809 119.453 1.64479 119.519 1.31154C119.586 1.11159 119.786 0.844982 119.653 0.57838C119.986 0.57838 120.319 0.57838 120.653 0.57838C121.653 1.11159 122.72 1.77809 123.72 0.57838C124.587 0.51173 124.187 1.17824 124.253 1.51149Z" fill="#005DAB"/>
<path d="M2.05157 23.7854C2.38496 22.8523 2.71835 21.9858 3.05173 21.1194C3.11841 20.9194 3.25176 20.7861 3.51847 20.7861C3.78517 20.7861 4.05188 20.7861 4.25192 20.7861C43.258 20.7861 82.3307 20.7861 121.337 20.7861C121.67 20.7861 122.003 20.7861 122.47 20.7861C122.137 21.7193 121.803 22.5857 121.47 23.5188C121.403 23.7188 121.27 23.8521 121.003 23.8521C120.803 23.8521 120.537 23.8521 120.336 23.8521C81.2637 23.8521 42.1911 23.8521 3.11841 23.8521C2.71835 23.7854 2.45164 23.7854 2.05157 23.7854Z" fill="#EF2E24"/>
<path d="M100.758 0.640381C101.358 0.640381 102.025 0.640381 102.625 0.640381C103.826 0.640381 103.826 0.640381 104.092 1.84009C104.692 4.70606 105.292 7.50539 105.892 10.3047C106.026 10.8379 106.026 11.3045 105.826 11.8377C105.359 13.0374 104.892 14.3037 104.426 15.5701C104.292 15.97 104.092 16.2366 103.559 16.17C102.892 16.1033 102.225 16.1033 101.625 16.17C101.092 16.2366 100.958 15.97 100.825 15.5035C99.8916 11.3045 99.0248 7.17214 98.0913 2.97315C98.0245 2.57325 97.9578 2.10669 97.4911 1.90674C97.2245 1.77344 96.8245 1.70679 96.9577 1.30689C97.0244 0.906984 97.3578 0.640381 97.7579 0.640381C98.2913 0.57373 98.8246 0.57373 99.358 0.57373C99.8247 0.640381 100.292 0.640381 100.758 0.640381Z" fill="#005DAB"/>
<path d="M82.1548 12.8816C82.355 11.6819 83.1549 11.6153 84.0217 11.6819C85.3553 11.7486 85.3553 11.6819 85.5554 10.3489C85.8889 7.81619 86.2221 5.35011 86.6222 2.81739C86.7557 1.81763 87.2891 1.35107 88.2891 1.35107C89.3559 1.35107 90.3562 1.35107 91.4229 1.35107C91.8896 1.35107 92.0898 1.41772 92.0232 1.95093C91.4896 6.01661 90.9562 10.0823 90.4228 14.148C90.3562 14.7478 90.0894 15.4143 90.8229 15.8809C91.1564 16.0808 90.9562 16.4141 90.6896 16.6807C90.4228 16.8807 90.156 16.9473 89.8228 16.9473C87.9557 16.9473 86.0888 16.9473 84.2219 16.9473C83.8885 16.9473 83.555 17.014 83.4217 16.6141C83.3551 16.2142 83.6217 16.0142 83.9551 15.8143C84.7553 15.3477 85.2886 14.0147 85.0887 13.1482C85.0221 12.815 84.7553 12.8816 84.5554 12.8816C83.7552 12.8816 82.955 12.8816 82.1548 12.8816Z" fill="#005DAB"/>
<path d="M43.5479 1.35107C42.8146 3.35058 42.0811 5.28345 41.4144 7.14969C40.4807 9.6824 39.5473 12.1485 38.6139 14.6812C38.4139 15.1478 38.3473 15.481 38.9473 15.7476C39.4807 15.9476 39.2141 16.3475 38.9473 16.6141C38.6805 16.8807 38.2804 16.9473 37.9472 16.9473C36.0801 16.9473 34.2798 16.9473 32.4129 16.9473C32.0795 16.9473 31.6794 17.0806 31.6128 16.5474C31.5461 16.0809 31.8796 15.8143 32.213 15.7476C32.9463 15.6143 33.2131 15.1478 33.413 14.4813C34.7465 10.8821 36.0801 7.28298 37.4136 3.68383C37.6138 3.21729 37.747 2.81739 37.0804 2.55079C36.6137 2.35083 36.8136 2.01758 37.0138 1.75098C37.2803 1.48438 37.5471 1.41772 37.9472 1.41772C39.8141 1.35107 41.6144 1.35107 43.5479 1.35107Z" fill="#005DAB"/>
<path d="M63.9261 16.9473C62.9926 16.9473 61.9923 16.9473 61.0588 16.9473C60.7923 16.9473 60.4588 16.9473 60.3922 16.6141C60.3255 16.2808 60.5255 15.9476 60.7923 15.8809C61.9256 15.681 62.1258 14.7478 62.4592 13.8814C63.7259 10.4822 64.9928 7.14969 66.193 3.75049C66.3932 3.28395 66.5931 2.81739 65.8596 2.55079C65.4595 2.41748 65.593 2.01758 65.7929 1.75098C66.0597 1.41773 66.5265 1.35107 66.9266 1.35107C68.46 1.35107 69.9937 1.41773 71.5271 1.35107C72.194 1.35107 72.2607 1.48438 72.0605 2.08423C70.5271 6.21657 68.9934 10.2823 67.4599 14.4146C67.26 14.9478 66.9266 15.5477 67.7934 15.8143C67.9933 15.8809 67.9933 16.1475 67.9266 16.3475C67.7267 16.6807 67.4599 16.9473 67.0598 16.9473C66.3263 16.9473 65.593 16.9473 64.8595 16.9473C64.5927 16.9473 64.2595 16.9473 63.9261 16.9473Z" fill="#005DAB"/>
<path d="M8.77569 16.9473C7.84222 16.9473 6.84206 16.9473 5.90859 16.9473C5.64188 16.9473 5.24182 17.014 5.17513 16.6141C5.10844 16.2808 5.30849 15.9476 5.64188 15.8809C6.7087 15.681 6.90875 14.8811 7.24212 14.0147C8.70902 10.0823 10.1759 6.08327 11.6428 2.15088C11.8428 1.55103 12.1762 1.35107 12.7763 1.35107C13.9098 1.41773 15.0433 1.35107 16.1768 1.35107C17.177 1.35107 17.177 1.35107 16.8436 2.21753C15.31 6.21657 13.8431 10.2823 12.3096 14.2813C12.1095 14.8145 11.7095 15.4143 12.6429 15.8143C12.9763 15.9476 12.7763 16.2808 12.6429 16.5474C12.3762 16.8807 11.9762 16.9473 11.5761 16.9473C10.576 16.9473 9.70916 16.9473 8.77569 16.9473Z" fill="#005DAB"/>
<path d="M60.6574 1.36332C60.0574 2.96294 59.5238 4.42924 58.9905 5.96223C57.9237 8.82819 56.8568 11.7608 55.7901 14.6268C55.5899 15.0933 55.4566 15.4933 56.1235 15.7598C56.5236 15.8932 56.3901 16.2264 56.1901 16.5597C55.9233 16.8929 55.5232 16.9596 55.1232 16.9596C53.2563 16.9596 51.3894 16.9596 49.5225 16.9596C49.189 16.9596 48.789 17.0262 48.7223 16.5597C48.6557 16.1598 48.9889 15.8932 49.3223 15.8265C50.1891 15.6932 50.4559 15.0267 50.7225 14.2935C52.1895 10.2279 53.723 6.16216 55.1901 2.09648C55.39 1.49662 55.6568 1.29667 56.2568 1.36332C57.7236 1.42997 59.1237 1.36332 60.6574 1.36332Z" fill="#005DAB"/>
<path d="M73.5693 9.21851C73.7028 9.55176 74.036 9.48512 74.2362 9.55176C75.8363 10.0183 76.2364 10.8848 75.703 12.4177C75.4365 13.1509 75.1697 13.884 74.9028 14.6839C75.3696 14.7505 75.5031 14.4172 75.7696 14.284C76.0365 14.1507 76.2364 14.084 76.4365 14.284C76.6365 14.4839 76.5698 14.6839 76.4365 14.8838C75.6364 16.5501 72.3024 17.7498 70.6357 16.8833C69.9022 16.4834 69.5687 15.8169 69.7689 14.8838C69.9688 13.884 70.4355 12.951 70.769 11.9512C70.9689 11.2847 71.5025 10.4849 70.3689 10.0183C70.1021 9.88501 70.5688 8.8186 70.9689 8.75196C71.8357 8.55201 72.3024 7.95214 72.5692 7.15235C72.9693 6.15259 73.3028 5.08618 73.7028 4.0864C73.8361 3.61986 73.9694 3.15331 73.5027 2.8867C72.9693 2.55345 73.1692 2.2202 73.3028 1.82029C73.436 1.28709 73.8361 1.35374 74.2362 1.35374C74.9695 1.35374 75.703 1.35374 76.4365 1.55369C78.2368 1.9536 79.037 3.21995 78.5702 4.95286C78.0366 6.81909 76.77 8.0188 75.0364 8.75196C74.5028 8.95192 74.036 9.08521 73.5693 9.21851Z" fill="#005DAB"/>
<path d="M17.6056 12.1198C17.6723 7.05436 21.8729 1.78897 26.7402 0.722562C27.0737 0.655911 27.607 0.389309 27.7406 0.789212C27.8738 1.18912 27.6739 1.72232 27.0737 1.92227C26.407 2.18888 26.0069 2.72208 25.7402 3.38858C24.4733 6.92107 23.1398 10.3869 21.8062 13.9194C21.6062 14.4526 21.4062 14.9858 21.9396 15.3857C22.473 15.7856 21.9396 16.1189 21.8729 16.4521C21.8062 16.852 21.4062 16.7187 21.2061 16.652C19.0058 16.3188 17.6056 14.6525 17.6056 12.1198Z" fill="#005DAB"/>
<path d="M40.9367 10.8885C41.07 10.1554 41.2702 9.68884 42.0034 9.48888C42.5368 9.35559 42.9369 8.82238 43.137 8.28918C43.6704 6.88951 44.2038 5.42319 44.7371 4.02353C44.9373 3.55698 45.0039 2.95713 44.4039 2.69053C44.0038 2.49057 44.0705 2.29062 44.2038 2.02402C44.3373 1.75742 44.2704 1.29086 44.804 1.35751C45.9374 1.35751 47.0044 1.42416 48.0044 1.89072C49.2047 2.49057 49.6714 3.75694 49.338 5.2899C48.4712 8.62243 45.9374 10.6886 42.3369 10.8885C41.8702 10.8885 41.4034 10.8885 40.9367 10.8885Z" fill="#005DAB"/>
<path d="M84.9347 4.46045C85.068 5.4602 85.0013 6.32666 84.468 7.19314C83.0678 9.25931 81.6674 11.3921 80.3338 13.5249C79.6006 14.658 79.6006 14.658 80.534 15.6578C80.8675 15.991 80.6673 16.5909 80.0673 16.6575C78.8004 16.8575 77.5335 16.7908 76.2666 16.6575C76.0667 16.6575 75.9332 16.5242 75.9332 16.2576C75.9332 15.991 76.0667 15.7244 76.3333 15.6578C78.267 15.1245 79.0669 13.4583 80.0673 11.9253C81.6674 9.5259 83.3343 6.99319 84.9347 4.46045Z" fill="#005DAB"/>
<path d="M97.2138 5.23828C97.6805 6.23803 97.8138 7.23781 97.3471 8.3042C96.6802 9.83718 96.1468 11.4368 95.6135 13.0364C95.28 13.9695 95.0135 14.836 96.0135 15.6358C96.4803 15.969 96.0802 16.4356 95.6135 16.5689C94.3466 16.8355 93.0797 16.7022 91.8128 16.6355C91.4127 16.6355 91.3461 15.9024 91.8128 15.7691C93.8798 14.9693 94.3466 13.0364 95.0135 11.3035C95.7467 9.23732 96.4803 7.23781 97.2138 5.23828Z" fill="#005DAB"/>
<path d="M110.979 11.5489C110.846 12.0821 110.846 12.6819 110.979 13.2818C111.179 14.1482 111.513 14.8814 112.379 15.2813C112.779 15.4812 112.779 15.6812 112.646 16.0144C112.513 16.3477 112.513 16.7476 111.979 16.6809C111.446 16.6143 110.979 16.481 110.512 16.2144C109.912 15.8145 109.379 15.8145 108.845 16.3477C108.579 16.5476 108.312 16.7476 107.979 16.481C107.712 16.281 107.845 15.9478 107.912 15.6812C108.445 14.2815 108.912 12.9485 109.445 11.5489C109.512 11.2822 109.646 11.0156 109.912 10.8824C110.112 10.6824 110.379 10.6157 110.712 10.749C110.979 10.8824 110.979 11.1489 110.979 11.5489Z" fill="#005DAB"/>
<path d="M106.615 9.46446C106.215 8.26473 106.082 7.19832 106.615 6.13193C107.015 5.33211 107.216 4.53231 107.482 3.66586C107.682 2.99934 107.682 2.33284 106.949 1.86628C106.482 1.53303 106.615 0.866525 107.282 0.733222C108.549 0.46662 109.816 0.599921 111.083 0.666572C111.483 0.666572 111.55 0.999825 111.349 1.33308C111.283 1.46638 111.15 1.59968 111.083 1.59968C109.216 2.26619 108.682 3.86581 108.149 5.4654C107.616 6.86507 107.149 8.13144 106.615 9.46446Z" fill="#005DAB"/>
<path d="M9.33355 1.38949C9.53357 1.38949 9.66692 1.38949 9.86697 1.38949C10.2004 1.45614 10.6671 1.18954 10.7338 1.52279C10.8004 1.85604 10.6004 2.38925 10.267 2.65585C8.93349 3.52231 8.20004 4.85531 7.39992 6.12168C7.26657 6.3883 7.06653 6.58823 6.86649 6.72155C6.66647 6.85484 6.33308 6.9215 6.13306 6.72155C5.86635 6.58823 5.93302 6.32164 5.99971 6.05502C6.53312 4.65536 7.06653 3.18906 7.59994 1.78939C7.73329 1.52279 7.86665 1.32284 8.20004 1.38949C8.6001 1.38949 8.9335 1.38949 9.33355 1.38949Z" fill="#005DAB"/>
<path d="M21.1011 1.41773C20.4343 3.08399 19.9009 4.68361 19.2341 6.28323C19.0341 6.74978 18.7007 6.94973 18.234 6.81644C17.6339 6.68312 17.9006 6.21657 17.9673 5.81666C18.1006 4.75025 18.3673 3.75049 17.7006 2.68409C17.3672 2.15088 17.9673 1.35107 18.634 1.35107C19.4342 1.41773 20.1676 1.41773 21.1011 1.41773Z" fill="#005DAB"/>
<path d="M54.423 1.35107C54.2897 2.08423 54.0229 2.61744 53.4229 3.01734C52.4894 3.6172 51.9558 4.61695 51.3558 5.55007C51.1559 5.88332 51.0224 6.21657 50.7558 6.48316C50.489 6.81644 50.1556 6.94973 49.7555 6.74978C49.2888 6.54982 49.5556 6.14991 49.6888 5.88332C50.1556 4.55032 50.6892 3.21729 51.1559 1.88428C51.2892 1.48438 51.4891 1.35107 51.8892 1.41773C52.756 1.41773 53.5562 1.35107 54.423 1.35107Z" fill="#005DAB"/>
<path d="M64.6117 1.35107C64.0114 3.01734 63.4114 4.55032 62.878 6.08327C62.7445 6.34986 62.6112 6.54982 62.3444 6.68312C61.7444 6.94973 61.3443 6.68312 61.4776 6.01661C61.6778 4.81691 61.9446 3.68383 61.2777 2.48413C60.8776 2.08423 61.5445 1.35107 62.2111 1.35107C62.9447 1.35107 63.7448 1.35107 64.6117 1.35107Z" fill="#005DAB"/>
</g>
<defs>
<clipPath id="clip0_294_1866">
<rect width="123.793" height="26.5926" fill="white" transform="translate(0.496155 0.57373)"/>
</clipPath>
</defs>
</svg>
