<svg width="47" height="33" viewBox="0 0 47 33" fill="none" xmlns="http://www.w3.org/2000/svg">
<path d="M13.7366 21.7238C13.7366 21.9905 13.5818 22.2327 13.3399 22.3449L13.3398 22.3449C13.0978 22.4569 12.8129 22.4182 12.6095 22.2458L0.291668 11.7979C0.138371 11.6679 0.05 11.477 0.05 11.276C0.05 11.0749 0.138371 10.8841 0.291669 10.7541L12.6094 0.3062C12.8128 0.133739 13.0978 0.0950721 13.3397 0.207137C13.5817 0.319206 13.7365 0.561564 13.7365 0.828122V5.31763V5.36763H13.7865H33.9479C34.3258 5.36763 34.6322 5.67406 34.6322 6.05201C34.6322 6.42995 34.3258 6.73638 33.9479 6.73638H13.0521C12.6742 6.73638 12.3678 6.42995 12.3678 6.05201V2.41391V2.30594L12.2854 2.37578L1.83738 11.2379L1.79242 11.276L1.83738 11.3141L12.2854 20.1762L12.3678 20.246V20.1381V16.5C12.3678 16.122 12.6742 15.8156 13.0521 15.8156H33.2135H33.2635V15.7656V11.2761C33.2635 11.0094 33.4183 10.7671 33.6602 10.6551L33.6392 10.6097L33.6603 10.6551C33.9023 10.5429 34.1872 10.5817 34.3906 10.7542L46.7083 21.202L46.7407 21.1639L46.7083 21.202C46.8616 21.332 46.95 21.5229 46.95 21.7238C46.95 21.9249 46.8616 22.1157 46.7083 22.2458L34.3906 32.6936L34.4229 32.7318L34.3906 32.6936C34.2645 32.8006 34.107 32.8561 33.9478 32.8561C33.8503 32.8561 33.7522 32.8353 33.6604 32.7928C33.4184 32.6806 33.2636 32.4383 33.2636 32.1717V27.6822V27.6322H33.2136H13.0522C12.6743 27.6322 12.3679 27.3258 12.3679 26.9478C12.3679 26.5699 12.6743 26.2634 13.0522 26.2634H33.948C34.3259 26.2634 34.6323 26.5699 34.6323 26.9478V30.5859V30.6939L34.7147 30.624L45.1627 21.762L45.2077 21.7238L45.1627 21.6857L34.7147 12.8237L34.6323 12.7539V12.8619V16.5C34.6323 16.8779 34.3259 17.1843 33.948 17.1843H13.7866H13.7366V17.2343V21.7238Z" fill="#0D1C4C" stroke="#F5F5FF" stroke-width="0.1"/>
</svg>
