<svg width="28" height="22" viewBox="0 0 28 22" fill="none" xmlns="http://www.w3.org/2000/svg">
<path d="M26.8207 0.90955H26.8707V0.95955V6.78827C26.8707 7.02431 27.068 7.21804 27.3143 7.21804C27.5606 7.21804 27.7579 7.02431 27.7579 6.78827V0.479775C27.7579 0.243737 27.5606 0.05 27.3143 0.05H12.2604C12.014 0.05 11.8168 0.243736 11.8168 0.479775V6.78827C11.8168 7.02431 12.014 7.21804 12.2604 7.21804C12.5067 7.21804 12.7039 7.02431 12.7039 6.78827V0.95955V0.90955H12.7539H26.8207Z" fill="#0E1D4C" stroke="white" stroke-width="0.1"/>
<path d="M1.10505 8.17217V8.14508L1.12774 8.13028L11.3975 1.43603C11.6007 1.30352 11.6542 1.03711 11.5186 0.840619C11.3825 0.643256 11.1064 0.589802 10.9023 0.722846L0.632522 7.4171C0.373133 7.58626 0.217903 7.86957 0.217903 8.17217V17.8716C0.217903 18.1076 0.415051 18.3013 0.661475 18.3013H1.64862H1.69862V18.3513V19.4308C1.69862 19.667 1.89576 19.8606 2.14219 19.8606H5.10362C5.34996 19.8606 5.54719 19.667 5.54719 19.4308V18.3513V18.3013H5.59719H10.6563C10.9026 18.3013 11.0999 18.1076 11.0999 17.8716C11.0999 17.6355 10.9026 17.4418 10.6563 17.4418H1.15505H1.10505V17.3918V8.17217ZM2.58576 18.3513V18.3013H2.63576H4.61005H4.66005V18.3513V18.9511V19.0011H4.61005H2.63576H2.58576V18.9511V18.3513Z" fill="#0E1D4C" stroke="white" stroke-width="0.1"/>
<path d="M21.1962 14.5824H21.2462V14.6324V17.2712C21.2462 17.5072 21.4434 17.7009 21.6898 17.7009C21.9361 17.7009 22.1333 17.5072 22.1333 17.2712V14.1526C22.1333 13.9166 21.9361 13.7229 21.6898 13.7229H18.1316C17.8853 13.7229 17.6881 13.9166 17.6881 14.1526V17.2712C17.6881 17.5072 17.8853 17.7009 18.1316 17.7009C18.378 17.7009 18.5752 17.5072 18.5752 17.2712V14.6324V14.5824H18.6252H21.1962Z" fill="#0E1D4C" stroke="white" stroke-width="0.1"/>
<path d="M25.5369 16.3811C25.5369 16.1451 25.3396 15.9514 25.0933 15.9514H23.5463C23.2999 15.9514 23.1027 16.1451 23.1027 16.3811C23.1027 16.6172 23.2999 16.8109 23.5463 16.8109H25.0933C25.3396 16.8109 25.5369 16.6172 25.5369 16.3811Z" fill="#0E1D4C" stroke="white" stroke-width="0.1"/>
<path d="M16.8735 16.3811C16.8735 16.1451 16.6763 15.9514 16.43 15.9514H14.7282C14.4819 15.9514 14.2847 16.1451 14.2847 16.3811C14.2847 16.6172 14.4819 16.8109 14.7282 16.8109H16.43C16.6763 16.8109 16.8735 16.6172 16.8735 16.3811Z" fill="#0E1D4C" stroke="white" stroke-width="0.1"/>
<path d="M22.6753 10.7952V10.8452H22.6253H17.1961H17.1461V10.7952V8.87605V8.82605H17.1961H22.6253H22.6753V8.87605V10.7952ZM23.5625 8.39628C23.5625 8.16024 23.3652 7.9665 23.1189 7.9665H16.7025C16.4562 7.9665 16.2589 8.16024 16.2589 8.39628V11.2749C16.2589 11.511 16.4562 11.7047 16.7025 11.7047H23.1189C23.3652 11.7047 23.5625 11.511 23.5625 11.2749V8.39628Z" fill="#0E1D4C" stroke="white" stroke-width="0.1"/>
<path d="M15.2126 5.21483V5.24135H15.1626L15.1391 5.19718L15.1626 5.18475V2.63896C15.1626 2.37398 14.9416 2.15918 14.669 2.15918C14.3964 2.15918 14.1754 2.37398 14.1754 2.63896V10.5703L14.1874 10.5732L14.1754 10.6218H14.1254V10.6095L12.7539 10.2716V8.27173C12.7539 8.00675 12.533 7.79196 12.2604 7.79196C11.9878 7.79196 11.7668 8.00675 11.7668 8.27173V10.645C11.7668 10.8646 11.9201 11.0561 12.1391 11.1101L13.8447 11.5302L13.8537 11.516L13.896 11.5428L13.884 11.5914L13.8677 11.5874L15.2126 5.21483ZM15.2126 5.21483L15.9475 4.825C16.3101 4.63266 16.7165 4.53188 17.1296 4.53188H22.9217C23.4333 4.53188 23.9322 4.68644 24.3495 4.97419L24.5126 5.08666V5.12115H24.5626L24.591 5.07998L24.5626 5.06041V2.63896C24.5626 2.37398 24.7836 2.15918 25.0562 2.15918C25.3288 2.15918 25.5498 2.37398 25.5498 2.63896V10.5599L25.5371 10.5632L15.2126 5.21483ZM25.7812 11.5605L25.7446 11.5027L25.8107 11.4853L27.4304 11.0598C27.6245 11.0088 27.7579 10.8382 27.7579 10.645V8.27173C27.7579 8.0357 27.5606 7.84196 27.3143 7.84196C27.068 7.84196 26.8707 8.03569 26.8707 8.27173V10.2777V10.3162L26.8334 10.326L25.5625 10.66L25.4998 10.6764V10.6116V2.63896C25.4998 2.40292 25.3025 2.20918 25.0562 2.20918C24.8099 2.20918 24.6126 2.40292 24.6126 2.63896V5.12115V5.21636L24.5342 5.16231L24.3211 5.01535C23.9123 4.73342 23.4232 4.58188 22.9217 4.58188H17.1296C16.7247 4.58188 16.3263 4.68069 15.9709 4.86917L15.186 5.28552L15.1126 5.32447V5.24135V2.63896C15.1126 2.40292 14.9153 2.20918 14.669 2.20918C14.4227 2.20918 14.2254 2.40292 14.2254 2.63896V10.6218V10.6856L14.1635 10.6703L12.742 10.3202L12.7039 10.3108V10.2716V8.27173C12.7039 8.03569 12.5067 7.84196 12.2604 7.84196C12.014 7.84196 11.8168 8.03569 11.8168 8.27173V10.645C11.8168 10.8407 11.9536 11.0129 12.1511 11.0615L13.9079 11.4943L13.9754 11.5109L13.9382 11.5696L12.7857 13.3865L12.7857 13.3865C12.7427 13.4543 12.72 13.5321 12.72 13.6115V15.6533V15.7033H12.67H12.2604C12.014 15.7033 11.8168 15.8971 11.8168 16.1331V18.9513C11.8168 19.1874 12.014 19.3811 12.2604 19.3811H12.5071H12.5571V19.4311V20.8704C12.5571 21.1065 12.7544 21.3002 13.0007 21.3002H16.5238C16.7701 21.3002 16.9674 21.1065 16.9674 20.8704V19.4311V19.3811H17.0174H22.3105H22.3605V19.4311V20.8704C22.3605 21.1065 22.5577 21.3002 22.8041 21.3002H26.3271C26.5735 21.3002 26.7707 21.1065 26.7707 20.8704V19.4311V19.3811H26.8207H27.3143C27.5606 19.3811 27.7579 19.1874 27.7579 18.9513V16.1331C27.7579 15.8971 27.5606 15.7033 27.3143 15.7033H27.0552H27.0052V15.6533V13.6115C27.0052 13.5321 26.9825 13.4543 26.9395 13.3865L26.9395 13.3865L25.7812 11.5605ZM25.8836 20.3906V20.4406H25.8336H23.2976H23.2476V20.3906V19.4311V19.3811H23.2976H25.8336H25.8836V19.4311V20.3906ZM16.0802 20.3906V20.4406H16.0302H13.4943H13.4443V20.3906V19.4311V19.3811H13.4943H16.0302H16.0802V19.4311V20.3906ZM15.1126 6.33447V6.3044L15.1391 6.2903L16.3969 5.62313L16.4204 5.6673L16.3969 5.62313C16.6217 5.50389 16.8737 5.44144 17.1296 5.44144H22.9217C23.2387 5.44144 23.548 5.5372 23.8068 5.71566L24.591 6.25644L24.6126 6.27134V6.2976V11.24C24.6126 11.3194 24.6353 11.3973 24.6783 11.4651L26.1102 13.722L26.118 13.7343V13.7488V16.1337C26.118 16.3698 26.3153 16.5635 26.5616 16.5635H26.8207H26.8707V16.6135V18.4715V18.5215H26.8207H12.7539H12.7039V18.4715V16.6135V16.5635H12.7539H13.1636C13.4099 16.5635 13.6072 16.3698 13.6072 16.1337V13.7488V13.7343L13.6149 13.722L15.0469 11.4651C15.0899 11.3973 15.1126 11.3194 15.1126 11.24V6.33447Z" fill="#0E1D4C" stroke="white" stroke-width="0.1"/>
</svg>
