<svg width="77" height="46" viewBox="0 0 77 46" fill="none" xmlns="http://www.w3.org/2000/svg">
<g clip-path="url(#clip0_294_1889)">
<mask id="mask0_294_1889" style="mask-type:luminance" maskUnits="userSpaceOnUse" x="0" y="0" width="77" height="46">
<path d="M76.0564 0.847168H0.346069V45.7427H76.0564V0.847168Z" fill="white"/>
</mask>
<g mask="url(#mask0_294_1889)">
<path fill-rule="evenodd" clip-rule="evenodd" d="M20.2555 14.2106L20.4189 32.7033L24.5874 37.8358L37.0931 44.4345L52.4592 36.9396L55.6468 29.3632L55.3199 4.84149L43.7136 4.51562L31.617 6.4708L20.5829 12.8252L20.2555 14.2106Z" fill="#301506"/>
<path d="M38.1608 0.847168C30.8765 0.847168 24.5226 2.25318 19.2744 5.02517V27.1864C19.2744 31.8495 21.0323 35.7489 24.357 38.4654C27.4441 40.9893 36.9912 45.1488 38.1612 45.6539C39.2707 45.1726 48.931 40.9489 51.969 38.4654C55.2919 35.7503 57.0502 31.8498 57.0502 27.1864V5.02517C51.8013 2.25281 45.448 0.847168 38.1608 0.847168ZM48.9468 5.13855C51.119 5.16686 53.252 5.3006 55.3138 5.49159V27.1862C55.3138 31.3552 53.796 34.7229 50.8676 37.1271C48.2514 39.2745 40.3625 42.7975 38.1612 43.7646C35.9304 42.7844 28.0217 39.217 25.4526 37.128C22.5414 34.7649 21.0091 31.3173 21.0091 27.1871V14.5105C29.3748 6.86359 39.5334 5.01633 48.946 5.13904L48.9468 5.13855ZM38.6533 15.2404C36.861 15.2404 35.4149 15.6397 34.2242 16.4057V37.7505H37.5115V30.8547C37.8395 30.9511 38.3157 31.0413 38.9902 31.0413C42.6365 31.0413 44.7324 27.765 44.7324 22.9814C44.7324 18.2071 42.5743 15.2404 38.6533 15.2404ZM49.8852 15.2404C47.7234 15.3029 45.4626 16.8638 45.4764 19.5099C45.482 21.2522 45.9665 22.5553 48.6757 24.1396C50.1215 24.9855 50.704 25.543 50.729 26.5707C50.7567 27.7133 49.9646 28.4023 48.7592 28.3977C47.7106 28.3894 46.457 27.8093 45.6175 27.0644V30.0796C46.6468 30.6913 47.9312 31.0956 49.2287 31.0956C52.476 31.0956 53.9261 28.8093 53.9887 26.7142C54.0505 24.8046 53.5211 23.3598 50.775 21.7515C49.5494 21.0351 48.5815 20.5642 48.6138 19.372C48.646 18.2083 49.6154 17.7995 50.5461 17.8077C51.6943 17.8179 52.805 18.4517 53.4905 19.1525V16.3052C52.9127 15.8616 51.6895 15.1853 49.8852 15.2404ZM22.6876 15.5719V25.8678C22.6876 29.3388 24.3349 31.0959 27.586 31.0959C29.5976 31.0959 31.2826 30.6319 32.5377 29.7813V15.5719H29.2577V27.9172C28.9001 28.1615 28.3698 28.3176 27.7026 28.3176C26.1969 28.3176 25.9719 26.9413 25.9719 26.0128V15.5721L22.6876 15.5719ZM38.6754 17.8782C40.5819 17.8782 41.3722 19.3954 41.3722 23.0648C41.3722 26.645 40.4684 28.3748 38.5774 28.3748C38.1324 28.3748 37.7455 28.2649 37.5105 28.1768V18.1153C37.7768 17.983 38.2294 17.8782 38.6754 17.8782Z" fill="#FAB80A"/>
</g>
</g>
<defs>
<clipPath id="clip0_294_1889">
<rect width="76.1097" height="44.9322" fill="white" transform="translate(0.225708 0.810547)"/>
</clipPath>
</defs>
</svg>
