<svg width="17" height="18" viewBox="0 0 17 18" fill="none" xmlns="http://www.w3.org/2000/svg">
<path d="M8.5 9.34776H8.50014C9.59488 9.34651 10.6437 8.89894 11.4167 8.1044C12.1896 7.30997 12.6238 6.23357 12.625 5.11152V5.11138C12.625 4.27426 12.3835 3.45566 11.9307 2.75909C11.4778 2.06249 10.8338 1.51902 10.0797 1.19795C9.32553 0.876867 8.49546 0.792798 7.6946 0.956534C6.89377 1.12027 6.15864 1.52432 5.58198 2.11703C5.00536 2.70971 4.61304 3.46442 4.45414 4.28554C4.29523 5.10665 4.37676 5.95779 4.68854 6.73146C5.00034 7.50516 5.52857 8.167 6.20696 8.63291C6.88539 9.09884 7.68338 9.34776 8.5 9.34776ZM6.96579 2.74551C7.42022 2.43342 7.9541 2.26706 8.49995 2.26705C9.2316 2.26795 9.93376 2.56705 10.4522 3.09992C10.9708 3.63292 11.263 4.3563 11.2639 5.11152C11.2639 5.67478 11.1013 6.22511 10.7972 6.69292C10.4931 7.16073 10.0612 7.52482 9.55657 7.73967C9.05195 7.95451 8.4969 8.01066 7.96145 7.90119C7.42597 7.79171 6.93361 7.52139 6.54684 7.12385C6.16004 6.72627 5.89625 6.21932 5.78935 5.66692C5.68244 5.11451 5.73734 4.54195 5.94696 4.02179C6.15657 3.50166 6.5113 3.05765 6.96579 2.74551Z" fill="white" stroke="white" stroke-width="0.25"/>
<path d="M0.875 15.5871V15.5872V16.9988C0.875 17.1823 0.945891 17.3589 1.07312 17.4897C1.20047 17.6206 1.37394 17.6948 1.55556 17.6948C1.73717 17.6948 1.91064 17.6206 2.03799 17.4897C2.16522 17.3589 2.23611 17.1823 2.23611 16.9988L2.23611 15.5873C2.23611 15.5873 2.23611 15.5873 2.23611 15.5872C2.23728 14.535 2.6445 13.5269 3.36739 12.7839C4.09017 12.041 5.0694 11.6237 6.09004 11.6225C6.09007 11.6225 6.09011 11.6225 6.09014 11.6225H10.9099C10.9099 11.6225 10.9099 11.6225 10.91 11.6225C11.9306 11.6237 12.9098 12.041 13.6326 12.7839C14.3555 13.5269 14.7627 14.5351 14.7639 15.5873V16.9988C14.7639 17.1823 14.8348 17.3589 14.962 17.4897C15.0894 17.6206 15.2628 17.6948 15.4444 17.6948C15.6261 17.6948 15.7995 17.6206 15.9269 17.4897C16.0541 17.3589 16.125 17.1823 16.125 16.9988V15.5872V15.5871C16.1233 14.1679 15.5741 12.8067 14.5968 11.8023C13.6193 10.7977 12.2934 10.232 10.9096 10.2305H10.9094L6.09 10.2305L6.08985 10.2305C4.70617 10.2322 3.38035 10.7979 2.40302 11.8025C1.4258 12.8069 0.876655 14.168 0.875 15.5871Z" fill="white" stroke="white" stroke-width="0.25"/>
</svg>
