<svg width="99" height="52" viewBox="0 0 99 52" fill="none" xmlns="http://www.w3.org/2000/svg">
<path d="M0.698151 7.89551C0.698151 4.02951 3.83216 0.895508 7.69815 0.895508H91.3019C95.1678 0.895508 98.3019 4.02952 98.3019 7.89551V44.0405C98.3019 47.9065 95.1678 51.0405 91.3019 51.0405H7.69815C3.83216 51.0405 0.698151 47.9065 0.698151 44.0405V7.89551Z" fill="#172654"/>
<path d="M44.4026 19.9005L39.8327 30.583H36.8452L34.5944 22.0503C34.4586 21.5296 34.3358 21.3293 33.9259 21.1156C33.2445 20.7551 32.1256 20.4213 31.1433 20.2076L31.2116 19.9005H36.0133C36.6272 19.9005 37.1729 20.3011 37.3095 20.9821L38.4958 27.1646L41.4427 19.9005H44.4026ZM48.4407 19.9005L46.1078 30.583H43.2845L45.6166 19.9005H48.4407ZM56.0941 27.0845C56.1071 24.2669 52.1104 24.1067 52.1381 22.8516C52.1511 22.4643 52.5194 22.0637 53.3383 21.9569C53.7473 21.9035 54.8524 21.8634 56.1209 22.4376L56.612 20.1676C55.9298 19.9272 55.0573 19.7002 53.9791 19.7002C51.1826 19.7002 49.2319 21.1557 49.205 23.2254C49.1912 24.761 50.6102 25.6156 51.6738 26.1364C52.7788 26.6572 53.1472 26.991 53.1334 27.4584C53.1196 28.1794 52.2601 28.4865 51.442 28.5C50.0231 28.5266 49.2051 28.126 48.5497 27.8189L48.0317 30.1557C48.6863 30.4495 49.9141 30.7032 51.1688 30.7165C54.1433 30.7433 56.0803 29.3011 56.0941 27.0845ZM63.4604 30.5697H66.0658L63.7873 19.8871H61.3869C60.8412 19.8871 60.3908 20.1943 60.1859 20.675L55.9575 30.5697H58.9173L59.5044 28.9806H63.1189L63.4604 30.5697ZM60.3086 26.7907L61.7959 22.7848L62.6554 26.7907H60.3086ZM52.0421 33.5073H50.8964V34.5489H52.1788V34.8694H50.5142V31.9717H52.1243V32.2922H50.9103V33.2135H52.056V33.5073H52.0421ZM52.7789 31.8115H53.1611V34.8694H52.7789V31.8115ZM54.1433 33.8946C54.1563 34.402 54.484 34.6157 54.8662 34.6157C55.1386 34.6157 55.3159 34.5622 55.4525 34.5088L55.5208 34.7759C55.3842 34.8293 55.1524 34.9095 54.8117 34.9095C54.1563 34.9095 53.7611 34.4821 53.7611 33.8546C53.7611 33.2269 54.1433 32.7329 54.7572 32.7329C55.4525 32.7329 55.6297 33.3204 55.6297 33.7076C55.6297 33.7878 55.6298 33.8411 55.616 33.8812H54.1433V33.8946ZM55.2752 33.6275C55.2752 33.3872 55.1801 33.0133 54.7434 33.0133C54.3474 33.0133 54.184 33.3605 54.1564 33.6275H55.2752ZM57.7448 34.8026C57.6488 34.856 57.4171 34.9228 57.1308 34.9228C56.4893 34.9228 56.0665 34.4955 56.0665 33.8546C56.0665 33.2135 56.5169 32.7462 57.2122 32.7462C57.4439 32.7462 57.6488 32.7997 57.7448 32.853L57.6626 33.1468C57.5667 33.0934 57.4309 33.0534 57.2122 33.0534C56.721 33.0534 56.4625 33.4138 56.4625 33.8411C56.4625 34.3219 56.7755 34.6157 57.1983 34.6157C57.4171 34.6157 57.5667 34.5622 57.6765 34.5222L57.7448 34.8026ZM58.836 32.2922V32.7862H59.3946V33.08H58.836V34.2017C58.836 34.4554 58.9035 34.6023 59.1223 34.6023C59.2312 34.6023 59.2857 34.5889 59.3402 34.5756L59.354 34.8694C59.2857 34.896 59.1629 34.9228 59.0133 34.9228C58.836 34.9228 58.6856 34.856 58.5905 34.7625C58.4807 34.6423 58.44 34.4554 58.44 34.215V33.08H58.1123V32.7862H58.44V32.399L58.836 32.2922ZM59.9273 33.4406C59.9273 33.2002 59.9273 32.9866 59.9134 32.7862H60.2542L60.268 33.2002H60.2818C60.3769 32.9198 60.6087 32.7462 60.8681 32.7462C60.9096 32.7462 60.9364 32.7462 60.9771 32.7596V33.1201C60.9364 33.1068 60.8957 33.1068 60.8412 33.1068C60.568 33.1068 60.3769 33.3071 60.3224 33.5874C60.3086 33.6409 60.3086 33.7076 60.3086 33.761V34.8694H59.9273V33.4406ZM63.3515 33.8145C63.3515 34.5889 62.805 34.9228 62.287 34.9228C61.7138 34.9228 61.2641 34.5088 61.2641 33.8546C61.2641 33.1601 61.7276 32.7596 62.3147 32.7596C62.9416 32.7462 63.3515 33.1735 63.3515 33.8145ZM61.6731 33.8278C61.6731 34.2818 61.9325 34.629 62.3147 34.629C62.6822 34.629 62.9555 34.2952 62.9555 33.8145C62.9555 33.4673 62.7782 33.0133 62.3147 33.0133C61.8642 33.0266 61.6731 33.4406 61.6731 33.8278ZM63.9377 33.3471C63.9377 33.1335 63.9377 32.9598 63.9239 32.7862H64.2654L64.2923 33.1335H64.3061C64.4151 32.9465 64.6607 32.7462 65.0152 32.7462C65.3152 32.7462 65.7657 32.9198 65.7657 33.6275V34.8694H65.3835V33.6676C65.3835 33.3337 65.2608 33.0534 64.8924 33.0534C64.6468 33.0534 64.4427 33.2269 64.3744 33.4406C64.3606 33.494 64.3468 33.5474 64.3468 33.6142V34.8694H63.9646V33.3471H63.9377Z" fill="white"/>
</svg>
